<?xml version="1.0" standalone="no"?>
<!DOCTYPE svg PUBLIC "-//W3C//DTD SVG 1.1//EN" "http://www.w3.org/Graphics/SVG/1.1/DTD/svg11.dtd" >
<svg>
<metadata>
Created by FontForge 20120731 at Sat Jun 29 23:53:37 2019
 By www
Copyright (c) 2012 by Toni Hurme. All rights reserved.
</metadata>
<defs>
<font id="HurmeGeometricSans4W00-Lt" horiz-adv-x="794" >
  <font-face 
    font-family="HurmeGeometricSans4W00-Lt"
    font-weight="350"
    font-stretch="normal"
    units-per-em="1000"
    panose-1="2 11 4 0 2 0 0 0 0 0"
    ascent="800"
    descent="-200"
    x-height="504"
    cap-height="697"
    bbox="-54 -291 1398 1028"
    underline-thickness="50"
    underline-position="-75"
    unicode-range="U+0020-FB04"
  />
<missing-glyph horiz-adv-x="712" 
d="M0 0v697h712v-697h-712zM42 42h628v613h-628v-613zM122 143l205 205l-205 206l29 29l205 -206l205 206l29 -29l-205 -206l205 -205l-29 -29l-205 205l-205 -205z" />
    <glyph glyph-name="uniFB00" unicode="ff" horiz-adv-x="537" 
d="M109 0v457h-78v47h78v47q0 158 140 158q25 0 39 -4v-46q-16 4 -44 4q-43 0 -64 -26t-21 -80v-53h184v47q0 158 140 158q25 0 39 -4v-46q-16 4 -44 4q-43 0 -64 -26t-21 -80v-53h112v-47h-112v-457h-50v457h-184v-457h-50z" />
    <glyph glyph-name="f_j.liga" unicode="fj" horiz-adv-x="453" 
d="M109 0v457h-78v47h78v47q0 36 8.5 70t36.5 59q36 29 107 29q29 0 47 -4v-46q-20 4 -52 4q-49 0 -73 -26t-24 -80v-53h234v-561q0 -73 -34 -111t-101 -38q-18 0 -36 4v47q16 -4 41 -4q41 0 60.5 24.5t19.5 77.5v514h-184v-457h-50z" />
    <glyph glyph-name="f_f_j.liga" unicode="ffj" horiz-adv-x="687" 
d="M109 0v457h-78v47h78v47q0 158 140 158q25 0 39 -4v-46q-16 4 -44 4q-43 0 -64 -26t-21 -80v-53h184v47q0 36 8.5 70t36.5 59q36 29 107 29q29 0 47 -4v-46q-20 4 -52 4q-49 0 -73 -26t-24 -80v-53h234v-561q0 -73 -34 -111t-101 -38q-18 0 -36 4v47q16 -4 41 -4
q41 0 60.5 24.5t19.5 77.5v514h-184v-457h-50v457h-184v-457h-50z" />
    <glyph glyph-name=".notdef" horiz-adv-x="712" 
d="M0 0v697h712v-697h-712zM42 42h628v613h-628v-613zM122 143l205 205l-205 206l29 29l205 -206l205 206l29 -29l-205 -206l205 -205l-29 -29l-205 205l-205 -205z" />
    <glyph glyph-name="glyph1" horiz-adv-x="0" 
 />
    <glyph glyph-name="glyph2" horiz-adv-x="0" 
 />
    <glyph glyph-name="space" unicode=" " horiz-adv-x="412" 
 />
    <glyph glyph-name="exclam" unicode="!" horiz-adv-x="223" 
d="M91 155l-11 542h63l-10 -542h-42zM76 26q0 16 11.5 26t24.5 10t24.5 -10t11.5 -26q0 -15 -12 -25.5t-24 -10.5q-13 0 -24.5 10.5t-11.5 25.5z" />
    <glyph glyph-name="quotedbl" unicode="&#x22;" horiz-adv-x="250" 
d="M160 445l-9 252h52l-9 -252h-34zM56 445l-8 252h52l-9 -252h-35z" />
    <glyph glyph-name="numbersign" unicode="#" horiz-adv-x="532" 
d="M93 127l27 107h-89v42h100l36 139h-91v42h102l26 105h47l-27 -105h140l27 105h46l-26 -105h90v-42h-101l-35 -139h92v-42h-103l-27 -107h-47l27 107h-140l-27 -107h-47zM178 276h140l36 139h-141z" />
    <glyph glyph-name="dollar" unicode="$" horiz-adv-x="530" 
d="M39 151l49 22q21 -56 61 -91.5t96 -42.5v318q-104 48 -133 92t-29 100q0 66 45.5 110.5t116.5 49.5v98h44v-99q50 -6 88 -31t61 -68l-44 -23q-34 63 -105 73v-267q79 -35 117.5 -63.5t57.5 -65.5t19 -89q0 -28 -8.5 -59t-30.5 -57.5t-60 -46t-95 -22.5v-96h-44v98
q-71 6 -125 47t-81 113zM245 412v249q-22 -2 -48 -13t-44 -37.5t-18 -61.5q0 -38 20 -70t90 -67zM289 38q48 3 79.5 22t47 49.5t15.5 64.5q0 59 -33.5 94t-108.5 69v-299z" />
    <glyph glyph-name="percent" unicode="%" horiz-adv-x="721" 
d="M196 396q-64 0 -110 46t-46 110t46 110t110 46t110 -46t46 -110t-46 -110t-110 -46zM109 0l451 697h54l-451 -697h-54zM196 438q21 0 46.5 11.5t44.5 40t19 62.5q0 21 -11 48t-39 46.5t-60 19.5q-21 0 -47 -11.5t-45 -40t-19 -62.5q0 -22 11 -48.5t39 -46t61 -19.5z
M525 -11q-64 0 -110 46t-46 110t46 110t110 46t110 -46t46 -110t-46 -110t-110 -46zM525 31q21 0 46.5 11.5t44.5 40t19 62.5q0 21 -11 48t-39 46.5t-60 19.5q-21 0 -47 -11.5t-45 -40t-19 -62.5q0 -22 11 -48.5t39 -46t61 -19.5z" />
    <glyph glyph-name="ampersand" unicode="&#x26;" horiz-adv-x="732" 
d="M46 220q0 75 40.5 129t111.5 84q-30 55 -30 110q0 71 47 118t120 47q71 0 116.5 -44t45.5 -109t-46 -99h253v-47h-138v-53q0 -132 -40 -221l129 -135h-65l-90 93q-82 -105 -210 -105q-67 0 -125.5 28.5t-88.5 84t-30 119.5zM328 343l158 -167q30 72 30 180v53h-157v32
q36 5 62 35.5t26 72.5q0 23 -10.5 49t-39 44.5t-64.5 18.5q-44 0 -79.5 -31.5t-35.5 -86.5q0 -38 23 -85t87 -115zM96 220q0 -85 52.5 -135t141.5 -50q59 0 103 25t71 70q-12 12 -42.5 45t-97.5 103t-97 113q-131 -51 -131 -171z" />
    <glyph glyph-name="quotesingle" unicode="'" horiz-adv-x="147" 
d="M56 445l-8 252h52l-9 -252h-35z" />
    <glyph glyph-name="parenleft" unicode="(" horiz-adv-x="277" 
d="M299 -137l-26 -27q-110 96 -166.5 216.5t-56.5 256.5t56.5 256.5t166.5 216.5l26 -27q-198 -187 -198 -446t198 -446z" />
    <glyph glyph-name="parenright" unicode=")" horiz-adv-x="277" 
d="M-22 -137q198 187 198 446t-198 446l26 27q110 -96 166.5 -216.5t56.5 -256.5t-56.5 -256.5t-166.5 -216.5z" />
    <glyph glyph-name="asterisk" unicode="*" horiz-adv-x="409" 
d="M130 421l-32 24l80 96l-119 39l14 37l115 -45l-3 125h40l-3 -125l115 45l14 -37l-119 -39l80 -96l-32 -24l-75 100z" />
    <glyph glyph-name="plus" unicode="+" horiz-adv-x="391" 
d="M170 190v135h-124v47h124v134h51v-134h124v-47h-124v-135h-51z" />
    <glyph glyph-name="comma" unicode="," horiz-adv-x="188" 
d="M-24 -128l94 239h67l-119 -239h-42z" />
    <glyph glyph-name="hyphen" unicode="-" horiz-adv-x="350" 
d="M45 239v47h261v-47h-261z" />
    <glyph glyph-name="period" unicode="." horiz-adv-x="171" 
d="M50 31q0 15 11.5 25.5t24.5 10.5q12 0 24 -10.5t12 -25.5q0 -16 -11.5 -26t-24.5 -10t-24.5 10t-11.5 26z" />
    <glyph glyph-name="slash" unicode="/" horiz-adv-x="406" 
d="M5 -136l312 859h49l-314 -859h-47z" />
    <glyph glyph-name="zero" unicode="0" horiz-adv-x="554" 
d="M507 500q3 -32 3 -151q0 -120 -3 -152q-4 -44 -24 -83t-51 -67.5t-71.5 -44t-83.5 -15.5q-32 0 -68.5 10.5t-74.5 39t-60.5 72.5t-26.5 88q-3 32 -3 152q0 119 3 151q4 45 24 84t51.5 67t71.5 43.5t83 15.5t83 -15.5t71.5 -43.5t51.5 -67t24 -84zM455 200q3 30 3 149
q0 118 -3 148q-6 71 -57 118t-121 47t-121 -47t-57 -118q-3 -30 -3 -148q0 -119 3 -149q2 -26 13 -54t33 -52.5t55.5 -41.5t76.5 -17q16 0 37.5 4t43.5 15t40 28t35.5 46t21.5 72z" />
    <glyph glyph-name="one" unicode="1" horiz-adv-x="282" 
d="M138 0v649h-104v48h156v-697h-52z" />
    <glyph glyph-name="two" unicode="2" horiz-adv-x="497" 
d="M17 0v35l323 362q21 24 36 52.5t15 69.5q0 57 -43 99t-101 42t-101 -43t-43 -101h-51q0 39 15 74.5t42 62.5t63 42t75 15q49 0 96.5 -25.5t73.5 -72t26 -94.5q0 -81 -66 -156l-282 -314h364v-48h-442z" />
    <glyph glyph-name="three" unicode="3" horiz-adv-x="554" 
d="M15 135l45 21q10 -25 35 -53.5t71 -47t99 -18.5q85 0 140 51t55 131q0 77 -54.5 126.5t-142.5 49.5q-44 0 -79 -12l-19 35l234 231h-319v48h399v-35l-232 -227q10 4 37 4q35 0 73 -11t76 -41t57.5 -76t19.5 -92q0 -51 -18.5 -94t-51.5 -74t-78.5 -47.5t-96.5 -16.5
q-87 0 -155 40.5t-95 107.5z" />
    <glyph glyph-name="four" unicode="4" horiz-adv-x="562" 
d="M51 166v35l245 496h57l-239 -482h314v164h53v-379h-53v166h-377z" />
    <glyph glyph-name="five" unicode="5" horiz-adv-x="547" 
d="M30 131l46 21q10 -24 34 -51.5t64 -45.5t83 -18q39 0 75 14.5t63 41t42.5 61.5t15.5 73q0 49 -24.5 95t-69.5 71t-93 25q-44 0 -81 -15.5t-62 -38.5l-38 9l58 324h311v-48h-267l-39 -217q22 16 54 26t64 10q52 0 96.5 -19t76.5 -52.5t49.5 -76.5t17.5 -89
q0 -52 -19 -97.5t-53.5 -78.5t-80 -50.5t-96.5 -17.5q-74 0 -136 39.5t-91 104.5z" />
    <glyph glyph-name="six" unicode="6" horiz-adv-x="562" 
d="M44 228q0 23 6 49.5t21.5 58t49 81t35.5 52.5l152 228h62l-176 -260q16 13 42 19.5t52 6.5q46 0 88.5 -18t75 -49.5t51 -75t18.5 -91.5q0 -50 -18.5 -94.5t-51 -77.5t-76.5 -51.5t-92 -18.5t-92 18.5t-77 51.5t-51.5 77.5t-18.5 93.5zM97 226q0 -29 9.5 -61.5t35.5 -64.5
t64.5 -48t76.5 -16q28 0 59.5 10t63 36.5t48 66t16.5 77.5q0 28 -9.5 60t-36 63.5t-65 48t-76.5 16.5q-39 0 -73.5 -14t-59.5 -40t-39 -60.5t-14 -73.5z" />
    <glyph glyph-name="seven" unicode="7" horiz-adv-x="542" 
d="M130 0l316 649h-410v48h473v-37l-321 -660h-58z" />
    <glyph glyph-name="eight" unicode="8" horiz-adv-x="534" 
d="M41 206q0 72 40 125t100 71q-39 17 -63 55t-24 82q0 26 10.5 58.5t37 59.5t58.5 40t67 13q26 0 55 -9t55 -30t44.5 -55t18.5 -77q0 -44 -24.5 -82t-63.5 -55q44 -13 79 -46.5t48.5 -73.5t13.5 -76q0 -44 -17.5 -84t-48.5 -70.5t-72.5 -47.5t-87.5 -17t-87.5 17
t-72.5 47.5t-48.5 70.5t-17.5 84zM267 418q36 0 67 21t43 49t12 51q0 51 -35.5 86.5t-86.5 35.5t-86.5 -35.5t-35.5 -86.5q0 -24 12 -52t42.5 -48.5t67.5 -20.5zM93 206q0 -26 9 -54.5t30.5 -54t56 -43.5t78.5 -18q35 0 67 13t56 36.5t37.5 55t13.5 65.5q0 70 -51 119.5
t-123 49.5t-123 -49.5t-51 -119.5z" />
    <glyph glyph-name="nine" unicode="9" horiz-adv-x="555" 
d="M185 0l180 265q-31 -23 -91 -23q-56 0 -112 29t-87.5 84t-31.5 116q0 49 18 93.5t50.5 77t76 50.5t90.5 18q49 0 92.5 -18.5t75.5 -51t49.5 -76t17.5 -90.5q0 -37 -15.5 -81.5t-68.5 -123.5l-182 -269h-62zM278 289q30 0 62 10t59 33t45 59.5t18 82.5q0 78 -54 132.5
t-130 54.5q-47 0 -91.5 -24.5t-68.5 -69.5t-24 -93q0 -37 14 -71.5t39.5 -59.5t59.5 -39.5t71 -14.5z" />
    <glyph glyph-name="colon" unicode=":" horiz-adv-x="172" 
d="M86 354q-13 0 -24.5 10t-11.5 26q0 15 11.5 25.5t24.5 10.5q12 0 24 -10.5t12 -25.5q0 -16 -11.5 -26t-24.5 -10zM86 78q-13 0 -24.5 10t-11.5 26q0 15 11.5 25.5t24.5 10.5q12 0 24 -10.5t12 -25.5q0 -16 -11.5 -26t-24.5 -10z" />
    <glyph glyph-name="semicolon" unicode=";" horiz-adv-x="201" 
d="M106 354q-13 0 -24.5 10t-11.5 26q0 15 11.5 25.5t24.5 10.5q12 0 24 -10.5t12 -25.5q0 -16 -11.5 -26t-24.5 -10zM-17 -128l94 239h67l-119 -239h-42z" />
    <glyph glyph-name="less" unicode="&#x3c;" horiz-adv-x="409" 
d="M45 338v36l312 196v-53l-259 -161l259 -160v-53z" />
    <glyph glyph-name="equal" unicode="=" horiz-adv-x="433" 
d="M46 402v47h342v-47h-342zM46 260v47h342v-47h-342z" />
    <glyph glyph-name="greater" unicode="&#x3e;" horiz-adv-x="409" 
d="M52 143v53l259 160l-259 161v53l312 -196v-36z" />
    <glyph glyph-name="question" unicode="?" horiz-adv-x="391" 
d="M212 154q-27 0 -57.5 10.5t-50 38.5t-19.5 66q0 70 80 128q2 2 41 29.5t59.5 49t28 46t7.5 47.5q0 15 -7.5 33t-21.5 30.5t-35 20t-50 7.5q-73 0 -137 -62v60q58 50 137 50q36 0 68.5 -10t54 -31t32 -46.5t10.5 -49.5q0 -30 -7 -57t-27 -52.5t-67 -60.5t-49 -37
q-66 -49 -66 -95q0 -32 19.5 -49.5t56.5 -17.5q39 0 67 18v-52q-28 -14 -67 -14zM154 26q0 16 11.5 26t24.5 10t24.5 -10t11.5 -26q0 -15 -11.5 -25.5t-24.5 -10.5t-24.5 10.5t-11.5 25.5z" />
    <glyph glyph-name="at" unicode="@" horiz-adv-x="805" 
d="M42 292q0 68 26.5 133.5t75 116.5t115.5 80.5t143 29.5q70 0 136 -25.5t117 -72.5t80 -110.5t29 -134.5q0 -101 -37.5 -154t-101.5 -53q-38 0 -63.5 21.5t-35.5 58.5q-19 -33 -53 -52t-73 -19q-73 0 -123 50.5t-50 124.5t50.5 125t122.5 51q38 0 69 -16.5t50 -47.5v55h48
v-224q0 -40 16.5 -60t41.5 -20q89 0 89 160q0 60 -24.5 114.5t-67.5 96t-100.5 64.5t-119.5 23t-119 -24.5t-100 -68t-67.5 -101.5t-24.5 -121t24.5 -121t67.5 -101.5t100 -68t119 -24.5q36 0 76.5 11t73.5 30l23 -43q-81 -43 -173 -43q-69 0 -134.5 27t-116.5 76t-80 115.5
t-29 141.5zM276 286q0 -25 12 -55t43 -51t69 -21q24 0 52.5 12t49 43.5t20.5 71.5q0 41 -20.5 73t-49 44t-52.5 12q-25 0 -54 -12.5t-49.5 -44.5t-20.5 -72z" />
    <glyph glyph-name="A" unicode="A" horiz-adv-x="685" 
d="M35 0l287 697h41l287 -697h-56l-78 190h-348l-77 -190h-56zM188 238h308l-154 379z" />
    <glyph glyph-name="B" unicode="B" horiz-adv-x="588" 
d="M96 0v697h208q27 0 57.5 -8.5t57 -29.5t45 -55t18.5 -80q0 -51 -25.5 -90.5t-69.5 -54.5q65 -9 105 -59.5t40 -120.5q0 -41 -15.5 -78t-43 -64t-64.5 -42t-79 -15h-234zM148 397h152q26 0 56.5 12t52 43t21.5 70q0 55 -36.5 91t-92.5 36h-153v-252zM148 48h179
q65 0 109 43.5t44 107.5q0 65 -44.5 107.5t-112.5 42.5h-175v-301z" />
    <glyph glyph-name="C" unicode="C" horiz-adv-x="719" 
d="M51 348q0 56 18.5 117t63 115t99 82.5t100 37.5t80.5 9q78 0 147.5 -31t118.5 -86l-35 -33q-41 48 -101.5 75t-129.5 27q-64 0 -121.5 -23.5t-99.5 -66t-65 -100.5t-23 -123t23 -122.5t65 -100t99.5 -66t121.5 -23.5q33 0 75.5 9t84.5 34t72 61l36 -33
q-49 -56 -119 -87.5t-149 -31.5q-73 0 -139.5 27t-116 76t-77.5 115.5t-28 141.5z" />
    <glyph glyph-name="D" unicode="D" horiz-adv-x="721" 
d="M96 0v697h211q81 0 148.5 -25t114.5 -71.5t72 -111.5t25 -141t-25 -140.5t-71.5 -111t-114 -71.5t-148.5 -25h-212zM148 48h156q73 0 131.5 21.5t98 61.5t60 95.5t20.5 121.5t-20.5 122t-60 96t-98.5 61.5t-132 21.5h-155v-601z" />
    <glyph glyph-name="E" unicode="E" horiz-adv-x="543" 
d="M96 0v697h380v-48h-328v-256h309v-49h-309v-296h335v-48h-387z" />
    <glyph glyph-name="F" unicode="F" horiz-adv-x="493" 
d="M96 0v697h344v-48h-292v-259h267v-48h-267v-342h-52z" />
    <glyph glyph-name="G" unicode="G" horiz-adv-x="737" 
d="M50 348q0 75 27.5 141.5t77 115.5t116 76t139.5 27q63 0 120.5 -19.5t102.5 -55.5l-31 -37q-82 64 -192 64q-64 0 -121 -23.5t-99 -66t-65 -100.5t-23 -122q0 -65 23 -123t65 -100.5t99 -66t121 -23.5q61 0 115.5 20t95.5 57v211h-229v48h281v-278q-51 -50 -119.5 -78
t-143.5 -28q-73 0 -139.5 27t-116 76t-77 116t-27.5 142z" />
    <glyph glyph-name="H" unicode="H" horiz-adv-x="709" 
d="M96 0v697h52v-303h413v303h52v-697h-52v346h-413v-346h-52z" />
    <glyph glyph-name="I" unicode="I" horiz-adv-x="251" 
d="M100 0v697h52v-697h-52z" />
    <glyph glyph-name="J" unicode="J" horiz-adv-x="318" 
d="M19 -4v51q24 -9 57 -9q50 0 74 31.5t24 112.5v515h52v-513q0 -70 -13 -111t-45.5 -63t-89.5 -22q-36 0 -59 8z" />
    <glyph glyph-name="K" unicode="K" horiz-adv-x="622" 
d="M96 0v697h52v-399l366 399h65l-281 -308l292 -389h-63l-264 352l-115 -126v-226h-52z" />
    <glyph glyph-name="L" unicode="L" horiz-adv-x="491" 
d="M96 0v697h52v-649h300v-48h-352z" />
    <glyph glyph-name="M" unicode="M" horiz-adv-x="840" 
d="M96 0v697h48l276 -485l277 485h48v-697h-52v592l-273 -473l-273 472v-591h-51z" />
    <glyph glyph-name="N" unicode="N" horiz-adv-x="733" 
d="M96 0v697h45l444 -603v603h52v-697h-43l-446 607v-607h-52z" />
    <glyph glyph-name="O" unicode="O" horiz-adv-x="822" 
d="M51 348q0 75 27.5 142t77 116t116 76t139.5 27t139 -27t115.5 -76t77.5 -116t28 -142t-28 -141.5t-77.5 -115.5t-115.5 -76t-139 -27t-139.5 27t-116 76t-77 115.5t-27.5 141.5zM102 348q0 -64 23 -121.5t65 -100t99.5 -66t121.5 -23.5t121 23.5t98.5 66t64.5 100
t23 121.5t-23.5 122t-65 100.5t-98.5 66t-120 23.5q-64 0 -121 -23.5t-99 -66t-65.5 -100.5t-23.5 -122z" />
    <glyph glyph-name="P" unicode="P" horiz-adv-x="557" 
d="M96 0v697h202q33 0 69 -11t67 -36.5t52 -66t21 -92.5q0 -55 -26.5 -104.5t-77 -76t-105.5 -26.5h-150v-284h-52zM148 332h148q45 0 80 19t57 55.5t22 84.5q0 31 -9.5 56t-26 46t-47.5 38.5t-76 17.5h-148v-317z" />
    <glyph glyph-name="Q" unicode="Q" horiz-adv-x="821" 
d="M51 348q0 75 27.5 142t77 116t116 76t139.5 27t139 -27t115.5 -76t77.5 -116t28 -142q0 -77 -29.5 -145.5t-80.5 -116.5l75 -92l-37 -31l-75 92q-44 -32 -99 -49.5t-114 -17.5q-73 0 -139.5 27t-116 76t-77 115.5t-27.5 141.5zM102 348q0 -64 23 -121.5t65 -100t99.5 -66
t121.5 -23.5q50 0 97.5 15t84.5 42l-128 157l38 31l125 -158q42 42 66 100.5t24 123.5q0 64 -23.5 122t-65 100.5t-98.5 66t-120 23.5q-64 0 -121 -23.5t-99 -66t-65.5 -100.5t-23.5 -122z" />
    <glyph glyph-name="R" unicode="R" horiz-adv-x="591" 
d="M96 0v697h223q20 0 50.5 -6t63.5 -27.5t52.5 -49.5t28.5 -57.5t9 -60.5q0 -32 -12.5 -71.5t-46 -74t-78.5 -49.5l169 -301h-57l-164 293l-21 -1h-165v-292h-52zM148 340h166q67 0 112 44.5t45 111.5q0 64 -44.5 108.5t-109.5 44.5h-169v-309z" />
    <glyph glyph-name="S" unicode="S" horiz-adv-x="546" 
d="M44 155l45 21q26 -65 76.5 -102.5t119.5 -37.5q33 0 63 8.5t51.5 27.5t33 45.5t11.5 57.5q0 33 -12 60.5t-43.5 52.5t-111.5 60q-105 45 -142.5 87t-37.5 108q0 26 9 54t30.5 53t57 42t82.5 17q123 0 178 -102l-45 -23q-41 77 -133 77q-54 0 -90.5 -32.5t-36.5 -83.5
t30.5 -82t122.5 -71q80 -36 118 -63.5t57 -64t19 -89.5q0 -83 -56 -135t-155 -52q-84 0 -147 42.5t-94 124.5z" />
    <glyph glyph-name="T" unicode="T" horiz-adv-x="525" 
d="M236 0v649h-202v48h457v-48h-203v-649h-52z" />
    <glyph glyph-name="U" unicode="U" horiz-adv-x="677" 
d="M91 231v466h52v-461q0 -96 52.5 -148t143.5 -52t143.5 52t52.5 148v461h52v-466q0 -57 -18 -103t-51.5 -77t-79 -47t-99.5 -16t-99.5 16t-79 47t-51.5 77t-18 103z" />
    <glyph glyph-name="V" unicode="V" horiz-adv-x="675" 
d="M318 0l-279 697h56l243 -610l242 610h56l-279 -697h-39z" />
    <glyph glyph-name="W" unicode="W" horiz-adv-x="922" 
d="M240 0l-209 697h52l178 -586l181 586h38l181 -586l177 586h53l-209 -697h-36l-185 593l-185 -593h-36z" />
    <glyph glyph-name="X" unicode="X" horiz-adv-x="640" 
d="M357 361l239 -361h-59l-216 324l-216 -324h-59l239 361l-226 336h60l202 -298l202 298h60z" />
    <glyph glyph-name="Y" unicode="Y" horiz-adv-x="598" 
d="M325 294v-294h-52v294l-243 403h58l211 -351l211 351h58z" />
    <glyph glyph-name="Z" unicode="Z" horiz-adv-x="621" 
d="M36 0v33l466 616h-414v48h484v-35l-463 -614h464v-48h-537z" />
    <glyph glyph-name="bracketleft" unicode="[" horiz-adv-x="286" 
d="M140 -145h145v-48h-197v890h197v-48h-145v-794z" />
    <glyph glyph-name="backslash" unicode="\" horiz-adv-x="407" 
d="M344 -136l-314 859h48l313 -859h-47z" />
    <glyph glyph-name="bracketright" unicode="]" horiz-adv-x="286" 
d="M2 -145h145v794h-145v48h197v-890h-197v48z" />
    <glyph glyph-name="asciicircum" unicode="^" horiz-adv-x="527" 
d="M27 350l217 354h39l217 -354h-53l-183 302l-184 -302h-53z" />
    <glyph glyph-name="underscore" unicode="_" horiz-adv-x="303" 
d="M-2 -146h307v-47h-307v47z" />
    <glyph glyph-name="grave" unicode="`" horiz-adv-x="545" 
d="M261 552l-85 145h65l60 -145h-40z" />
    <glyph glyph-name="a" unicode="a" horiz-adv-x="635" 
d="M39 252q0 55 19.5 104t54.5 85t81.5 56t98.5 20q53 0 99 -20.5t69.5 -48t31.5 -49.5v105h50v-410q0 -32 9.5 -46.5t32.5 -14.5q18 0 28 3v-39q-15 -7 -42 -7q-29 0 -47 15.5t-23.5 38.5t-5.5 43v17q-25 -52 -78 -84.5t-124 -32.5q-52 0 -98.5 20t-81.5 56t-54.5 85
t-19.5 104zM89 252q0 -45 13.5 -80.5t35 -63.5t62 -51t93.5 -23q43 0 80.5 16t65.5 45.5t43.5 70t15.5 86.5t-15.5 86.5t-43.5 70t-65.5 45.5t-80.5 16q-32 0 -66.5 -11t-65 -38t-51.5 -70t-21 -99z" />
    <glyph glyph-name="b" unicode="b" horiz-adv-x="603" 
d="M61 697h50v-298q12 35 43 62t71 41.5t86 14.5q51 0 98 -20t82 -56t54.5 -85t19.5 -104t-19.5 -104t-54.5 -85t-81.5 -56t-98.5 -20q-37 0 -78.5 12t-75.5 41.5t-46 64.5v-105h-50v697zM311 34q31 0 65.5 11t69 41t52 75.5t17.5 90.5t-15.5 85t-43.5 70t-65.5 46.5
t-79.5 16.5q-43 0 -81 -16t-66 -45.5t-43.5 -70t-15.5 -86.5t15.5 -86.5t43.5 -70t66 -45.5t81 -16z" />
    <glyph glyph-name="c" unicode="c" horiz-adv-x="524" 
d="M39 252q0 55 20.5 104t57 85t85 56t102.5 20q56 0 105.5 -20.5t85.5 -58.5l-30 -34q-30 31 -72 48.5t-89 17.5q-45 0 -84.5 -16.5t-69 -46t-45.5 -70t-16 -85.5t16 -85.5t45.5 -70t69 -46t84.5 -16.5q47 0 89 17.5t72 48.5l30 -34q-36 -38 -85.5 -58.5t-105.5 -20.5
q-54 0 -102.5 20t-85 56t-57 85t-20.5 104z" />
    <glyph glyph-name="d" unicode="d" horiz-adv-x="635" 
d="M39 252q0 55 19.5 104t54.5 85t81.5 56t98.5 20q53 0 99 -20.5t69.5 -48t31.5 -49.5v298h50v-603q0 -32 9.5 -46.5t32.5 -14.5q18 0 28 3v-39q-15 -7 -42 -7q-29 0 -47 15.5t-23.5 38.5t-5.5 43v17q-25 -52 -78 -84.5t-124 -32.5q-52 0 -98.5 20t-81.5 56t-54.5 85
t-19.5 104zM89 252q0 -45 13.5 -80.5t35 -63.5t62 -51t93.5 -23q43 0 80.5 16t65.5 45.5t43.5 70t15.5 86.5t-15.5 86.5t-43.5 70t-65.5 45.5t-80.5 16q-32 0 -66.5 -11t-65 -38t-51.5 -70t-21 -99z" />
    <glyph glyph-name="e" unicode="e" horiz-adv-x="556" 
d="M39 248v3q0 57 18.5 106.5t52 85t79 55t96.5 19.5q50 0 93 -19.5t75 -54.5t49 -81t17 -97l-1 -25h-430q1 -56 26.5 -105t72.5 -74.5t100 -25.5q25 0 54.5 6.5t57.5 23.5t53 43l33 -32q-77 -88 -198 -88q-53 0 -98.5 19t-79 53.5t-52 83t-18.5 104.5zM90 285h377
q-1 77 -54 131t-128 54q-29 0 -61 -9.5t-61 -32.5t-50 -59t-23 -84z" />
    <glyph glyph-name="f" unicode="f" horiz-adv-x="304" 
d="M109 0v457h-78v47h78v47q0 36 8.5 70t36.5 59q33 29 95 29q25 0 39 -4v-45q-18 3 -44 3q-43 0 -64 -26t-21 -80v-53h112v-47h-112v-457h-50z" />
    <glyph glyph-name="g" unicode="g" horiz-adv-x="604" 
d="M86 -96q83 -70 208 -70q90 0 141 42q26 22 42 61.5t16 110.5v54q-25 -52 -77 -83.5t-123 -31.5q-52 0 -98.5 20t-81.5 56t-54.5 85t-19.5 104t19.5 104t54.5 85t81.5 56t98.5 20q53 0 99 -20.5t69.5 -48t31.5 -49.5v105h50v-429q0 -63 -7 -107t-25.5 -75.5t-44.5 -52.5
q-31 -25 -76 -39t-95 -14q-68 0 -129.5 20.5t-106.5 57.5zM89 252q0 -45 13.5 -80.5t35 -63.5t62 -51t93.5 -23q43 0 80.5 16t65.5 45.5t43.5 70t15.5 86.5t-15.5 86.5t-43.5 70t-65.5 45.5t-80.5 16q-32 0 -66.5 -11t-65 -38t-51.5 -70t-21 -99z" />
    <glyph glyph-name="h" unicode="h" horiz-adv-x="556" 
d="M60 0v697h50v-290q19 48 60.5 76.5t110.5 28.5q85 0 137 -55t52 -146v-212q0 -31 8.5 -44t30.5 -13l20 2v-42q-12 -5 -29 -5q-34 0 -57 23t-23 75v206q0 75 -41 119.5t-109 44.5q-73 0 -116.5 -53.5t-43.5 -140.5v-271h-50z" />
    <glyph glyph-name="i" unicode="i" horiz-adv-x="198" 
d="M62 82v422h50v-413q0 -29 9.5 -42t31.5 -13l28 2v-42q-16 -6 -41 -6q-78 0 -78 92zM87 604q-13 0 -24.5 10t-11.5 25q0 16 11.5 26t24.5 10t24.5 -10t11.5 -26q0 -15 -11.5 -25t-24.5 -10z" />
    <glyph glyph-name="j" unicode="j" horiz-adv-x="174" 
d="M62 -70v574h50v-574q0 -136 -128 -136q-21 0 -33 3v47q18 -3 38 -3q38 0 55.5 21t17.5 68zM87 603q-13 0 -24.5 10t-11.5 25q0 16 11.5 26t24.5 10t24.5 -10t11.5 -26q0 -15 -11.5 -25t-24.5 -10z" />
    <glyph glyph-name="k" unicode="k" horiz-adv-x="449" 
d="M61 0v697h50v-470l245 277h60l-195 -221l218 -283h-61l-189 246l-78 -86v-160h-50z" />
    <glyph glyph-name="l" unicode="l" horiz-adv-x="260" 
d="M62 127v570h50v-567q0 -49 18 -72.5t57 -23.5q25 0 42 4v-46q-22 -5 -42 -5q-125 0 -125 140z" />
    <glyph glyph-name="m" unicode="m" horiz-adv-x="846" 
d="M61 0v504h50v-97q39 105 155 105q42 0 77.5 -19t53.5 -47t24 -52q17 54 61 86t109 32q79 0 124 -53.5t45 -147.5v-212q0 -31 8.5 -44t30.5 -13l21 2v-42q-12 -5 -29 -5q-35 0 -58 23t-23 75v206q0 76 -34.5 120t-94.5 44q-65 0 -104 -52t-39 -137v-276h-50v301
q0 75 -35.5 119.5t-96.5 44.5q-66 0 -105.5 -53.5t-39.5 -140.5v-271h-50z" />
    <glyph glyph-name="n" unicode="n" horiz-adv-x="561" 
d="M61 0v504h50v-97q43 105 173 105q86 0 138.5 -55t52.5 -146v-212q0 -31 8.5 -44t30.5 -13l21 2v-42q-12 -5 -29 -5q-35 0 -58 23t-23 75v206q0 75 -42 119.5t-110 44.5q-27 0 -55 -9.5t-51.5 -32t-39.5 -61t-16 -91.5v-271h-50z" />
    <glyph glyph-name="o" unicode="o" horiz-adv-x="606" 
d="M38 252q0 55 20.5 104t57 85t85 56t102.5 20t102.5 -20t85 -56t57 -85t20.5 -104t-20.5 -104t-57 -85t-85 -56t-102.5 -20t-102.5 20t-85 56t-57 85t-20.5 104zM88 252q0 -45 16 -85.5t45.5 -70t69 -46t84.5 -16.5t84.5 16.5t69 46t45.5 70t16 85.5t-16 85.5t-45.5 70
t-69 46t-84.5 16.5t-84.5 -16.5t-69 -46t-45.5 -70t-16 -85.5z" />
    <glyph glyph-name="p" unicode="p" horiz-adv-x="604" 
d="M61 -193v697h50v-105q13 35 46.5 64t74.5 41.5t79 12.5q51 0 98 -20t82 -56t54.5 -85t19.5 -104t-19.5 -104t-54.5 -85t-82 -56t-98 -20q-38 0 -79 12.5t-74.5 41.5t-46.5 64v-298h-50zM106 252q0 -46 15.5 -86.5t43.5 -70t65.5 -45.5t80.5 -16t80.5 16.5t65 46t43 70
t15.5 85.5t-15.5 85t-43 70t-65.5 46.5t-80 16.5q-43 0 -80.5 -16t-65.5 -45.5t-43.5 -70t-15.5 -86.5z" />
    <glyph glyph-name="q" unicode="q" horiz-adv-x="604" 
d="M39 252q0 55 19.5 104t54.5 85t82 56t98 20q38 0 79 -12.5t74.5 -41.5t46.5 -64v105h50v-697h-50v298q-13 -35 -46.5 -64t-74.5 -41.5t-79 -12.5q-51 0 -98 20t-82 56t-54.5 85t-19.5 104zM89 252q0 -45 13.5 -80.5t35 -63.5t62 -51t93.5 -23q43 0 80.5 16t65.5 45.5
t43.5 70t15.5 86.5t-15.5 86.5t-43.5 70t-65.5 45.5t-80.5 16q-32 0 -66.5 -11t-65 -38t-51.5 -70t-21 -99z" />
    <glyph glyph-name="r" unicode="r" horiz-adv-x="344" 
d="M282 512l24 -1v-52l-32 2q-49 0 -85 -22t-57 -63.5t-21 -99.5v-276h-50v504h50v-101q17 49 59.5 79t111.5 30z" />
    <glyph glyph-name="s" unicode="s" horiz-adv-x="404" 
d="M22 111l42 16q11 -30 34.5 -52t53.5 -30.5t57 -8.5q60 0 89.5 27t29.5 65q0 21 -10.5 42t-38 38t-80.5 39q-83 35 -108.5 68.5t-25.5 77.5q0 27 13 55t48 48.5t78 20.5q46 0 80.5 -20.5t54.5 -58.5l-41 -21q-30 53 -93 53q-38 0 -64 -21.5t-26 -55.5q0 -29 20.5 -53
t94.5 -54q77 -31 112.5 -66t35.5 -92q0 -58 -44.5 -98.5t-124.5 -40.5q-69 0 -119 32.5t-68 89.5z" />
    <glyph glyph-name="t" unicode="t" horiz-adv-x="315" 
d="M93 140v317h-59v47h59v193h50v-193h140v-47h-140v-317q0 -57 21 -82t67 -25q30 0 52 5v-45q-24 -6 -50 -6q-73 0 -106.5 38t-33.5 115z" />
    <glyph glyph-name="u" unicode="u" horiz-adv-x="553" 
d="M55 193v311h50v-301q0 -75 40.5 -119.5t108.5 -44.5q73 0 116.5 50.5t43.5 132.5v282h50v-407q0 -32 10 -47t32 -15q18 0 28 3v-39q-16 -7 -42 -7q-20 0 -39 11.5t-27.5 33.5t-8.5 45v14q-16 -44 -62 -74t-113 -30q-84 0 -135.5 55t-51.5 146z" />
    <glyph glyph-name="v" unicode="v" horiz-adv-x="506" 
d="M235 0l-216 504h52l181 -424l182 424h53l-217 -504h-35z" />
    <glyph glyph-name="w" unicode="w" horiz-adv-x="748" 
d="M200 0l-181 504h51l146 -411l140 411h36l139 -411l146 411h52l-181 -504h-34l-140 414l-140 -414h-34z" />
    <glyph glyph-name="x" unicode="x" horiz-adv-x="493" 
d="M29 0l189 267l-173 237h57l144 -197l145 197h57l-173 -236l190 -268h-57l-161 227l-161 -227h-57z" />
    <glyph glyph-name="y" unicode="y" horiz-adv-x="492" 
d="M189 -78l30 75l-200 507h52l173 -442l176 442h53l-238 -593q-24 -60 -51 -86q-16 -15 -38.5 -23.5t-45.5 -8.5q-27 0 -46 8v46q19 -7 46 -7q32 0 54 22q19 19 35 60z" />
    <glyph glyph-name="z" unicode="z" horiz-adv-x="493" 
d="M22 0v30l344 427h-305v47h376v-34l-342 -423h352v-47h-425z" />
    <glyph glyph-name="braceleft" unicode="{" horiz-adv-x="303" 
d="M115 -70v193q0 38 -9 62t-31 37q-5 3 -17.5 7.5t-25.5 5.5v34q13 1 25.5 5.5t17.5 7.5q16 10 28 30.5t12 68.5v193q0 53 29.5 88t80.5 35h34v-40h-29q-33 0 -49 -23t-16 -59v-176q0 -41 -6.5 -71.5t-24.5 -49.5q-19 -19 -43 -26q24 -7 43 -26q14 -14 22.5 -41t8.5 -80
v-176q0 -36 16 -59t49 -23h29v-40h-34q-51 0 -80.5 35t-29.5 88z" />
    <glyph glyph-name="bar" unicode="|" horiz-adv-x="231" 
d="M91 -25v747h49v-747h-49z" />
    <glyph glyph-name="braceright" unicode="}" horiz-adv-x="303" 
d="M188 123v-193q0 -53 -29.5 -88t-80.5 -35h-34v40h29q33 0 49 23t16 59v176q0 41 6.5 71.5t24.5 49.5q19 19 43 26q-24 7 -43 26q-14 14 -22.5 41t-8.5 80v176q0 36 -16 59t-49 23h-29v40h34q51 0 80.5 -35t29.5 -88v-193q0 -38 9 -62t31 -37q5 -3 17.5 -7.5t25.5 -5.5
v-34q-13 -1 -25.5 -5.5t-17.5 -7.5q-16 -10 -28 -30.5t-12 -68.5z" />
    <glyph glyph-name="asciitilde" unicode="~" horiz-adv-x="408" 
d="M36 311q5 34 30 56t62 22q33 0 76.5 -20t59 -23t22.5 -3q48 0 61 43l34 -3q-6 -39 -29.5 -60.5t-63.5 -21.5q-36 0 -78.5 20t-58 23t-22.5 3q-22 0 -38 -10t-21 -30z" />
    <glyph glyph-name="exclamdown" unicode="&#xa1;" horiz-adv-x="223" 
d="M112 435q-13 0 -24.5 10.5t-11.5 25.5q0 16 11.5 26t24.5 10t24.5 -10t11.5 -26q0 -15 -12 -25.5t-24 -10.5zM80 -201l11 542h42l10 -542h-63z" />
    <glyph glyph-name="cent" unicode="&#xa2;" horiz-adv-x="540" 
d="M199 0l22 101q-79 26 -128 94t-49 156q0 30 8 66.5t28.5 71t54 63.5t81 46.5t94.5 17.5l22 -1l17 82h46l-20 -88q34 -8 68.5 -26.5t58.5 -42.5l-31 -35q-19 20 -48 35.5t-57 21.5l-92 -426q20 -4 38 -4q41 0 84 16t75 49l31 -35q-19 -19 -49 -37.5t-69 -28.5t-75 -10
q-19 0 -45 4l-19 -90h-46zM231 147l91 421l-15 1q-44 0 -83.5 -17t-68.5 -46.5t-45 -69.5t-16 -85q0 -71 37.5 -126t99.5 -78z" />
    <glyph glyph-name="sterling" unicode="&#xa3;" horiz-adv-x="581" 
d="M44 0v45h6q35 0 69 9t62 32t40 55t12 62q0 19 -7.5 42.5t-31.5 66.5h-106v48h78q-27 42 -42 77.5t-15 72.5q0 30 10.5 63t35 63t64 51.5t89.5 21.5q40 0 71.5 -13.5t57.5 -35t47.5 -61t21.5 -89.5h-51q0 45 -22.5 80t-54.5 53t-69 18q-61 0 -104.5 -44.5t-43.5 -106.5
q0 -25 13 -59.5t50 -90.5h158v-48h-132q35 -65 35 -111q0 -54 -24 -94t-62 -59h332v-48h-487z" />
    <glyph glyph-name="currency" unicode="&#xa4;" horiz-adv-x="655" 
d="M557 333q0 -42 -14.5 -81t-41.5 -69l82 -80l-34 -33l-76 85q-62 -51 -145 -51t-145 51l-76 -85l-34 33l82 80q-27 30 -41.5 69t-14.5 81t14.5 81.5t41.5 69.5l-82 80l34 33l77 -85q29 24 67 37.5t77 13.5q29 0 68 -10.5t76 -40.5l77 85l34 -33l-82 -80q27 -30 41.5 -69.5
t14.5 -81.5zM328 148q37 0 70 14.5t58 39.5t39 59.5t14 71.5q0 28 -9.5 59t-31.5 59t-58 48t-82 20q-37 0 -70 -14.5t-58 -40t-39 -60t-14 -71.5t14 -71.5t39 -59.5t58 -39.5t70 -14.5z" />
    <glyph glyph-name="yen" unicode="&#xa5;" horiz-adv-x="592" 
d="M271 0v244h-213v49h213l-54 90h-159v48h130l-161 266h58l212 -351l211 351h56l-159 -266h130v-48h-159l-54 -90h213v-49h-212v-244h-52z" />
    <glyph glyph-name="brokenbar" unicode="&#xa6;" horiz-adv-x="231" 
d="M91 415v282h49v-282h-49zM91 0v294h49v-294h-49z" />
    <glyph glyph-name="section" unicode="&#xa7;" horiz-adv-x="513" 
d="M87 -36h52q0 -33 14 -64.5t41.5 -45.5t59.5 -14q34 0 62.5 16t40 40.5t11.5 47.5q0 26 -11 49t-35 40t-73 42q-111 55 -154 94q-60 53 -60 128q0 38 16 69.5t42 49t50 24.5q-36 30 -47 60t-11 60q0 15 4 34.5t15 39.5t31 37.5t50.5 29t65.5 11.5q48 0 84.5 -20t59 -58.5
t22.5 -93.5h-52q0 32 -13 61t-37.5 46t-63.5 17q-35 0 -63 -16t-39.5 -40.5t-11.5 -47.5q0 -34 16.5 -57t38.5 -37.5t50 -29.5q12 -7 55 -29.5t70 -39.5t44 -33q59 -54 59 -127q0 -51 -28 -89t-80 -54q58 -45 58 -120q0 -66 -48 -109t-118 -43q-76 0 -121.5 48.5
t-45.5 123.5zM263 124l47 -25q39 8 62.5 24t34.5 37.5t11 46.5q0 42 -29.5 77t-147.5 97l-46 24q-32 -6 -58 -20.5t-38 -38.5t-12 -49q0 -28 14.5 -55.5t53 -54.5t108.5 -63z" />
    <glyph glyph-name="dieresis" unicode="&#xa8;" horiz-adv-x="613" 
d="M204 602q-13 0 -24.5 10t-11.5 26t11.5 26t24.5 10t24.5 -10t11.5 -26t-11.5 -26t-24.5 -10zM410 602q-13 0 -24.5 10t-11.5 26t11.5 26t24.5 10t24.5 -10t11.5 -26t-11.5 -26t-24.5 -10z" />
    <glyph glyph-name="copyright" unicode="&#xa9;" horiz-adv-x="811" 
d="M209 352q0 42 15.5 79t43.5 64.5t65.5 42.5t78.5 15q87 0 151 -62l-32 -35q-25 23 -56.5 36t-62.5 13q-40 0 -76.5 -20t-56 -57t-19.5 -76q0 -66 43.5 -110t108.5 -44q67 0 119 50l32 -37q-30 -30 -69 -45.5t-82 -15.5q-52 0 -101 26t-75.5 75t-26.5 101zM46 348
q0 73 28 139t77.5 115.5t115.5 77.5t139 28q72 0 138.5 -28t116 -77.5t77.5 -115.5t28 -139t-28 -139.5t-77.5 -116t-116 -77.5t-138.5 -28t-138.5 28t-116 78t-77.5 116t-28 139zM81 348q0 -66 25 -126t70 -105.5t104.5 -70.5t125.5 -25q65 0 125 25t104.5 70.5t69.5 105.5
t25 126t-25 126.5t-69.5 105.5t-104.5 70t-125 25q-66 0 -125.5 -25t-104.5 -70t-70 -105.5t-25 -126.5z" />
    <glyph glyph-name="ordfeminine" unicode="&#xaa;" horiz-adv-x="489" 
d="M383 358q14 0 20 2v-33q-14 -6 -31 -6q-22 0 -34 18q-9 13 -9 29q-16 -25 -48.5 -38.5t-76.5 -13.5q-42 0 -72.5 17t-42 42t-11.5 48q0 9 4.5 31t22.5 40t47 29.5t74 13.5q39 1 61 7.5t29.5 21t7.5 30.5t-9.5 32.5t-32 26t-46.5 9.5q-32 0 -57 -15.5t-42 -42.5l-30 23
q20 36 54.5 55.5t74.5 19.5q59 0 93.5 -30.5t34.5 -77.5v-211q0 -13 5.5 -20t13.5 -7zM324 448v76q-19 -23 -98 -26q-51 -2 -79.5 -20t-28.5 -54q0 -30 23.5 -49.5t65.5 -19.5q27 0 55.5 9t45 31.5t16.5 52.5z" />
    <glyph glyph-name="guillemotleft" unicode="&#xab;" horiz-adv-x="370" 
d="M279 78l-110 175l110 175h53l-110 -175l110 -175h-53zM149 78l-110 175l110 175h53l-110 -175l110 -175h-53z" />
    <glyph glyph-name="logicalnot" unicode="&#xac;" horiz-adv-x="550" 
d="M46 382v47h459v-237h-51v190h-408z" />
    <glyph glyph-name="registered" unicode="&#xae;" horiz-adv-x="404" 
d="M201 393q-67 0 -113 45t-46 113q0 42 21 80t59.5 58t78.5 20q67 0 114 -45t47 -113t-46.5 -113t-114.5 -45zM201 419q26 0 57 12t54 44t23 76q0 45 -23 77.5t-53.5 44.5t-57.5 12q-41 0 -71.5 -20t-45.5 -48.5t-15 -65.5q0 -57 38 -94.5t94 -37.5zM144 463v183h64
q25 0 41.5 -16.5t16.5 -40.5q0 -16 -9 -31t-23 -22l44 -73h-33l-41 67h-32v-67h-28zM172 555h35q12 0 21 10t9 23q0 12 -9 21.5t-21 9.5h-35v-64z" />
    <glyph glyph-name="macron" unicode="&#xaf;" horiz-adv-x="627" 
d="M167 650v47h294v-47h-294z" />
    <glyph glyph-name="degree" unicode="&#xb0;" horiz-adv-x="350" 
d="M175 456q-23 0 -52 12t-50 43t-21 67t21 67t50 43t52 12t52 -12t50 -43t21 -67t-21 -67t-50 -43t-52 -12zM175 501q30 0 52.5 23.5t22.5 53.5q0 31 -22.5 54t-52.5 23t-52.5 -23t-22.5 -54q0 -30 22.5 -53.5t52.5 -23.5z" />
    <glyph glyph-name="plusminus" unicode="&#xb1;" horiz-adv-x="391" 
d="M170 190v135h-124v47h124v134h51v-134h124v-47h-124v-135h-51zM46 22v47h299v-47h-299z" />
    <glyph glyph-name="uni00B2" unicode="&#xb2;" horiz-adv-x="335" 
d="M49 328v28l163 186q25 28 25 59q0 26 -20.5 45.5t-47.5 19.5t-46.5 -21.5t-19.5 -49.5h-40q0 33 18 60.5t43 38.5t45 11q21 0 46.5 -10.5t44 -36.5t18.5 -57q0 -21 -6.5 -41t-27.5 -44l-135 -149h176v-39h-236z" />
    <glyph glyph-name="uni00B3" unicode="&#xb3;" horiz-adv-x="354" 
d="M167 320q-44 0 -79.5 24t-50.5 63l36 13q11 -27 36.5 -43.5t57.5 -16.5q42 0 70 24.5t28 61.5q0 36 -27 60.5t-68 24.5q-34 0 -55 -8l-15 22l118 114h-151v38h218v-23l-116 -109q24 0 36 -2q42 -8 70.5 -40.5t28.5 -76.5q0 -43 -23 -73t-55 -41.5t-59 -11.5z" />
    <glyph glyph-name="acute" unicode="&#xb4;" horiz-adv-x="545" 
d="M244 552l60 145h65l-85 -145h-40z" />
    <glyph glyph-name="paragraph" unicode="&#xb6;" horiz-adv-x="485" 
d="M227 0v283q-40 2 -75.5 19t-62.5 45.5t-42 65.5t-15 77q0 42 16 80t44.5 66.5t66.5 44.5t79 16h234v-48h-67v-649h-52v649h-74v-649h-52z" />
    <glyph glyph-name="periodcentered" unicode="&#xb7;" horiz-adv-x="167" 
d="M84 216q-15 0 -25.5 10.5t-10.5 25.5t10.5 25.5t25.5 10.5q12 0 23.5 -10.5t11.5 -25.5q0 -16 -11.5 -26t-23.5 -10z" />
    <glyph glyph-name="cedilla" unicode="&#xb8;" horiz-adv-x="536" 
d="M230 -78l34 78h39l-24 -54h6q25 0 42.5 -17.5t17.5 -44.5q0 -33 -22.5 -50t-60.5 -17q-18 0 -36.5 6.5t-29.5 15.5l15 28q26 -17 50 -17q18 0 30 9t12 24q0 40 -58 40z" />
    <glyph glyph-name="uni00B9" unicode="&#xb9;" horiz-adv-x="225" 
d="M99 328v331h-48v38h89v-369h-41z" />
    <glyph glyph-name="ordmasculine" unicode="&#xba;" horiz-adv-x="463" 
d="M232 318q-39 0 -75 15t-63 41.5t-42 62.5t-15 75q0 29 10 61.5t34.5 62t63 50t87.5 20.5q29 0 62 -10t62 -34t50 -62.5t21 -87.5q0 -39 -15 -75t-42 -62.5t-63 -41.5t-75 -15zM232 360q22 0 47 8t47.5 27t38.5 49t16 68t-17.5 71t-52 57t-79.5 24q-38 0 -71 -18.5
t-56 -53.5t-23 -80q0 -22 8 -47.5t26.5 -48.5t48 -39.5t67.5 -16.5z" />
    <glyph glyph-name="guillemotright" unicode="&#xbb;" horiz-adv-x="370" 
d="M170 78l110 175l-110 175h52l110 -175l-110 -175h-52zM39 78l110 175l-110 175h53l110 -175l-110 -175h-53z" />
    <glyph glyph-name="onequarter" unicode="&#xbc;" horiz-adv-x="655" 
d="M59 0l409 697h53l-410 -697h-52zM104 328v331h-48v38h89v-369h-41zM335 81v27l129 261h43l-124 -250h164v82h41v-201h-41v81h-212z" />
    <glyph glyph-name="onehalf" unicode="&#xbd;" horiz-adv-x="683" 
d="M59 0l409 697h53l-410 -697h-52zM104 328v331h-48v38h89v-369h-41zM388 0v28l163 186q24 28 24 59q0 27 -20 46t-47 19t-46.5 -21.5t-19.5 -49.5h-41q0 33 18 60.5t43.5 38.5t45.5 11q21 0 46 -10.5t43.5 -36.5t18.5 -57q0 -21 -6.5 -41t-26.5 -44l-135 -149h176v-39
h-236z" />
    <glyph glyph-name="threequarters" unicode="&#xbe;" horiz-adv-x="775" 
d="M184 0l409 697h53l-410 -697h-52zM174 320q-44 0 -79.5 24t-50.5 63l36 13q11 -27 36.5 -43.5t57.5 -16.5q42 0 70 24.5t28 61.5q0 36 -27 60.5t-68 24.5q-34 0 -55 -8l-15 22l118 114h-151v38h218v-23l-116 -109q24 0 36 -2q42 -8 70.5 -40.5t28.5 -76.5q0 -43 -23 -73
t-55 -41.5t-59 -11.5zM455 81v27l129 261h43l-124 -250h164v82h41v-201h-41v81h-212z" />
    <glyph glyph-name="questiondown" unicode="&#xbf;" horiz-adv-x="391" 
d="M179 342q27 0 57.5 -10.5t50 -38.5t19.5 -66q0 -70 -80 -128q-2 -2 -41 -29.5t-59.5 -49t-28 -46t-7.5 -47.5q0 -15 7.5 -33t21.5 -30.5t35 -20t50 -7.5q73 0 137 62v-60q-58 -50 -137 -50q-36 0 -68.5 10t-54 31t-32 46.5t-10.5 49.5q0 30 7 57t27 52.5t67 60.5t49 37
q66 49 66 95q0 32 -19.5 49.5t-56.5 17.5q-39 0 -67 -18v52q28 14 67 14zM237 471q0 -16 -11.5 -26t-24.5 -10t-24.5 10t-11.5 26q0 15 11.5 25.5t24.5 10.5t24.5 -10.5t11.5 -25.5z" />
    <glyph glyph-name="Agrave" unicode="&#xc0;" horiz-adv-x="685" 
d="M341 745l-85 145h65l60 -145h-40zM35 0l287 697h41l287 -697h-56l-78 190h-348l-77 -190h-56zM188 238h308l-154 379z" />
    <glyph glyph-name="Aacute" unicode="&#xc1;" horiz-adv-x="685" 
d="M302 745l60 145h65l-84 -145h-41zM35 0l287 697h41l287 -697h-56l-78 190h-348l-77 -190h-56zM188 238h308l-154 379z" />
    <glyph glyph-name="Acircumflex" unicode="&#xc2;" horiz-adv-x="685" 
d="M191 769l130 123h42l130 -123h-63l-88 85l-89 -85h-62zM35 0l287 697h41l287 -697h-56l-78 190h-348l-77 -190h-56zM188 238h308l-154 379z" />
    <glyph glyph-name="Atilde" unicode="&#xc3;" horiz-adv-x="685" 
d="M201 768q5 34 27 56.5t54 22.5q28 0 66.5 -22t58.5 -22q41 0 51 47l33 -3q-5 -40 -26 -63t-56 -23q-29 0 -67 22t-58 22q-18 0 -31.5 -10.5t-17.5 -29.5zM35 0l287 697h41l287 -697h-56l-78 190h-348l-77 -190h-56zM188 238h308l-154 379z" />
    <glyph glyph-name="Adieresis" unicode="&#xc4;" horiz-adv-x="685" 
d="M445 756q-13 0 -24.5 10t-11.5 26t11.5 26t24.5 10t24.5 -10t11.5 -26t-11.5 -26t-24.5 -10zM239 756q-13 0 -24.5 10t-11.5 26t11.5 26t24.5 10t24.5 -10t11.5 -26t-11.5 -26t-24.5 -10zM35 0l287 697h41l287 -697h-56l-78 190h-348l-77 -190h-56zM188 238h308l-154 379
z" />
    <glyph glyph-name="Aring" unicode="&#xc5;" horiz-adv-x="673" 
d="M35 0l283 680q-27 6 -45 28.5t-18 50.5q0 15 8 34t29 33t45 14q33 0 57 -24t24 -57q0 -29 -18 -51t-46 -28l283 -680h-55l-79 190h-334l-80 -190h-54zM337 714q17 0 30.5 13.5t13.5 31.5t-13.5 31t-30.5 13q-18 0 -31.5 -13t-13.5 -31t13.5 -31.5t31.5 -13.5zM190 238
h293l-147 360z" />
    <glyph glyph-name="AE" unicode="&#xc6;" horiz-adv-x="922" 
d="M2 0l535 697h319v-48h-281v-256h262v-49h-262v-296h288v-48h-340v183h-318l-141 -183h-62zM241 231h282v367z" />
    <glyph glyph-name="Ccedilla" unicode="&#xc7;" horiz-adv-x="719" 
d="M333 -78l30 69q-48 6 -101 28t-93.5 60t-65.5 79t-38.5 90t-13.5 100q0 56 18.5 117t63 115t99 82.5t100 37.5t80.5 9q78 0 147.5 -31t118.5 -86l-35 -33q-41 48 -101.5 75t-129.5 27q-64 0 -121.5 -23.5t-99.5 -66t-65 -100.5t-23 -123t23 -122.5t65 -100t99.5 -66
t121.5 -23.5q33 0 75.5 9t84.5 34t72 61l36 -33q-49 -56 -119 -87.5t-149 -31.5l-11 1l-19 -43h6q25 0 42.5 -17.5t17.5 -44.5q0 -33 -22.5 -50t-60.5 -17q-18 0 -36.5 6.5t-29.5 15.5l15 28q26 -17 50 -17q18 0 30 9t12 24q0 40 -58 40z" />
    <glyph glyph-name="Egrave" unicode="&#xc8;" horiz-adv-x="543" 
d="M281 745l-85 145h66l59 -145h-40zM96 0v697h380v-48h-328v-256h309v-49h-309v-296h335v-48h-387z" />
    <glyph glyph-name="Eacute" unicode="&#xc9;" horiz-adv-x="543" 
d="M253 745l60 145h65l-85 -145h-40zM96 0v697h380v-48h-328v-256h309v-49h-309v-296h335v-48h-387z" />
    <glyph glyph-name="Ecircumflex" unicode="&#xca;" horiz-adv-x="543" 
d="M96 0v697h380v-48h-328v-256h309v-49h-309v-296h335v-48h-387zM135 769l130 123h42l130 -123h-63l-88 85l-89 -85h-62z" />
    <glyph glyph-name="Edieresis" unicode="&#xcb;" horiz-adv-x="543" 
d="M391 768q-13 0 -24.5 10.5t-11.5 25.5q0 16 11.5 26t24.5 10t24.5 -10t11.5 -26q0 -15 -12 -25.5t-24 -10.5zM185 768q-13 0 -24.5 10.5t-11.5 25.5q0 16 11.5 26t24.5 10t24.5 -10t11.5 -26q0 -15 -11.5 -25.5t-24.5 -10.5zM96 0v697h380v-48h-328v-256h309v-49h-309
v-296h335v-48h-387z" />
    <glyph glyph-name="Igrave" unicode="&#xcc;" horiz-adv-x="251" 
d="M106 745l-85 145h65l60 -145h-40zM100 0v697h52v-697h-52z" />
    <glyph glyph-name="Iacute" unicode="&#xcd;" horiz-adv-x="251" 
d="M104 745l60 145h65l-85 -145h-40zM100 0v697h52v-697h-52z" />
    <glyph glyph-name="Icircumflex" unicode="&#xce;" horiz-adv-x="252" 
d="M100 0v697h52v-697h-52zM-22 769l127 123h42l127 -123h-63l-85 85l-86 -85h-62z" />
    <glyph glyph-name="Idieresis" unicode="&#xcf;" horiz-adv-x="251" 
d="M213 768q-13 0 -24.5 10.5t-11.5 25.5q0 16 11.5 26t24.5 10t24.5 -10t11.5 -26q0 -15 -11.5 -25.5t-24.5 -10.5zM38 768q-13 0 -24.5 10.5t-11.5 25.5q0 16 11.5 26t24.5 10t24.5 -10t11.5 -26q0 -15 -11.5 -25.5t-24.5 -10.5zM100 0v697h52v-697h-52z" />
    <glyph glyph-name="Eth" unicode="&#xd0;" horiz-adv-x="718" 
d="M96 0v334h-61v49h61v314h211q81 0 148.5 -25t114.5 -71.5t72 -111.5t25 -141t-24.5 -140.5t-71.5 -111t-114 -71.5t-149 -25h-212zM148 48h156q73 0 131.5 21.5t98.5 61.5t60.5 95.5t20.5 121.5t-20.5 122t-60.5 96t-99 61.5t-132 21.5h-155v-266h145v-49h-145v-286z" />
    <glyph glyph-name="Ntilde" unicode="&#xd1;" horiz-adv-x="733" 
d="M221 768q5 34 27 56.5t54 22.5q17 0 30.5 -5t44.5 -22t50 -17q41 0 51 47l33 -3q-5 -40 -26 -63t-56 -23q-29 0 -66.5 22t-58.5 22q-18 0 -31.5 -10.5t-17.5 -29.5zM96 0v697h45l444 -603v603h52v-697h-43l-446 607v-607h-52z" />
    <glyph glyph-name="Ograve" unicode="&#xd2;" horiz-adv-x="822" 
d="M393 745l-85 145h65l60 -145h-40zM51 348q0 75 27.5 142t77 116t116 76t139.5 27t139 -27t115.5 -76t77.5 -116t28 -142t-28 -141.5t-77.5 -115.5t-115.5 -76t-139 -27t-139.5 27t-116 76t-77 115.5t-27.5 141.5zM102 348q0 -64 23 -121.5t65 -100t99.5 -66t121.5 -23.5
t121 23.5t98.5 66t64.5 100t23 121.5t-23.5 122t-65 100.5t-98.5 66t-120 23.5q-64 0 -121 -23.5t-99 -66t-65.5 -100.5t-23.5 -122z" />
    <glyph glyph-name="Oacute" unicode="&#xd3;" horiz-adv-x="822" 
d="M378 745l60 145h65l-85 -145h-40zM51 348q0 75 27.5 142t77 116t116 76t139.5 27t139 -27t115.5 -76t77.5 -116t28 -142t-28 -141.5t-77.5 -115.5t-115.5 -76t-139 -27t-139.5 27t-116 76t-77 115.5t-27.5 141.5zM102 348q0 -64 23 -121.5t65 -100t99.5 -66t121.5 -23.5
t121 23.5t98.5 66t64.5 100t23 121.5t-23.5 122t-65 100.5t-98.5 66t-120 23.5q-64 0 -121 -23.5t-99 -66t-65.5 -100.5t-23.5 -122z" />
    <glyph glyph-name="Ocircumflex" unicode="&#xd4;" horiz-adv-x="822" 
d="M260 769l130 123h42l130 -123h-63l-88 85l-89 -85h-62zM51 348q0 75 27.5 142t77 116t116 76t139.5 27t139 -27t115.5 -76t77.5 -116t28 -142t-28 -141.5t-77.5 -115.5t-115.5 -76t-139 -27t-139.5 27t-116 76t-77 115.5t-27.5 141.5zM102 348q0 -64 23 -121.5t65 -100
t99.5 -66t121.5 -23.5t121 23.5t98.5 66t64.5 100t23 121.5t-23.5 122t-65 100.5t-98.5 66t-120 23.5q-64 0 -121 -23.5t-99 -66t-65.5 -100.5t-23.5 -122z" />
    <glyph glyph-name="Otilde" unicode="&#xd5;" horiz-adv-x="822" 
d="M265 768q5 34 27 56.5t54 22.5q17 0 30.5 -5t44.5 -22t50 -17q41 0 51 47l34 -3q-5 -40 -26.5 -63t-56.5 -23q-29 0 -66.5 22t-59.5 22q-18 0 -31 -10.5t-17 -29.5zM51 348q0 75 27.5 142t77 116t116 76t139.5 27t139 -27t115.5 -76t77.5 -116t28 -142t-28 -141.5
t-77.5 -115.5t-115.5 -76t-139 -27t-139.5 27t-116 76t-77 115.5t-27.5 141.5zM102 348q0 -64 23 -121.5t65 -100t99.5 -66t121.5 -23.5t121 23.5t98.5 66t64.5 100t23 121.5t-23.5 122t-65 100.5t-98.5 66t-120 23.5q-64 0 -121 -23.5t-99 -66t-65.5 -100.5t-23.5 -122z
" />
    <glyph glyph-name="Odieresis" unicode="&#xd6;" horiz-adv-x="822" 
d="M514 756q-13 0 -24.5 10t-11.5 26t11.5 26t24.5 10t24.5 -10t11.5 -26t-11.5 -26t-24.5 -10zM308 756q-13 0 -24 10t-11 26t11 26t24 10t24.5 -10t11.5 -26t-11.5 -26t-24.5 -10zM51 348q0 75 27.5 142t77 116t116 76t139.5 27t139 -27t115.5 -76t77.5 -116t28 -142
t-28 -141.5t-77.5 -115.5t-115.5 -76t-139 -27t-139.5 27t-116 76t-77 115.5t-27.5 141.5zM102 348q0 -64 23 -121.5t65 -100t99.5 -66t121.5 -23.5t121 23.5t98.5 66t64.5 100t23 121.5t-23.5 122t-65 100.5t-98.5 66t-120 23.5q-64 0 -121 -23.5t-99 -66t-65.5 -100.5
t-23.5 -122z" />
    <glyph glyph-name="multiply" unicode="&#xd7;" horiz-adv-x="391" 
d="M80 186l-31 32l116 115l-115 115l30 32l116 -117l114 117l31 -32l-114 -115l115 -115l-31 -32l-115 116z" />
    <glyph glyph-name="Oslash" unicode="&#xd8;" horiz-adv-x="822" 
d="M123 -6l56 75q-60 50 -94 122t-34 157q0 75 27.5 142t77 116t116 76t139.5 27q55 0 107 -16t95 -45l59 79l38 -29l-59 -79q56 -49 88 -120t32 -151q0 -75 -28 -141.5t-77.5 -115.5t-115.5 -76t-139 -27q-108 0 -193 54l-57 -76zM208 108l376 500q-77 52 -173 52
q-64 0 -121 -23.5t-99 -66t-65.5 -100.5t-23.5 -122q0 -72 28.5 -135t77.5 -105zM247 81q74 -44 164 -44q64 0 121 23.5t98.5 66t64.5 100t23 121.5q0 67 -26 127.5t-71 103.5z" />
    <glyph glyph-name="Ugrave" unicode="&#xd9;" horiz-adv-x="677" 
d="M330 745l-85 145h66l59 -145h-40zM91 233v464h52v-459q0 -96 52.5 -148t143.5 -52t143.5 52t52.5 148v459h52v-464q0 -57 -18 -103t-51.5 -77t-79 -47t-99.5 -16t-99.5 16t-79 47t-51.5 77t-18 103z" />
    <glyph glyph-name="Uacute" unicode="&#xda;" horiz-adv-x="677" 
d="M309 745l60 145h65l-85 -145h-40zM91 233v464h52v-459q0 -96 52.5 -148t143.5 -52t143.5 52t52.5 148v459h52v-464q0 -57 -18 -103t-51.5 -77t-79 -47t-99.5 -16t-99.5 16t-79 47t-51.5 77t-18 103z" />
    <glyph glyph-name="Ucircumflex" unicode="&#xdb;" horiz-adv-x="677" 
d="M91 233v464h52v-459q0 -96 52.5 -148t143.5 -52t143.5 52t52.5 148v459h52v-464q0 -57 -18 -103t-51.5 -77t-79 -47t-99.5 -16t-99.5 16t-79 47t-51.5 77t-18 103zM188 769l130 123h42l130 -123h-63l-88 85l-89 -85h-62z" />
    <glyph glyph-name="Udieresis" unicode="&#xdc;" horiz-adv-x="677" 
d="M442 756q-13 0 -24.5 10t-11.5 26t11.5 26t24.5 10t24.5 -10t11.5 -26t-11.5 -26t-24.5 -10zM236 756q-13 0 -24.5 10t-11.5 26t11.5 26t24.5 10t24.5 -10t11.5 -26t-11.5 -26t-24.5 -10zM91 233v464h52v-459q0 -96 52.5 -148t143.5 -52t143.5 52t52.5 148v459h52v-464
q0 -57 -18 -103t-51.5 -77t-79 -47t-99.5 -16t-99.5 16t-79 47t-51.5 77t-18 103z" />
    <glyph glyph-name="Yacute" unicode="&#xdd;" horiz-adv-x="598" 
d="M266 745l60 145h65l-85 -145h-40zM325 294v-294h-52v294l-243 403h58l211 -351l211 351h58z" />
    <glyph glyph-name="Thorn" unicode="&#xde;" horiz-adv-x="466" 
d="M96 0v697h52v-155h70q34 0 70 -10t65.5 -34t49 -63t19.5 -91q0 -30 -9 -63t-35 -66t-68 -49.5t-88 -16.5h-74v-149h-52zM148 198h70q70 0 111 41t41 107t-41 106.5t-112 40.5h-69v-295z" />
    <glyph glyph-name="germandbls" unicode="&#xdf;" horiz-adv-x="545" 
d="M60 0v545q0 42 21.5 81.5t60.5 61t81 21.5q24 0 51.5 -8.5t52 -28.5t41.5 -52t17 -73q0 -77 -59 -121q35 -2 64.5 -16.5t54 -36.5t45.5 -63.5t21 -96.5q0 -47 -17.5 -88.5t-49.5 -72.5t-76 -48.5t-94 -17.5q-24 0 -52 5v51q27 -8 52 -8q37 0 71.5 14t59.5 38.5t39.5 57.5
t14.5 69q0 16 -4.5 38t-16.5 44.5t-33.5 43.5t-55 35t-71.5 14h-11q-20 -1 -45 -7v46q50 7 81 39t31 79q0 22 -11 49t-39 47t-61 20t-61 -19.5t-39 -47t-11 -49.5v-545h-52z" />
    <glyph glyph-name="agrave" unicode="&#xe0;" horiz-adv-x="635" 
d="M289 552l-85 145h66l60 -145h-41zM39 252q0 55 19.5 104t54.5 85t81.5 56t98.5 20q53 0 99 -20.5t69.5 -48t31.5 -49.5v105h50v-410q0 -32 9.5 -46.5t32.5 -14.5q18 0 28 3v-39q-15 -7 -42 -7q-29 0 -47 15.5t-23.5 38.5t-5.5 43v17q-25 -52 -78 -84.5t-124 -32.5
q-52 0 -98.5 20t-81.5 56t-54.5 85t-19.5 104zM89 252q0 -45 13.5 -80.5t35 -63.5t62 -51t93.5 -23q43 0 80.5 16t65.5 45.5t43.5 70t15.5 86.5t-15.5 86.5t-43.5 70t-65.5 45.5t-80.5 16q-32 0 -66.5 -11t-65 -38t-51.5 -70t-21 -99z" />
    <glyph glyph-name="aacute" unicode="&#xe1;" horiz-adv-x="635" 
d="M266 552l60 145h66l-85 -145h-41zM39 252q0 55 19.5 104t54.5 85t81.5 56t98.5 20q53 0 99 -20.5t69.5 -48t31.5 -49.5v105h50v-410q0 -32 9.5 -46.5t32.5 -14.5q18 0 28 3v-39q-15 -7 -42 -7q-29 0 -47 15.5t-23.5 38.5t-5.5 43v17q-25 -52 -78 -84.5t-124 -32.5
q-52 0 -98.5 20t-81.5 56t-54.5 85t-19.5 104zM89 252q0 -45 13.5 -80.5t35 -63.5t62 -51t93.5 -23q43 0 80.5 16t65.5 45.5t43.5 70t15.5 86.5t-15.5 86.5t-43.5 70t-65.5 45.5t-80.5 16q-32 0 -66.5 -11t-65 -38t-51.5 -70t-21 -99z" />
    <glyph glyph-name="acircumflex" unicode="&#xe2;" horiz-adv-x="635" 
d="M165 576l129 123h42l130 -123h-63l-88 85l-88 -85h-62zM39 252q0 55 19.5 104t54.5 85t81.5 56t98.5 20q53 0 99 -20.5t69.5 -48t31.5 -49.5v105h50v-410q0 -32 9.5 -46.5t32.5 -14.5q18 0 28 3v-39q-15 -7 -42 -7q-29 0 -47 15.5t-23.5 38.5t-5.5 43v17
q-25 -52 -78 -84.5t-124 -32.5q-52 0 -98.5 20t-81.5 56t-54.5 85t-19.5 104zM89 252q0 -45 13.5 -80.5t35 -63.5t62 -51t93.5 -23q43 0 80.5 16t65.5 45.5t43.5 70t15.5 86.5t-15.5 86.5t-43.5 70t-65.5 45.5t-80.5 16q-32 0 -66.5 -11t-65 -38t-51.5 -70t-21 -99z" />
    <glyph glyph-name="atilde" unicode="&#xe3;" horiz-adv-x="635" 
d="M159 600q4 34 26 56.5t55 22.5q28 0 66.5 -22t58.5 -22q40 0 51 47l33 -3q-3 -29 -16 -49.5t-31 -28t-35 -7.5q-10 0 -21.5 2t-21 6.5t-37 19.5t-46.5 15q-18 0 -31.5 -10t-17.5 -29zM39 252q0 55 19.5 104t54.5 85t81.5 56t98.5 20q53 0 99 -20.5t69.5 -48t31.5 -49.5
v105h50v-410q0 -32 9.5 -46.5t32.5 -14.5q18 0 28 3v-39q-15 -7 -42 -7q-29 0 -47 15.5t-23.5 38.5t-5.5 43v17q-25 -52 -78 -84.5t-124 -32.5q-52 0 -98.5 20t-81.5 56t-54.5 85t-19.5 104zM89 252q0 -45 13.5 -80.5t35 -63.5t62 -51t93.5 -23q43 0 80.5 16t65.5 45.5
t43.5 70t15.5 86.5t-15.5 86.5t-43.5 70t-65.5 45.5t-80.5 16q-32 0 -66.5 -11t-65 -38t-51.5 -70t-21 -99z" />
    <glyph glyph-name="adieresis" unicode="&#xe4;" horiz-adv-x="635" 
d="M404 602q-13 0 -24.5 10t-11.5 26q0 15 11.5 25.5t24.5 10.5t24.5 -10.5t11.5 -25.5q0 -16 -11.5 -26t-24.5 -10zM199 602q-15 0 -25.5 10.5t-10.5 25.5t10.5 25.5t25.5 10.5q12 0 23.5 -10.5t11.5 -25.5q0 -16 -11.5 -26t-23.5 -10zM39 252q0 55 19.5 104t54.5 85
t81.5 56t98.5 20q53 0 99 -20.5t69.5 -48t31.5 -49.5v105h50v-410q0 -32 9.5 -46.5t32.5 -14.5q18 0 28 3v-39q-15 -7 -42 -7q-29 0 -47 15.5t-23.5 38.5t-5.5 43v17q-25 -52 -78 -84.5t-124 -32.5q-52 0 -98.5 20t-81.5 56t-54.5 85t-19.5 104zM89 252q0 -45 13.5 -80.5
t35 -63.5t62 -51t93.5 -23q43 0 80.5 16t65.5 45.5t43.5 70t15.5 86.5t-15.5 86.5t-43.5 70t-65.5 45.5t-80.5 16q-32 0 -66.5 -11t-65 -38t-51.5 -70t-21 -99z" />
    <glyph glyph-name="aring" unicode="&#xe5;" horiz-adv-x="635" 
d="M304 561q-34 0 -58 24.5t-24 57.5q0 15 8 34t28.5 33t45.5 14q32 0 56.5 -24.5t24.5 -56.5q0 -33 -24 -57.5t-57 -24.5zM304 598q17 0 30.5 13.5t13.5 31.5t-13.5 31t-30.5 13q-18 0 -31.5 -13t-13.5 -31t13.5 -31.5t31.5 -13.5zM39 252q0 55 19.5 104t54.5 85t81.5 56
t98.5 20q53 0 99 -20.5t69.5 -48t31.5 -49.5v105h50v-410q0 -32 9.5 -46.5t32.5 -14.5q18 0 28 3v-39q-15 -7 -42 -7q-29 0 -47 15.5t-23.5 38.5t-5.5 43v17q-25 -52 -78 -84.5t-124 -32.5q-52 0 -98.5 20t-81.5 56t-54.5 85t-19.5 104zM89 252q0 -45 13.5 -80.5t35 -63.5
t62 -51t93.5 -23q43 0 80.5 16t65.5 45.5t43.5 70t15.5 86.5t-15.5 86.5t-43.5 70t-65.5 45.5t-80.5 16q-32 0 -66.5 -11t-65 -38t-51.5 -70t-21 -99z" />
    <glyph glyph-name="ae" unicode="&#xe6;" horiz-adv-x="1023" 
d="M39 252q0 55 19.5 104t54.5 85t82 56t98 20q37 0 78.5 -12t75.5 -41.5t46 -64.5v105h50v-114q12 26 39 56t72 50.5t93 20.5t92 -20t76.5 -55.5t51 -83.5t18.5 -101l-1 -16h-434q2 -91 57.5 -149t141.5 -58q53 0 93.5 19t75.5 56l33 -33q-80 -89 -202 -89q-51 0 -96 18.5
t-71.5 47t-38.5 53.5v-106h-50v105q-12 -35 -43 -62t-71 -41.5t-86 -14.5q-52 0 -98.5 20t-81.5 56t-54.5 85t-19.5 104zM89 252q0 -45 15.5 -85.5t43 -70t65.5 -46t80 -16.5q43 0 81 16t66 45.5t43.5 70t15.5 86.5t-15.5 86.5t-43.5 70t-66 45.5t-81 16q-31 0 -65.5 -11
t-69 -41.5t-52 -75.5t-17.5 -90zM554 286h378q-6 59 -34.5 100.5t-67.5 62.5t-83 21q-47 0 -87.5 -21t-70 -62.5t-35.5 -100.5z" />
    <glyph glyph-name="ccedilla" unicode="&#xe7;" horiz-adv-x="524" 
d="M303 -13l-18 -41h6q25 0 42.5 -17.5t17.5 -44.5q0 -33 -22.5 -50t-60.5 -17q-18 0 -36.5 6.5t-29.5 15.5l15 28q26 -17 50 -17q18 0 30 9t12 24q0 40 -58 40l-15 -1l29 68q-47 6 -89 28.5t-72.5 57.5t-47.5 80.5t-17 95.5q0 55 20.5 104t57 85t85 56t102.5 20
q56 0 105.5 -20.5t85.5 -58.5l-30 -34q-30 31 -72 48.5t-89 17.5q-45 0 -84.5 -16.5t-69 -46t-45.5 -70t-16 -85.5t16 -85.5t45.5 -70t69 -46t84.5 -16.5q47 0 89 17.5t72 48.5l30 -34q-36 -38 -85.5 -58.5t-105.5 -20.5h-1z" />
    <glyph glyph-name="egrave" unicode="&#xe8;" horiz-adv-x="556" 
d="M279 552l-84 145h65l60 -145h-41zM39 248v3q0 57 18.5 106.5t52 85t79 55t96.5 19.5q50 0 93 -19.5t75 -54.5t49 -81t17 -97l-1 -25h-430q1 -56 26.5 -105t72.5 -74.5t100 -25.5q25 0 54.5 6.5t57.5 23.5t53 43l33 -32q-77 -88 -198 -88q-53 0 -98.5 19t-79 53.5t-52 83
t-18.5 104.5zM90 285h377q-1 77 -54 131t-128 54q-29 0 -61 -9.5t-61 -32.5t-50 -59t-23 -84z" />
    <glyph glyph-name="eacute" unicode="&#xe9;" horiz-adv-x="556" 
d="M258 552l59 145h66l-85 -145h-40zM39 248v3q0 57 18.5 106.5t52 85t79 55t96.5 19.5q50 0 93 -19.5t75 -54.5t49 -81t17 -97l-1 -25h-430q1 -56 26.5 -105t72.5 -74.5t100 -25.5q25 0 54.5 6.5t57.5 23.5t53 43l33 -32q-77 -88 -198 -88q-53 0 -98.5 19t-79 53.5t-52 83
t-18.5 104.5zM90 285h377q-1 77 -54 131t-128 54q-29 0 -61 -9.5t-61 -32.5t-50 -59t-23 -84z" />
    <glyph glyph-name="ecircumflex" unicode="&#xea;" horiz-adv-x="556" 
d="M144 576l129 123h42l130 -123h-62l-89 85l-88 -85h-62zM39 248v3q0 57 18.5 106.5t52 85t79 55t96.5 19.5q50 0 93 -19.5t75 -54.5t49 -81t17 -97l-1 -25h-430q1 -56 26.5 -105t72.5 -74.5t100 -25.5q25 0 54.5 6.5t57.5 23.5t53 43l33 -32q-77 -88 -198 -88
q-53 0 -98.5 19t-79 53.5t-52 83t-18.5 104.5zM90 285h377q-1 77 -54 131t-128 54q-29 0 -61 -9.5t-61 -32.5t-50 -59t-23 -84z" />
    <glyph glyph-name="edieresis" unicode="&#xeb;" horiz-adv-x="556" 
d="M388 602q-13 0 -24.5 10t-11.5 26q0 15 11.5 25.5t24.5 10.5t24.5 -10.5t11.5 -25.5q0 -16 -11.5 -26t-24.5 -10zM182 602q-13 0 -24.5 10t-11.5 26q0 15 11.5 25.5t24.5 10.5t24.5 -10.5t11.5 -25.5q0 -16 -11.5 -26t-24.5 -10zM39 248v3q0 57 18.5 106.5t52 85t79 55
t96.5 19.5q50 0 93 -19.5t75 -54.5t49 -81t17 -97l-1 -25h-430q1 -56 26.5 -105t72.5 -74.5t100 -25.5q25 0 54.5 6.5t57.5 23.5t53 43l33 -32q-77 -88 -198 -88q-53 0 -98.5 19t-79 53.5t-52 83t-18.5 104.5zM90 285h377q-1 77 -54 131t-128 54q-29 0 -61 -9.5t-61 -32.5
t-50 -59t-23 -84z" />
    <glyph glyph-name="igrave" unicode="&#xec;" horiz-adv-x="198" 
d="M62 82v422h50v-413q0 -29 9.5 -42t31.5 -13l28 2v-42q-16 -6 -41 -6q-78 0 -78 92zM70 552l-85 145h65l60 -145h-40z" />
    <glyph glyph-name="iacute" unicode="&#xed;" horiz-adv-x="198" 
d="M62 82v422h50v-413q0 -29 9.5 -42t31.5 -13l28 2v-42q-16 -6 -41 -6q-78 0 -78 92zM63 552l60 145h65l-85 -145h-40z" />
    <glyph glyph-name="icircumflex" unicode="&#xee;" horiz-adv-x="198" 
d="M62 82v422h50v-413q0 -29 9.5 -42t31.5 -13l28 2v-42q-16 -6 -41 -6q-78 0 -78 92zM-38 576l104 123h42l104 -123h-58l-67 87l-67 -87h-58z" />
    <glyph glyph-name="idieresis" unicode="&#xef;" horiz-adv-x="198" 
d="M62 82v422h50v-413q0 -29 9.5 -42t31.5 -13l28 2v-42q-16 -6 -41 -6q-78 0 -78 92zM149 602q-13 0 -24.5 10t-11.5 26q0 15 11.5 25.5t24.5 10.5t24.5 -10.5t11.5 -25.5q0 -16 -11.5 -26t-24.5 -10zM24 602q-13 0 -24.5 10t-11.5 26q0 15 11.5 25.5t24.5 10.5t24.5 -10.5
t11.5 -25.5q0 -16 -11.5 -26t-24.5 -10z" />
    <glyph glyph-name="eth" unicode="&#xf0;" horiz-adv-x="534" 
d="M39 217q0 35 12 74t43.5 77t77 57.5t89.5 19.5q56 0 103.5 -25t70.5 -68q-13 61 -54 120.5t-92 99.5l-85 -82l-32 34l78 75q-65 43 -132 60l9 47q84 -21 159 -72l88 84l33 -35l-82 -77q114 -96 150 -226q21 -78 21 -146q0 -53 -16 -98.5t-46 -78t-73 -50.5t-94 -18
q-46 0 -88 17t-73.5 48t-49 73t-17.5 90zM91 217q0 -77 50.5 -128.5t125.5 -51.5q27 0 57 9t56.5 31t45 57.5t18.5 82.5q0 76 -51 128t-126 52t-125.5 -52t-50.5 -128z" />
    <glyph glyph-name="ntilde" unicode="&#xf1;" horiz-adv-x="561" 
d="M133 600q5 34 27 56.5t54 22.5q29 0 67 -22t58 -22t33.5 12t17.5 35l34 -3q-5 -40 -26 -62.5t-57 -22.5q-29 0 -67 21.5t-58 21.5q-18 0 -31.5 -10t-17.5 -29zM61 0v504h50v-97q43 105 173 105q86 0 138.5 -55t52.5 -146v-212q0 -31 8.5 -44t30.5 -13l21 2v-42
q-12 -5 -29 -5q-35 0 -58 23t-23 75v206q0 75 -42 119.5t-110 44.5q-27 0 -55 -9.5t-51.5 -32t-39.5 -61t-16 -91.5v-271h-50z" />
    <glyph glyph-name="ograve" unicode="&#xf2;" horiz-adv-x="606" 
d="M288 552l-85 145h65l60 -145h-40zM38 252q0 55 20.5 104t57 85t85 56t102.5 20t102.5 -20t85 -56t57 -85t20.5 -104t-20.5 -104t-57 -85t-85 -56t-102.5 -20t-102.5 20t-85 56t-57 85t-20.5 104zM88 252q0 -45 16 -85.5t45.5 -70t69 -46t84.5 -16.5t84.5 16.5t69 46
t45.5 70t16 85.5t-16 85.5t-45.5 70t-69 46t-84.5 16.5t-84.5 -16.5t-69 -46t-45.5 -70t-16 -85.5z" />
    <glyph glyph-name="oacute" unicode="&#xf3;" horiz-adv-x="606" 
d="M276 552l60 145h65l-84 -145h-41zM38 252q0 55 20.5 104t57 85t85 56t102.5 20t102.5 -20t85 -56t57 -85t20.5 -104t-20.5 -104t-57 -85t-85 -56t-102.5 -20t-102.5 20t-85 56t-57 85t-20.5 104zM88 252q0 -45 16 -85.5t45.5 -70t69 -46t84.5 -16.5t84.5 16.5t69 46
t45.5 70t16 85.5t-16 85.5t-45.5 70t-69 46t-84.5 16.5t-84.5 -16.5t-69 -46t-45.5 -70t-16 -85.5z" />
    <glyph glyph-name="ocircumflex" unicode="&#xf4;" horiz-adv-x="606" 
d="M152 576l130 123h42l130 -123h-63l-88 85l-89 -85h-62zM38 252q0 55 20.5 104t57 85t85 56t102.5 20t102.5 -20t85 -56t57 -85t20.5 -104t-20.5 -104t-57 -85t-85 -56t-102.5 -20t-102.5 20t-85 56t-57 85t-20.5 104zM88 252q0 -45 16 -85.5t45.5 -70t69 -46t84.5 -16.5
t84.5 16.5t69 46t45.5 70t16 85.5t-16 85.5t-45.5 70t-69 46t-84.5 16.5t-84.5 -16.5t-69 -46t-45.5 -70t-16 -85.5z" />
    <glyph glyph-name="otilde" unicode="&#xf5;" horiz-adv-x="606" 
d="M157 600q5 34 27 56.5t54 22.5q28 0 66.5 -22t58.5 -22q40 0 51 47l34 -3q-5 -40 -26.5 -62.5t-56.5 -22.5q-29 0 -67 21.5t-58 21.5q-18 0 -31.5 -10t-17.5 -29zM38 252q0 55 20.5 104t57 85t85 56t102.5 20t102.5 -20t85 -56t57 -85t20.5 -104t-20.5 -104t-57 -85
t-85 -56t-102.5 -20t-102.5 20t-85 56t-57 85t-20.5 104zM88 252q0 -45 16 -85.5t45.5 -70t69 -46t84.5 -16.5t84.5 16.5t69 46t45.5 70t16 85.5t-16 85.5t-45.5 70t-69 46t-84.5 16.5t-84.5 -16.5t-69 -46t-45.5 -70t-16 -85.5z" />
    <glyph glyph-name="odieresis" unicode="&#xf6;" horiz-adv-x="606" 
d="M406 602q-13 0 -24.5 10t-11.5 26q0 15 11.5 25.5t24.5 10.5t24.5 -10.5t11.5 -25.5q0 -16 -11.5 -26t-24.5 -10zM200 602q-13 0 -24 10t-11 26q0 15 10.5 25.5t24.5 10.5q13 0 24.5 -10.5t11.5 -25.5q0 -16 -11.5 -26t-24.5 -10zM38 252q0 55 20.5 104t57 85t85 56
t102.5 20t102.5 -20t85 -56t57 -85t20.5 -104t-20.5 -104t-57 -85t-85 -56t-102.5 -20t-102.5 20t-85 56t-57 85t-20.5 104zM88 252q0 -45 16 -85.5t45.5 -70t69 -46t84.5 -16.5t84.5 16.5t69 46t45.5 70t16 85.5t-16 85.5t-45.5 70t-69 46t-84.5 16.5t-84.5 -16.5t-69 -46
t-45.5 -70t-16 -85.5z" />
    <glyph glyph-name="divide" unicode="&#xf7;" horiz-adv-x="410" 
d="M205 436q-13 0 -24.5 10t-11.5 25q0 16 11.5 26t24.5 10t24.5 -10t11.5 -26q0 -15 -12 -25t-24 -10zM46 325v47h318v-47h-318zM205 189q-13 0 -24.5 10t-11.5 26q0 15 11.5 25.5t24.5 10.5q12 0 24 -10.5t12 -25.5q0 -16 -11.5 -26t-24.5 -10z" />
    <glyph glyph-name="oslash" unicode="&#xf8;" horiz-adv-x="606" 
d="M88 -6l41 56q-43 36 -67 89t-24 113q0 55 20.5 104t57 85t85 56t102.5 20q39 0 75.5 -11t64.5 -28l39 52l36 -26l-39 -52q41 -36 65 -88.5t24 -111.5q0 -55 -20.5 -104t-57 -85t-85 -56t-102.5 -20q-34 0 -71 10t-66 27l-42 -57zM158 89l257 350q-23 14 -53 22.5t-59 8.5
q-45 0 -84.5 -16.5t-69 -46t-45.5 -70t-16 -85.5q0 -48 19 -91t51 -72zM194 63q22 -13 51.5 -21t57.5 -8q45 0 84.5 16.5t69 46t45.5 70t16 85.5q0 47 -18 89t-49 71z" />
    <glyph glyph-name="ugrave" unicode="&#xf9;" horiz-adv-x="553" 
d="M254 552l-84 145h65l60 -145h-41zM55 193v311h50v-301q0 -75 40.5 -119.5t108.5 -44.5q73 0 116.5 50.5t43.5 132.5v282h50v-407q0 -32 10 -47t32 -15q18 0 28 3v-39q-16 -7 -42 -7q-20 0 -39 11.5t-27.5 33.5t-8.5 45v14q-16 -44 -62 -74t-113 -30q-84 0 -135.5 55
t-51.5 146z" />
    <glyph glyph-name="uacute" unicode="&#xfa;" horiz-adv-x="553" 
d="M231 552l60 145h65l-85 -145h-40zM55 193v311h50v-301q0 -75 40.5 -119.5t108.5 -44.5q73 0 116.5 50.5t43.5 132.5v282h50v-407q0 -32 10 -47t32 -15q18 0 28 3v-39q-16 -7 -42 -7q-20 0 -39 11.5t-27.5 33.5t-8.5 45v14q-16 -44 -62 -74t-113 -30q-84 0 -135.5 55
t-51.5 146z" />
    <glyph glyph-name="ucircumflex" unicode="&#xfb;" horiz-adv-x="553" 
d="M113 576l129 123h42l130 -123h-63l-88 85l-88 -85h-62zM55 193v311h50v-301q0 -75 40.5 -119.5t108.5 -44.5q73 0 116.5 50.5t43.5 132.5v282h50v-407q0 -32 10 -47t32 -15q18 0 28 3v-39q-16 -7 -42 -7q-20 0 -39 11.5t-27.5 33.5t-8.5 45v14q-16 -44 -62 -74t-113 -30
q-84 0 -135.5 55t-51.5 146z" />
    <glyph glyph-name="udieresis" unicode="&#xfc;" horiz-adv-x="553" 
d="M366 602q-13 0 -24.5 10t-11.5 26q0 15 11.5 25.5t24.5 10.5t24.5 -10.5t11.5 -25.5q0 -16 -11.5 -26t-24.5 -10zM160 602q-13 0 -24 10t-11 26q0 15 10.5 25.5t24.5 10.5q13 0 24.5 -10.5t11.5 -25.5q0 -16 -11.5 -26t-24.5 -10zM55 193v311h50v-301q0 -75 40.5 -119.5
t108.5 -44.5q73 0 116.5 50.5t43.5 132.5v282h50v-407q0 -32 10 -47t32 -15q18 0 28 3v-39q-16 -7 -42 -7q-20 0 -39 11.5t-27.5 33.5t-8.5 45v14q-16 -44 -62 -74t-113 -30q-84 0 -135.5 55t-51.5 146z" />
    <glyph glyph-name="yacute" unicode="&#xfd;" horiz-adv-x="490" 
d="M210 552l60 145h65l-85 -145h-40zM189 -78l30 75l-200 507h52l173 -442l176 442h53l-238 -593q-24 -60 -51 -86q-16 -15 -38.5 -23.5t-45.5 -8.5q-27 0 -46 8v46q19 -7 46 -7q32 0 54 22q19 19 35 60z" />
    <glyph glyph-name="thorn" unicode="&#xfe;" horiz-adv-x="603" 
d="M61 -193v890h50v-298q13 35 46.5 64t74.5 41.5t79 12.5q51 0 98 -20t82 -56t54.5 -85t19.5 -104t-19.5 -104t-54.5 -85t-82 -56t-98 -20q-38 0 -79 12.5t-74.5 41.5t-46.5 64v-298h-50zM106 252q0 -46 15.5 -86.5t43.5 -70t65.5 -45.5t80.5 -16t80.5 16.5t65 46t43 70
t15.5 85.5t-15.5 85t-43 70t-65.5 46.5t-80 16.5q-43 0 -80.5 -16t-65.5 -45.5t-43.5 -70t-15.5 -86.5z" />
    <glyph glyph-name="ydieresis" unicode="&#xff;" horiz-adv-x="490" 
d="M349 602q-15 0 -25.5 10.5t-10.5 25.5t10.5 25.5t25.5 10.5q12 0 23.5 -10.5t11.5 -25.5q0 -16 -11.5 -26t-23.5 -10zM143 602q-15 0 -25.5 10.5t-10.5 25.5t10.5 25.5t25.5 10.5q12 0 23.5 -10.5t11.5 -25.5q0 -16 -11.5 -26t-23.5 -10zM189 -78l30 75l-200 507h52
l173 -442l176 442h53l-238 -593q-24 -60 -51 -86q-16 -15 -38.5 -23.5t-45.5 -8.5q-27 0 -46 8v46q19 -7 46 -7q32 0 54 22q19 19 35 60z" />
    <glyph glyph-name="Amacron" unicode="&#x100;" horiz-adv-x="685" 
d="M195 769v47h294v-47h-294zM35 0l287 697h41l287 -697h-56l-78 190h-348l-77 -190h-56zM188 238h308l-154 379z" />
    <glyph glyph-name="amacron" unicode="&#x101;" horiz-adv-x="635" 
d="M159 607v47h294v-47h-294zM39 252q0 55 19.5 104t54.5 85t81.5 56t98.5 20q53 0 99 -20.5t69.5 -48t31.5 -49.5v105h50v-410q0 -32 9.5 -46.5t32.5 -14.5q18 0 28 3v-39q-15 -7 -42 -7q-29 0 -47 15.5t-23.5 38.5t-5.5 43v17q-25 -52 -78 -84.5t-124 -32.5
q-52 0 -98.5 20t-81.5 56t-54.5 85t-19.5 104zM89 252q0 -45 13.5 -80.5t35 -63.5t62 -51t93.5 -23q43 0 80.5 16t65.5 45.5t43.5 70t15.5 86.5t-15.5 86.5t-43.5 70t-65.5 45.5t-80.5 16q-32 0 -66.5 -11t-65 -38t-51.5 -70t-21 -99z" />
    <glyph glyph-name="Abreve" unicode="&#x102;" horiz-adv-x="685" 
d="M342 751q-18 0 -38.5 5.5t-40 19t-34.5 37t-20 56.5h47q10 -35 32 -54t54 -19t54.5 19t31.5 54h48q-3 -25 -18.5 -53t-47 -46.5t-68.5 -18.5zM35 0l287 697h41l287 -697h-56l-78 190h-348l-77 -190h-56zM188 238h308l-154 379z" />
    <glyph glyph-name="abreve" unicode="&#x103;" horiz-adv-x="635" 
d="M298 579q-18 0 -38.5 5.5t-40 19t-34.5 37t-20 56.5h47q10 -35 32 -54t54 -19t54.5 19.5t31.5 53.5h47q-3 -25 -18 -53t-46.5 -46.5t-68.5 -18.5zM39 252q0 55 19.5 104t54.5 85t81.5 56t98.5 20q53 0 99 -20.5t69.5 -48t31.5 -49.5v105h50v-410q0 -32 9.5 -46.5
t32.5 -14.5q18 0 28 3v-39q-15 -7 -42 -7q-29 0 -47 15.5t-23.5 38.5t-5.5 43v17q-25 -52 -78 -84.5t-124 -32.5q-52 0 -98.5 20t-81.5 56t-54.5 85t-19.5 104zM89 252q0 -45 13.5 -80.5t35 -63.5t62 -51t93.5 -23q43 0 80.5 16t65.5 45.5t43.5 70t15.5 86.5t-15.5 86.5
t-43.5 70t-65.5 45.5t-80.5 16q-32 0 -66.5 -11t-65 -38t-51.5 -70t-21 -99z" />
    <glyph glyph-name="Aogonek" unicode="&#x104;" horiz-adv-x="685" 
d="M35 0l287 697h41l287 -697q-34 -15 -59 -43.5t-25 -57.5q0 -23 15.5 -36t37.5 -13q33 0 58 15l-9 -43q-25 -13 -57 -13q-17 0 -38 7.5t-36 27t-15 46.5q0 33 21 61.5t52 45.5l-1 2l-78 191h-348l-77 -190h-56zM188 238h308l-154 379z" />
    <glyph glyph-name="aogonek" unicode="&#x105;" horiz-adv-x="635" 
d="M39 252q0 55 19.5 104t54.5 85t81.5 56t98.5 20q53 0 99 -20.5t69.5 -48t31.5 -49.5v105h50v-410q0 -32 9.5 -46.5t32.5 -14.5q18 0 28 3v-39q-32 -12 -58 -30t-36 -36t-10 -32q0 -23 15.5 -36t37.5 -13q33 0 59 15l-10 -43q-25 -13 -57 -13q-17 0 -37.5 7.5t-36 27.5
t-15.5 46q0 33 23 61t58 42q-26 8 -38.5 33t-12.5 61v17q-25 -52 -78 -84.5t-124 -32.5q-52 0 -98.5 20t-81.5 56t-54.5 85t-19.5 104zM89 252q0 -45 13.5 -80.5t35 -63.5t62 -51t93.5 -23q43 0 80.5 16t65.5 45.5t43.5 70t15.5 86.5t-15.5 86.5t-43.5 70t-65.5 45.5
t-80.5 16q-32 0 -66.5 -11t-65 -38t-51.5 -70t-21 -99z" />
    <glyph glyph-name="Cacute" unicode="&#x106;" horiz-adv-x="719" 
d="M385 745l60 145h65l-85 -145h-40zM51 348q0 56 18.5 117t63 115t99 82.5t100 37.5t80.5 9q78 0 147.5 -31t118.5 -86l-35 -33q-41 48 -101.5 75t-129.5 27q-64 0 -121.5 -23.5t-99.5 -66t-65 -100.5t-23 -123t23 -122.5t65 -100t99.5 -66t121.5 -23.5q33 0 75.5 9
t84.5 34t72 61l36 -33q-49 -56 -119 -87.5t-149 -31.5q-73 0 -139.5 27t-116 76t-77.5 115.5t-28 141.5z" />
    <glyph glyph-name="cacute" unicode="&#x107;" horiz-adv-x="524" 
d="M277 552l60 145h65l-85 -145h-40zM39 252q0 55 20.5 104t57 85t85 56t102.5 20q56 0 105.5 -20.5t85.5 -58.5l-30 -34q-30 31 -72 48.5t-89 17.5q-45 0 -84.5 -16.5t-69 -46t-45.5 -70t-16 -85.5t16 -85.5t45.5 -70t69 -46t84.5 -16.5q47 0 89 17.5t72 48.5l30 -34
q-36 -38 -85.5 -58.5t-105.5 -20.5q-54 0 -102.5 20t-85 56t-57 85t-20.5 104z" />
    <glyph glyph-name="Ccircumflex" unicode="&#x108;" horiz-adv-x="719" 
d="M265 769l129 123h42l130 -123h-62l-89 85l-88 -85h-62zM51 348q0 56 18.5 117t63 115t99 82.5t100 37.5t80.5 9q78 0 147.5 -31t118.5 -86l-35 -33q-41 48 -101.5 75t-129.5 27q-64 0 -121.5 -23.5t-99.5 -66t-65 -100.5t-23 -123t23 -122.5t65 -100t99.5 -66
t121.5 -23.5q33 0 75.5 9t84.5 34t72 61l36 -33q-49 -56 -119 -87.5t-149 -31.5q-73 0 -139.5 27t-116 76t-77.5 115.5t-28 141.5z" />
    <glyph glyph-name="ccircumflex" unicode="&#x109;" horiz-adv-x="524" 
d="M156 576l129 123h42l130 -123h-62l-89 85l-88 -85h-62zM39 252q0 55 20.5 104t57 85t85 56t102.5 20q56 0 105.5 -20.5t85.5 -58.5l-30 -34q-30 31 -72 48.5t-89 17.5q-45 0 -84.5 -16.5t-69 -46t-45.5 -70t-16 -85.5t16 -85.5t45.5 -70t69 -46t84.5 -16.5q47 0 89 17.5
t72 48.5l30 -34q-36 -38 -85.5 -58.5t-105.5 -20.5q-54 0 -102.5 20t-85 56t-57 85t-20.5 104z" />
    <glyph glyph-name="Cdotaccent" unicode="&#x10a;" horiz-adv-x="719" 
d="M411 768q-13 0 -24.5 10.5t-11.5 25.5q0 16 11.5 26t24.5 10t24.5 -10t11.5 -26q0 -15 -11.5 -25.5t-24.5 -10.5zM51 348q0 56 18.5 117t63 115t99 82.5t100 37.5t80.5 9q78 0 147.5 -31t118.5 -86l-35 -33q-41 48 -101.5 75t-129.5 27q-64 0 -121.5 -23.5t-99.5 -66
t-65 -100.5t-23 -123t23 -122.5t65 -100t99.5 -66t121.5 -23.5q33 0 75.5 9t84.5 34t72 61l36 -33q-49 -56 -119 -87.5t-149 -31.5q-73 0 -139.5 27t-116 76t-77.5 115.5t-28 141.5z" />
    <glyph glyph-name="cdotaccent" unicode="&#x10b;" horiz-adv-x="524" 
d="M306 596q-13 0 -24.5 10t-11.5 25q0 16 11.5 26t24.5 10t24.5 -10t11.5 -26q0 -15 -12 -25t-24 -10zM39 252q0 55 20.5 104t57 85t85 56t102.5 20q56 0 105.5 -20.5t85.5 -58.5l-30 -34q-30 31 -72 48.5t-89 17.5q-45 0 -84.5 -16.5t-69 -46t-45.5 -70t-16 -85.5
t16 -85.5t45.5 -70t69 -46t84.5 -16.5q47 0 89 17.5t72 48.5l30 -34q-36 -38 -85.5 -58.5t-105.5 -20.5q-54 0 -102.5 20t-85 56t-57 85t-20.5 104z" />
    <glyph glyph-name="Ccaron" unicode="&#x10c;" horiz-adv-x="719" 
d="M393 767l-130 123h63l88 -85l88 85h62l-129 -123h-42zM51 348q0 56 18.5 117t63 115t99 82.5t100 37.5t80.5 9q78 0 147.5 -31t118.5 -86l-35 -33q-41 48 -101.5 75t-129.5 27q-64 0 -121.5 -23.5t-99.5 -66t-65 -100.5t-23 -123t23 -122.5t65 -100t99.5 -66t121.5 -23.5
q33 0 75.5 9t84.5 34t72 61l36 -33q-49 -56 -119 -87.5t-149 -31.5q-73 0 -139.5 27t-116 76t-77.5 115.5t-28 141.5z" />
    <glyph glyph-name="ccaron" unicode="&#x10d;" horiz-adv-x="524" 
d="M282 574l-130 123h63l88 -85l88 85h62l-129 -123h-42zM39 252q0 55 20.5 104t57 85t85 56t102.5 20q56 0 105.5 -20.5t85.5 -58.5l-30 -34q-30 31 -72 48.5t-89 17.5q-45 0 -84.5 -16.5t-69 -46t-45.5 -70t-16 -85.5t16 -85.5t45.5 -70t69 -46t84.5 -16.5q47 0 89 17.5
t72 48.5l30 -34q-36 -38 -85.5 -58.5t-105.5 -20.5q-54 0 -102.5 20t-85 56t-57 85t-20.5 104z" />
    <glyph glyph-name="Dcaron" unicode="&#x10e;" horiz-adv-x="705" 
d="M82 0v697h212q60 0 123 -17t115 -58.5t79 -94t35 -98t8 -81.5q0 -76 -25 -140.5t-71.5 -111t-114 -71.5t-148.5 -25h-213zM134 48h156q73 0 132 21.5t98.5 61.5t60 95.5t20.5 121.5t-20.5 122t-60 96t-98.5 61.5t-133 21.5h-155v-601zM306 767l-130 123h63l88 -85l88 85
h62l-129 -123h-42z" />
    <glyph glyph-name="dcaron" unicode="&#x10f;" horiz-adv-x="740" 
d="M578 552l59 145h66l-85 -145h-40zM39 252q0 55 19.5 104t54.5 85t81.5 56t98.5 20q53 0 99 -20.5t69.5 -48t31.5 -49.5v298h50v-603q0 -32 9.5 -46.5t32.5 -14.5q18 0 28 3v-39q-15 -7 -42 -7q-29 0 -47 15.5t-23.5 38.5t-5.5 43v17q-25 -52 -78 -84.5t-124 -32.5
q-52 0 -98.5 20t-81.5 56t-54.5 85t-19.5 104zM89 252q0 -45 13.5 -80.5t35 -63.5t62 -51t93.5 -23q43 0 80.5 16t65.5 45.5t43.5 70t15.5 86.5t-15.5 86.5t-43.5 70t-65.5 45.5t-80.5 16q-32 0 -66.5 -11t-65 -38t-51.5 -70t-21 -99z" />
    <glyph glyph-name="Dcroat" unicode="&#x110;" horiz-adv-x="722" 
d="M99 0v334h-64v49h64v314h211q81 0 148.5 -25t114.5 -71.5t72 -111.5t25 -141t-25 -140.5t-71.5 -111t-114 -71.5t-148.5 -25h-212zM151 48h156q73 0 131.5 21.5t98.5 61.5t60.5 95.5t20.5 121.5t-20.5 122t-60.5 96t-99 61.5t-132 21.5h-155v-266h144v-49h-144v-286z" />
    <glyph glyph-name="dcroat" unicode="&#x111;" horiz-adv-x="635" 
d="M272 585v41h221v71h50v-71h52v-41h-52v-491q0 -32 9.5 -46.5t32.5 -14.5q18 0 28 3v-39q-15 -7 -42 -7q-29 0 -47 15.5t-23.5 38.5t-5.5 43v17q-25 -52 -78 -84.5t-124 -32.5q-52 0 -98.5 20t-81.5 56t-54.5 85t-19.5 104t19.5 104t54.5 85t81.5 56t98.5 20
q53 0 99 -20.5t69.5 -48t31.5 -49.5v186h-221zM89 252q0 -45 13.5 -80.5t35 -63.5t62 -51t93.5 -23q43 0 80.5 16t65.5 45.5t43.5 70t15.5 86.5t-15.5 86.5t-43.5 70t-65.5 45.5t-80.5 16q-32 0 -66.5 -11t-65 -38t-51.5 -70t-21 -99z" />
    <glyph glyph-name="Emacron" unicode="&#x112;" horiz-adv-x="543" 
d="M138 769v47h294v-47h-294zM96 0v697h380v-48h-328v-256h309v-49h-309v-296h335v-48h-387z" />
    <glyph glyph-name="emacron" unicode="&#x113;" horiz-adv-x="556" 
d="M139 607v47h294v-47h-294zM39 248v3q0 57 18.5 106.5t52 85t79 55t96.5 19.5q50 0 93 -19.5t75 -54.5t49 -81t17 -97l-1 -25h-430q1 -56 26.5 -105t72.5 -74.5t100 -25.5q25 0 54.5 6.5t57.5 23.5t53 43l33 -32q-77 -88 -198 -88q-53 0 -98.5 19t-79 53.5t-52 83
t-18.5 104.5zM90 285h377q-1 77 -54 131t-128 54q-29 0 -61 -9.5t-61 -32.5t-50 -59t-23 -84z" />
    <glyph glyph-name="Ebreve" unicode="&#x114;" horiz-adv-x="543" 
d="M292 751q-23 0 -52.5 10.5t-52.5 39.5t-28 68h47q9 -35 31.5 -54t54.5 -19t54 19t32 54h47q-3 -20 -11.5 -40.5t-25 -37.5t-41 -28.5t-55.5 -11.5zM96 0v697h380v-48h-328v-256h309v-49h-309v-296h335v-48h-387z" />
    <glyph glyph-name="ebreve" unicode="&#x115;" horiz-adv-x="556" 
d="M286 579q-18 0 -38.5 5.5t-40 19t-34.5 37t-20 56.5h47q10 -35 32 -54t54 -19t54.5 19.5t31.5 53.5h47q-3 -25 -18 -53t-46.5 -46.5t-68.5 -18.5zM39 248v3q0 57 18.5 106.5t52 85t79 55t96.5 19.5q50 0 93 -19.5t75 -54.5t49 -81t17 -97l-1 -25h-430q1 -56 26.5 -105
t72.5 -74.5t100 -25.5q25 0 54.5 6.5t57.5 23.5t53 43l33 -32q-77 -88 -198 -88q-53 0 -98.5 19t-79 53.5t-52 83t-18.5 104.5zM90 285h377q-1 77 -54 131t-128 54q-29 0 -61 -9.5t-61 -32.5t-50 -59t-23 -84z" />
    <glyph glyph-name="Edotaccent" unicode="&#x116;" horiz-adv-x="543" 
d="M290 768q-13 0 -24.5 10.5t-11.5 25.5q0 16 11.5 26t24.5 10t24.5 -10t11.5 -26q0 -15 -11.5 -25.5t-24.5 -10.5zM96 0v697h380v-48h-328v-256h309v-49h-309v-296h335v-48h-387z" />
    <glyph glyph-name="edotaccent" unicode="&#x117;" horiz-adv-x="556" 
d="M285 602q-13 0 -24.5 10t-11.5 26q0 15 11.5 25.5t24.5 10.5t24.5 -10.5t11.5 -25.5q0 -16 -11.5 -26t-24.5 -10zM39 248v3q0 57 18.5 106.5t52 85t79 55t96.5 19.5q50 0 93 -19.5t75 -54.5t49 -81t17 -97l-1 -25h-430q1 -56 26.5 -105t72.5 -74.5t100 -25.5
q25 0 54.5 6.5t57.5 23.5t53 43l33 -32q-77 -88 -198 -88q-53 0 -98.5 19t-79 53.5t-52 83t-18.5 104.5zM90 285h377q-1 77 -54 131t-128 54q-29 0 -61 -9.5t-61 -32.5t-50 -59t-23 -84z" />
    <glyph glyph-name="Eogonek" unicode="&#x118;" horiz-adv-x="543" 
d="M96 0v697h380v-48h-328v-256h309v-49h-309v-296h335v-48q-33 -18 -56.5 -45.5t-23.5 -55.5q0 -23 15.5 -36t37.5 -13q33 0 59 15l-10 -43q-25 -13 -57 -13q-17 0 -38 7.5t-36 27t-15 46.5q0 17 8 38t27.5 40.5t42.5 31.5h-341z" />
    <glyph glyph-name="eogonek" unicode="&#x119;" horiz-adv-x="556" 
d="M39 248v3q0 57 18.5 106.5t52 85t79 55t96.5 19.5q50 0 93 -19.5t75 -54.5t49 -81t17 -97l-1 -24h-430q1 -56 26.5 -105.5t72.5 -75t100 -25.5q25 0 54.5 6.5t57.5 23.5t53 43l33 -32q-18 -21 -64 -54q-6 -4 -29 -18t-36 -24.5t-21.5 -21t-13.5 -23t-5 -28.5
q0 -23 15 -36t37 -13q32 0 58 15l-9 -43q-26 -13 -57 -13q-16 0 -36.5 7.5t-35.5 27.5t-15 46q0 28 14 53.5t37 39.5q-18 -3 -37 -3q-53 0 -98.5 19t-79 53.5t-52 83t-18.5 104.5zM90 285h377q-1 77 -54 131t-128 54q-29 0 -61 -9.5t-61 -32.5t-50 -59t-23 -84z" />
    <glyph glyph-name="Ecaron" unicode="&#x11a;" horiz-adv-x="543" 
d="M96 0v697h380v-48h-328v-256h309v-49h-309v-296h335v-48h-387zM268 767l-130 123h63l88 -85l88 85h62l-129 -123h-42z" />
    <glyph glyph-name="ecaron" unicode="&#x11b;" horiz-adv-x="556" 
d="M270 574l-130 123h63l88 -85l88 85h62l-129 -123h-42zM39 248v3q0 57 18.5 106.5t52 85t79 55t96.5 19.5q50 0 93 -19.5t75 -54.5t49 -81t17 -97l-1 -25h-430q1 -56 26.5 -105t72.5 -74.5t100 -25.5q25 0 54.5 6.5t57.5 23.5t53 43l33 -32q-77 -88 -198 -88
q-53 0 -98.5 19t-79 53.5t-52 83t-18.5 104.5zM90 285h377q-1 77 -54 131t-128 54q-29 0 -61 -9.5t-61 -32.5t-50 -59t-23 -84z" />
    <glyph glyph-name="Gcircumflex" unicode="&#x11c;" horiz-adv-x="737" 
d="M262 769l130 123h42l130 -123h-63l-88 85l-89 -85h-62zM50 348q0 75 27.5 141.5t77 115.5t116 76t139.5 27q63 0 120.5 -19.5t102.5 -55.5l-31 -37q-82 64 -192 64q-64 0 -121 -23.5t-99 -66t-65 -100.5t-23 -122q0 -65 23 -123t65 -100.5t99 -66t121 -23.5
q61 0 115.5 20t95.5 57v211h-229v48h281v-278q-51 -50 -119.5 -78t-143.5 -28q-73 0 -139.5 27t-116 76t-77 116t-27.5 142z" />
    <glyph glyph-name="gcircumflex" unicode="&#x11d;" horiz-adv-x="604" 
d="M154 576l129 123h42l130 -123h-62l-89 85l-88 -85h-62zM86 -96q83 -70 208 -70q90 0 141 42q26 22 42 61.5t16 110.5v54q-25 -52 -77 -83.5t-123 -31.5q-52 0 -98.5 20t-81.5 56t-54.5 85t-19.5 104t19.5 104t54.5 85t81.5 56t98.5 20q53 0 99 -20.5t69.5 -48t31.5 -49.5
v105h50v-429q0 -63 -7 -107t-25.5 -75.5t-44.5 -52.5q-31 -25 -76 -39t-95 -14q-68 0 -129.5 20.5t-106.5 57.5zM89 252q0 -45 13.5 -80.5t35 -63.5t62 -51t93.5 -23q43 0 80.5 16t65.5 45.5t43.5 70t15.5 86.5t-15.5 86.5t-43.5 70t-65.5 45.5t-80.5 16q-32 0 -66.5 -11
t-65 -38t-51.5 -70t-21 -99z" />
    <glyph glyph-name="Gbreve" unicode="&#x11e;" horiz-adv-x="737" 
d="M409 751q-23 0 -52.5 10.5t-52.5 39.5t-28 68h47q9 -35 31.5 -54t54.5 -19t54 19t32 54h47q-3 -20 -11.5 -40.5t-25 -37.5t-41 -28.5t-55.5 -11.5zM50 348q0 75 27.5 141.5t77 115.5t116 76t139.5 27q63 0 120.5 -19.5t102.5 -55.5l-31 -37q-82 64 -192 64
q-64 0 -121 -23.5t-99 -66t-65 -100.5t-23 -122q0 -65 23 -123t65 -100.5t99 -66t121 -23.5q61 0 115.5 20t95.5 57v211h-229v48h281v-278q-51 -50 -119.5 -78t-143.5 -28q-73 0 -139.5 27t-116 76t-77 116t-27.5 142z" />
    <glyph glyph-name="gbreve" unicode="&#x11f;" horiz-adv-x="604" 
d="M306 579q-18 0 -38.5 5.5t-40 19t-34.5 37t-20 56.5h47q10 -35 32 -54t54 -19t54.5 19.5t31.5 53.5h48q-3 -25 -18.5 -53t-47 -46.5t-68.5 -18.5zM86 -96q83 -70 208 -70q90 0 141 42q26 22 42 61.5t16 110.5v54q-25 -52 -77 -83.5t-123 -31.5q-52 0 -98.5 20t-81.5 56
t-54.5 85t-19.5 104t19.5 104t54.5 85t81.5 56t98.5 20q53 0 99 -20.5t69.5 -48t31.5 -49.5v105h50v-429q0 -63 -7 -107t-25.5 -75.5t-44.5 -52.5q-31 -25 -76 -39t-95 -14q-68 0 -129.5 20.5t-106.5 57.5zM89 252q0 -45 13.5 -80.5t35 -63.5t62 -51t93.5 -23q43 0 80.5 16
t65.5 45.5t43.5 70t15.5 86.5t-15.5 86.5t-43.5 70t-65.5 45.5t-80.5 16q-32 0 -66.5 -11t-65 -38t-51.5 -70t-21 -99z" />
    <glyph glyph-name="Gdotaccent" unicode="&#x120;" horiz-adv-x="737" 
d="M411 768q-15 0 -25.5 10.5t-10.5 25.5t10.5 25.5t25.5 10.5q12 0 23.5 -10t11.5 -26q0 -15 -11.5 -25.5t-23.5 -10.5zM50 348q0 75 27.5 141.5t77 115.5t116 76t139.5 27q63 0 120.5 -19.5t102.5 -55.5l-31 -37q-82 64 -192 64q-64 0 -121 -23.5t-99 -66t-65 -100.5
t-23 -122q0 -65 23 -123t65 -100.5t99 -66t121 -23.5q61 0 115.5 20t95.5 57v211h-229v48h281v-278q-51 -50 -119.5 -78t-143.5 -28q-73 0 -139.5 27t-116 76t-77 116t-27.5 142z" />
    <glyph glyph-name="gdotaccent" unicode="&#x121;" horiz-adv-x="604" 
d="M298 599q-13 0 -24.5 10t-11.5 26q0 15 11.5 25t24.5 10t24.5 -10t11.5 -25q0 -16 -11.5 -26t-24.5 -10zM86 -96q83 -70 208 -70q90 0 141 42q26 22 42 61.5t16 110.5v54q-25 -52 -77 -83.5t-123 -31.5q-52 0 -98.5 20t-81.5 56t-54.5 85t-19.5 104t19.5 104t54.5 85
t81.5 56t98.5 20q53 0 99 -20.5t69.5 -48t31.5 -49.5v105h50v-429q0 -63 -7 -107t-25.5 -75.5t-44.5 -52.5q-31 -25 -76 -39t-95 -14q-68 0 -129.5 20.5t-106.5 57.5zM89 252q0 -45 13.5 -80.5t35 -63.5t62 -51t93.5 -23q43 0 80.5 16t65.5 45.5t43.5 70t15.5 86.5
t-15.5 86.5t-43.5 70t-65.5 45.5t-80.5 16q-32 0 -66.5 -11t-65 -38t-51.5 -70t-21 -99z" />
    <glyph glyph-name="Gcommaaccent" unicode="&#x122;" horiz-adv-x="737" 
d="M315 -193l60 145h65l-85 -145h-40zM50 348q0 75 27.5 141.5t77 115.5t116 76t139.5 27q63 0 120.5 -19.5t102.5 -55.5l-31 -37q-82 64 -192 64q-64 0 -121 -23.5t-99 -66t-65 -100.5t-23 -122q0 -65 23 -123t65 -100.5t99 -66t121 -23.5q61 0 115.5 20t95.5 57v211h-229
v48h281v-278q-51 -50 -119.5 -78t-143.5 -28q-73 0 -139.5 27t-116 76t-77 116t-27.5 142z" />
    <glyph glyph-name="gcommaaccent" unicode="&#x123;" horiz-adv-x="604" 
d="M265 552l60 145h66l-85 -145h-41zM86 -96q83 -70 208 -70q90 0 141 42q26 22 42 61.5t16 110.5v54q-25 -52 -77 -83.5t-123 -31.5q-52 0 -98.5 20t-81.5 56t-54.5 85t-19.5 104t19.5 104t54.5 85t81.5 56t98.5 20q53 0 99 -20.5t69.5 -48t31.5 -49.5v105h50v-429
q0 -63 -7 -107t-25.5 -75.5t-44.5 -52.5q-31 -25 -76 -39t-95 -14q-68 0 -129.5 20.5t-106.5 57.5zM89 252q0 -45 13.5 -80.5t35 -63.5t62 -51t93.5 -23q43 0 80.5 16t65.5 45.5t43.5 70t15.5 86.5t-15.5 86.5t-43.5 70t-65.5 45.5t-80.5 16q-32 0 -66.5 -11t-65 -38
t-51.5 -70t-21 -99z" />
    <glyph glyph-name="Hcircumflex" unicode="&#x124;" horiz-adv-x="709" 
d="M96 0v697h52v-303h413v303h52v-697h-52v346h-413v-346h-52zM203 769l130 123h42l130 -123h-63l-88 85l-89 -85h-62z" />
    <glyph glyph-name="hcircumflex" unicode="&#x125;" horiz-adv-x="556" 
d="M-54 721l122 123h42l122 -123h-62l-81 84l-82 -84h-61zM60 0v697h50v-290q19 48 60.5 76.5t110.5 28.5q85 0 137 -55t52 -146v-212q0 -31 8.5 -44t30.5 -13l20 2v-42q-12 -5 -29 -5q-34 0 -57 23t-23 75v206q0 75 -41 119.5t-109 44.5q-73 0 -116.5 -53.5t-43.5 -140.5
v-271h-50z" />
    <glyph glyph-name="Hbar" unicode="&#x126;" horiz-adv-x="709" 
d="M96 0v515h-63v47h63v135h52v-135h413v135h52v-135h55v-47h-55v-515h-52v346h-413v-346h-52zM148 394h413v121h-413v-121z" />
    <glyph glyph-name="hbar" unicode="&#x127;" horiz-adv-x="560" 
d="M5 584v41h59v72h50v-72h209v-41h-209v-177q19 48 60.5 76.5t110.5 28.5q85 0 137 -55t52 -146v-212q0 -31 8.5 -44t30.5 -13l20 2v-42q-12 -5 -29 -5q-34 0 -57 23t-23 75v206q0 75 -41 119.5t-109 44.5q-73 0 -116.5 -53.5t-43.5 -140.5v-271h-50v584h-59z" />
    <glyph glyph-name="Itilde" unicode="&#x128;" horiz-adv-x="251" 
d="M21 765l-34 3q5 34 26 56.5t53 22.5q26 0 61.5 -22t54.5 -22q40 0 49 47l34 -3q-5 -40 -25.5 -63t-55.5 -23q-28 0 -58.5 19t-41.5 22t-17 3q-17 0 -29.5 -10.5t-16.5 -29.5zM100 0v697h52v-697h-52z" />
    <glyph glyph-name="itilde" unicode="&#x129;" horiz-adv-x="198" 
d="M62 82v422h50v-413q0 -29 9.5 -42t31.5 -13l28 2v-42q-16 -6 -41 -6q-78 0 -78 92zM1 599l-33 3q5 34 23.5 55.5t45.5 21.5q22 0 56.5 -22t49.5 -22q32 0 41 47l32 -3q-10 -84 -70 -84q-14 0 -26.5 5.5t-39 22t-40.5 16.5q-15 0 -25.5 -10.5t-13.5 -29.5z" />
    <glyph glyph-name="Imacron" unicode="&#x12a;" horiz-adv-x="251" 
d="M-1 769v47h253v-47h-253zM100 0v697h52v-697h-52z" />
    <glyph glyph-name="imacron" unicode="&#x12b;" horiz-adv-x="198" 
d="M-23 607v47h219v-47h-219zM62 82v422h50v-413q0 -29 9.5 -42t31.5 -13l28 2v-42q-16 -6 -41 -6q-78 0 -78 92z" />
    <glyph glyph-name="Ibreve" unicode="&#x12c;" horiz-adv-x="251" 
d="M125 751q-18 0 -38.5 5.5t-40 19t-34.5 37t-20 56.5h47q10 -35 32 -54t54 -19t54.5 19t32.5 54h47q-3 -25 -18.5 -53t-47 -46.5t-68.5 -18.5zM100 0v697h52v-697h-52z" />
    <glyph glyph-name="ibreve" unicode="&#x12d;" horiz-adv-x="198" 
d="M62 82v422h50v-413q0 -29 9.5 -42t31.5 -13l28 2v-42q-16 -6 -41 -6q-78 0 -78 92zM86 583q-47 0 -78 31t-35 83h46q3 -31 21 -50t46 -19q29 0 47 19t21 50h47q-2 -25 -13.5 -52t-39 -44.5t-62.5 -17.5z" />
    <glyph glyph-name="Iogonek" unicode="&#x12e;" horiz-adv-x="251" 
d="M100 -1v698h52v-697q-31 -14 -56 -43t-25 -58q0 -23 15.5 -36t37.5 -13q33 0 59 15l-10 -43q-26 -13 -57 -13q-17 0 -37.5 7.5t-36 27.5t-15.5 46q0 30 19.5 59t53.5 49v1z" />
    <glyph glyph-name="iogonek" unicode="&#x12f;" horiz-adv-x="198" 
d="M62 85v419h50v-413q0 -29 9.5 -42t31.5 -13l28 2v-42q-28 -13 -51 -31.5t-32.5 -36.5t-9.5 -32q0 -23 15.5 -36t37.5 -13q33 0 59 15l-9 -42q-28 -14 -58 -14q-17 0 -37.5 7.5t-36 27.5t-15.5 46q0 24 17 53t59 52q-28 6 -43 27.5t-15 65.5zM87 602q-13 0 -24.5 10
t-11.5 26q0 15 11.5 25.5t24.5 10.5q12 0 24 -10.5t12 -25.5q0 -16 -11.5 -26t-24.5 -10z" />
    <glyph glyph-name="Idotaccent" unicode="&#x130;" horiz-adv-x="251" 
d="M126 768q-13 0 -24.5 10.5t-11.5 25.5q0 16 11.5 26t24.5 10t24.5 -10t11.5 -26q0 -15 -11.5 -25.5t-24.5 -10.5zM100 0v697h52v-697h-52z" />
    <glyph glyph-name="dotlessi" unicode="&#x131;" horiz-adv-x="198" 
d="M62 82v422h50v-413q0 -29 9.5 -42t31.5 -13l28 2v-42q-16 -6 -41 -6q-78 0 -78 92z" />
    <glyph glyph-name="IJ" unicode="&#x132;" horiz-adv-x="451" 
d="M100 -4v49q32 -8 93 -8q28 0 55 9t44 39t17 107v505h52v-499q0 -75 -15.5 -119t-51 -67.5t-96.5 -23.5q-53 0 -98 8zM100 141v556h52v-556h-52z" />
    <glyph glyph-name="ij" unicode="&#x133;" horiz-adv-x="336" 
d="M249 602q-13 0 -24 10t-11 26q0 15 10.5 25.5t24.5 10.5q13 0 24.5 -10.5t11.5 -25.5q0 -16 -11.5 -26t-24.5 -10zM87 602q-13 0 -24.5 10t-11.5 26q0 15 11.5 25.5t24.5 10.5q12 0 24 -10.5t12 -25.5q0 -16 -11.5 -26t-24.5 -10zM70 -3v47q33 -10 75 -10q41 0 60.5 22
t19.5 71v377h50v-377q0 -75 -38 -110q-31 -29 -96 -29q-40 0 -71 9zM62 138v366h49v-366h-49z" />
    <glyph glyph-name="Jcircumflex" unicode="&#x134;" horiz-adv-x="318" 
d="M19 -4v51q24 -9 57 -9q50 0 74 31.5t24 112.5v515h52v-513q0 -70 -13 -111t-45.5 -63t-89.5 -22q-36 0 -59 8zM50 769l127 123h42l127 -123h-63l-85 85l-86 -85h-62z" />
    <glyph glyph-name="jcircumflex" unicode="&#x135;" horiz-adv-x="192" 
d="M71 -70v574h50v-574q0 -136 -128 -136q-21 0 -33 3v47q18 -3 38 -3q38 0 55.5 21t17.5 68zM-30 576l104 123h42l105 -123h-58l-68 87l-67 -87h-58z" />
    <glyph glyph-name="Kcommaaccent" unicode="&#x136;" horiz-adv-x="622" 
d="M231 -193l60 145h65l-85 -145h-40zM96 0v697h52v-399l366 399h65l-281 -308l292 -389h-63l-264 352l-115 -126v-226h-52z" />
    <glyph glyph-name="kcommaaccent" unicode="&#x137;" horiz-adv-x="449" 
d="M210 -48h65l-85 -145h-40zM61 0v697h50v-470l245 277h60l-195 -221l218 -283h-61l-189 246l-78 -86v-160h-50z" />
    <glyph glyph-name="Lacute" unicode="&#x139;" horiz-adv-x="491" 
d="M105 745l60 145h65l-85 -145h-40zM96 0v697h52v-649h300v-48h-352z" />
    <glyph glyph-name="lacute" unicode="&#x13a;" horiz-adv-x="260" 
d="M62 722l60 145h65l-85 -145h-40zM62 127v570h50v-567q0 -49 18 -72.5t57 -23.5q25 0 42 4v-46q-22 -5 -42 -5q-125 0 -125 140z" />
    <glyph glyph-name="Lcommaaccent" unicode="&#x13b;" horiz-adv-x="491" 
d="M96 0v697h52v-649h300v-48h-352zM246 -48h66l-85 -145h-40z" />
    <glyph glyph-name="lcommaaccent" unicode="&#x13c;" horiz-adv-x="260" 
d="M103 -48h66l-85 -145h-40zM62 127v570h50v-567q0 -49 18 -72.5t57 -23.5q25 0 42 4v-46q-22 -5 -42 -5q-125 0 -125 140z" />
    <glyph glyph-name="Lcaron" unicode="&#x13d;" horiz-adv-x="491" 
d="M96 0v697h52v-649h300v-48h-352zM255 552l60 145h65l-85 -145h-40z" />
    <glyph glyph-name="lcaron" unicode="&#x13e;" horiz-adv-x="298" 
d="M156 552l60 145h65l-84 -145h-41zM62 127v570h50v-567q0 -49 18 -72.5t57 -23.5q25 0 42 4v-46q-22 -5 -42 -5q-125 0 -125 140z" />
    <glyph glyph-name="Ldot" unicode="&#x13f;" horiz-adv-x="491" 
d="M96 0v697h52v-649h300v-48h-352zM307 341q-13 0 -24.5 10t-11.5 26q0 15 11.5 25.5t24.5 10.5t24.5 -10.5t11.5 -25.5q0 -16 -11.5 -26t-24.5 -10z" />
    <glyph glyph-name="ldot" unicode="&#x140;" horiz-adv-x="283" 
d="M200 333q-13 0 -24.5 10t-11.5 25q0 16 11.5 26t24.5 10t24.5 -10t11.5 -26q0 -15 -11.5 -25t-24.5 -10zM62 127v570h50v-567q0 -49 18 -72.5t57 -23.5q25 0 42 4v-46q-22 -5 -42 -5q-125 0 -125 140z" />
    <glyph glyph-name="Lslash" unicode="&#x141;" horiz-adv-x="490" 
d="M96 0v298l-67 -38v52l67 38v347h52v-318l141 83v-53l-141 -82v-279h300v-48h-352z" />
    <glyph glyph-name="lslash" unicode="&#x142;" horiz-adv-x="274" 
d="M76 127v203l-68 -40v52l68 40v315h48v-286l86 51v-52l-86 -51v-229q0 -49 18.5 -72.5t58.5 -23.5q25 0 42 4v-46q-22 -5 -42 -5q-125 0 -125 140z" />
    <glyph glyph-name="Nacute" unicode="&#x143;" horiz-adv-x="733" 
d="M328 745l59 145h66l-85 -145h-40zM96 0v697h45l444 -603v603h52v-697h-43l-446 607v-607h-52z" />
    <glyph glyph-name="nacute" unicode="&#x144;" horiz-adv-x="561" 
d="M243 552l60 145h65l-85 -145h-40zM61 0v504h50v-97q43 105 173 105q86 0 138.5 -55t52.5 -146v-212q0 -31 8.5 -44t30.5 -13l21 2v-42q-12 -5 -29 -5q-35 0 -58 23t-23 75v206q0 75 -42 119.5t-110 44.5q-27 0 -55 -9.5t-51.5 -32t-39.5 -61t-16 -91.5v-271h-50z" />
    <glyph glyph-name="Ncommaaccent" unicode="&#x145;" horiz-adv-x="733" 
d="M288 -193l60 145h65l-85 -145h-40zM96 0v697h45l444 -603v603h52v-697h-43l-446 607v-607h-52z" />
    <glyph glyph-name="ncommaaccent" unicode="&#x146;" horiz-adv-x="561" 
d="M245 -48h65l-85 -145h-40zM61 0v504h50v-97q43 105 173 105q86 0 138.5 -55t52.5 -146v-212q0 -31 8.5 -44t30.5 -13l21 2v-42q-12 -5 -29 -5q-35 0 -58 23t-23 75v206q0 75 -42 119.5t-110 44.5q-27 0 -55 -9.5t-51.5 -32t-39.5 -61t-16 -91.5v-271h-50z" />
    <glyph glyph-name="Ncaron" unicode="&#x147;" horiz-adv-x="733" 
d="M96 0v697h45l444 -603v603h52v-697h-43l-446 607v-607h-52zM345 767l-130 123h63l88 -85l88 85h62l-129 -123h-42z" />
    <glyph glyph-name="ncaron" unicode="&#x148;" horiz-adv-x="561" 
d="M258 574l-130 123h63l88 -85l88 85h62l-129 -123h-42zM61 0v504h50v-97q43 105 173 105q86 0 138.5 -55t52.5 -146v-212q0 -31 8.5 -44t30.5 -13l21 2v-42q-12 -5 -29 -5q-35 0 -58 23t-23 75v206q0 75 -42 119.5t-110 44.5q-27 0 -55 -9.5t-51.5 -32t-39.5 -61
t-16 -91.5v-271h-50z" />
    <glyph glyph-name="Eng" unicode="&#x14a;" horiz-adv-x="733" 
d="M96 0v697h46l443 -614v614h52v-706q0 -110 -38 -153t-112 -43q-31 0 -57 9v50q23 -10 57 -10q50 0 74 34t24 113v10l-437 606v-607h-52z" />
    <glyph glyph-name="eng" unicode="&#x14b;" horiz-adv-x="531" 
d="M61 0v504h50v-97q19 48 61 76.5t111 28.5q86 0 138 -55t52 -146v-381q0 -136 -128 -136q-21 0 -33 3v47q18 -3 38 -3q38 0 55.5 21t17.5 68v371q0 76 -41.5 120.5t-109.5 44.5q-27 0 -55 -9.5t-51.5 -32.5t-39 -61t-15.5 -92v-271h-50z" />
    <glyph glyph-name="Omacron" unicode="&#x14c;" horiz-adv-x="822" 
d="M264 770v46h294v-46h-294zM51 348q0 75 27.5 142t77 116t116 76t139.5 27t139 -27t115.5 -76t77.5 -116t28 -142t-28 -141.5t-77.5 -115.5t-115.5 -76t-139 -27t-139.5 27t-116 76t-77 115.5t-27.5 141.5zM102 348q0 -64 23 -121.5t65 -100t99.5 -66t121.5 -23.5
t121 23.5t98.5 66t64.5 100t23 121.5t-23.5 122t-65 100.5t-98.5 66t-120 23.5q-64 0 -121 -23.5t-99 -66t-65.5 -100.5t-23.5 -122z" />
    <glyph glyph-name="omacron" unicode="&#x14d;" horiz-adv-x="606" 
d="M157 607v47h294v-47h-294zM38 252q0 55 20.5 104t57 85t85 56t102.5 20t102.5 -20t85 -56t57 -85t20.5 -104t-20.5 -104t-57 -85t-85 -56t-102.5 -20t-102.5 20t-85 56t-57 85t-20.5 104zM88 252q0 -45 16 -85.5t45.5 -70t69 -46t84.5 -16.5t84.5 16.5t69 46t45.5 70
t16 85.5t-16 85.5t-45.5 70t-69 46t-84.5 16.5t-84.5 -16.5t-69 -46t-45.5 -70t-16 -85.5z" />
    <glyph glyph-name="Obreve" unicode="&#x14e;" horiz-adv-x="822" 
d="M411 751q-23 0 -52.5 10.5t-52.5 39.5t-28 68h47q10 -35 32 -54t54 -19t54 19t32 54h47q-3 -20 -11.5 -40.5t-25 -37.5t-41 -28.5t-55.5 -11.5zM51 348q0 75 27.5 142t77 116t116 76t139.5 27t139 -27t115.5 -76t77.5 -116t28 -142t-28 -141.5t-77.5 -115.5t-115.5 -76
t-139 -27t-139.5 27t-116 76t-77 115.5t-27.5 141.5zM102 348q0 -64 23 -121.5t65 -100t99.5 -66t121.5 -23.5t121 23.5t98.5 66t64.5 100t23 121.5t-23.5 122t-65 100.5t-98.5 66t-120 23.5q-64 0 -121 -23.5t-99 -66t-65.5 -100.5t-23.5 -122z" />
    <glyph glyph-name="obreve" unicode="&#x14f;" horiz-adv-x="606" 
d="M303 579q-23 0 -52.5 10.5t-52.5 39.5t-28 68h47q10 -35 32 -54t54 -19t54 19t32 54h47q-3 -25 -18 -53t-46.5 -46.5t-68.5 -18.5zM38 252q0 55 20.5 104t57 85t85 56t102.5 20t102.5 -20t85 -56t57 -85t20.5 -104t-20.5 -104t-57 -85t-85 -56t-102.5 -20t-102.5 20
t-85 56t-57 85t-20.5 104zM88 252q0 -45 16 -85.5t45.5 -70t69 -46t84.5 -16.5t84.5 16.5t69 46t45.5 70t16 85.5t-16 85.5t-45.5 70t-69 46t-84.5 16.5t-84.5 -16.5t-69 -46t-45.5 -70t-16 -85.5z" />
    <glyph glyph-name="Ohungarumlaut" unicode="&#x150;" horiz-adv-x="822" 
d="M464 745l71 145h64l-96 -145h-39zM310 745l71 145h64l-96 -145h-39zM51 348q0 75 27.5 142t77 116t116 76t139.5 27t139 -27t115.5 -76t77.5 -116t28 -142t-28 -141.5t-77.5 -115.5t-115.5 -76t-139 -27t-139.5 27t-116 76t-77 115.5t-27.5 141.5zM102 348
q0 -64 23 -121.5t65 -100t99.5 -66t121.5 -23.5t121 23.5t98.5 66t64.5 100t23 121.5t-23.5 122t-65 100.5t-98.5 66t-120 23.5q-64 0 -121 -23.5t-99 -66t-65.5 -100.5t-23.5 -122z" />
    <glyph glyph-name="ohungarumlaut" unicode="&#x151;" horiz-adv-x="606" 
d="M359 552l70 145h64l-96 -145h-38zM205 552l70 145h64l-96 -145h-38zM38 252q0 55 20.5 104t57 85t85 56t102.5 20t102.5 -20t85 -56t57 -85t20.5 -104t-20.5 -104t-57 -85t-85 -56t-102.5 -20t-102.5 20t-85 56t-57 85t-20.5 104zM88 252q0 -45 16 -85.5t45.5 -70t69 -46
t84.5 -16.5t84.5 16.5t69 46t45.5 70t16 85.5t-16 85.5t-45.5 70t-69 46t-84.5 16.5t-84.5 -16.5t-69 -46t-45.5 -70t-16 -85.5z" />
    <glyph glyph-name="OE" unicode="&#x152;" horiz-adv-x="1112" 
d="M51 348q0 75 27.5 142t77 116t115.5 76t139 27q104 0 184.5 -49t117.5 -129v166h333v-48h-281v-256h262v-49h-262v-296h288v-48h-340v168q-36 -82 -116.5 -131t-185.5 -49q-73 0 -139 27t-115.5 76t-77 115.5t-27.5 141.5zM102 348q0 -64 23 -121.5t65 -100t99 -66
t121 -23.5q63 0 119.5 23.5t97.5 66t64 100t23 121.5t-23 122t-64 100.5t-97.5 66t-119.5 23.5t-120 -23.5t-99 -66t-65.5 -100.5t-23.5 -122z" />
    <glyph glyph-name="oe" unicode="&#x153;" horiz-adv-x="1036" 
d="M38 252q0 41 13.5 86t50.5 89.5t91.5 67t108.5 22.5q81 0 145 -43.5t92 -115.5q27 72 87 115.5t135 43.5q49 0 94.5 -20t79 -55.5t52.5 -84t19 -101.5l-1 -15h-441q2 -91 58 -148t143 -57q53 0 98.5 19.5t76.5 53.5l34 -35q-39 -42 -94 -64.5t-115 -22.5q-81 0 -141 42
t-86 114q-29 -71 -92 -113.5t-144 -42.5q-40 0 -84.5 13.5t-89 50t-67.5 91.5t-23 110zM568 285h385q-8 80 -62.5 132.5t-129.5 52.5q-47 0 -91 -23.5t-70.5 -68t-31.5 -93.5zM88 252q0 -45 16 -85.5t45.5 -70t69 -46t83.5 -16.5q45 0 84.5 16.5t68.5 46t45 70t16 85.5
t-16 85.5t-45 70t-68.5 46t-84.5 16.5q-44 0 -83.5 -16.5t-69 -46t-45.5 -70t-16 -85.5z" />
    <glyph glyph-name="Racute" unicode="&#x154;" horiz-adv-x="591" 
d="M255 745l60 145h65l-84 -145h-41zM96 0v697h223q20 0 50.5 -6t63.5 -27.5t52.5 -49.5t28.5 -57.5t9 -60.5q0 -50 -22 -93t-54.5 -67t-61.5 -33l170 -303h-60l-162 292h-23h-162v-292h-52zM148 340h166q67 0 112 44.5t45 111.5q0 64 -44.5 108.5t-109.5 44.5h-169v-309z
" />
    <glyph glyph-name="racute" unicode="&#x155;" horiz-adv-x="343" 
d="M136 552l59 145h66l-85 -145h-40zM282 512l24 -1v-52l-32 2q-49 0 -85 -22t-57 -63.5t-21 -99.5v-276h-50v504h50v-101q17 49 59.5 79t111.5 30z" />
    <glyph glyph-name="Rcommaaccent" unicode="&#x156;" horiz-adv-x="591" 
d="M96 0v697h223q20 0 50.5 -6t63.5 -27.5t52.5 -49.5t28.5 -57.5t9 -60.5q0 -50 -22 -93t-54.5 -67t-61.5 -33l170 -303h-60l-162 292h-23h-162v-292h-52zM148 340h166q67 0 112 44.5t45 111.5q0 64 -44.5 108.5t-109.5 44.5h-169v-309zM287 -48h65l-85 -145h-40z" />
    <glyph glyph-name="rcommaaccent" unicode="&#x157;" horiz-adv-x="343" 
d="M62 -48h65l-85 -145h-40zM282 512l24 -1v-52l-32 2q-49 0 -85 -22t-57 -63.5t-21 -99.5v-276h-50v504h50v-101q17 49 59.5 79t111.5 30z" />
    <glyph glyph-name="Rcaron" unicode="&#x158;" horiz-adv-x="591" 
d="M96 0v697h223q20 0 50.5 -6t63.5 -27.5t52.5 -49.5t28.5 -57.5t9 -60.5q0 -50 -22 -93t-54.5 -67t-61.5 -33l170 -303h-60l-162 292h-23h-162v-292h-52zM148 340h166q67 0 112 44.5t45 111.5q0 64 -44.5 108.5t-109.5 44.5h-169v-309zM272 767l-130 123h63l88 -85l88 85
h62l-129 -123h-42z" />
    <glyph glyph-name="rcaron" unicode="&#x159;" horiz-adv-x="343" 
d="M162 574l-130 123h63l88 -85l88 85h62l-129 -123h-42zM283 512l24 -1v-52l-32 2q-49 0 -85 -22t-57 -63.5t-21 -99.5v-276h-50v504h50v-101q17 49 59.5 79t111.5 30z" />
    <glyph glyph-name="Sacute" unicode="&#x15a;" horiz-adv-x="546" 
d="M249 745l60 145h66l-85 -145h-41zM44 155l45 21q26 -65 76.5 -102.5t119.5 -37.5q33 0 63 8.5t51.5 27.5t33 45.5t11.5 57.5q0 33 -12 60.5t-43.5 52.5t-111.5 60q-105 45 -142.5 87t-37.5 108q0 26 9 54t30.5 53t57 42t82.5 17q123 0 178 -102l-45 -23q-41 77 -133 77
q-54 0 -90.5 -32.5t-36.5 -83.5t30.5 -82t122.5 -71q80 -36 118 -63.5t57 -64t19 -89.5q0 -83 -56 -135t-155 -52q-84 0 -147 42.5t-94 124.5z" />
    <glyph glyph-name="sacute" unicode="&#x15b;" horiz-adv-x="404" 
d="M167 552l60 145h65l-85 -145h-40zM22 111l42 16q11 -30 34.5 -52t53.5 -30.5t57 -8.5q60 0 89.5 27t29.5 65q0 21 -10.5 42t-38 38t-80.5 39q-83 35 -108.5 68.5t-25.5 77.5q0 27 13 55t48 48.5t78 20.5q46 0 80.5 -20.5t54.5 -58.5l-41 -21q-30 53 -93 53
q-38 0 -64 -21.5t-26 -55.5q0 -29 20.5 -53t94.5 -54q77 -31 112.5 -66t35.5 -92q0 -58 -44.5 -98.5t-124.5 -40.5q-69 0 -119 32.5t-68 89.5z" />
    <glyph glyph-name="Scircumflex" unicode="&#x15c;" horiz-adv-x="546" 
d="M134 769l130 123h42l130 -123h-63l-88 85l-89 -85h-62zM44 155l45 21q26 -65 76.5 -102.5t119.5 -37.5q33 0 63 8.5t51.5 27.5t33 45.5t11.5 57.5q0 33 -12 60.5t-43.5 52.5t-111.5 60q-105 45 -142.5 87t-37.5 108q0 26 9 54t30.5 53t57 42t82.5 17q123 0 178 -102
l-45 -23q-41 77 -133 77q-54 0 -90.5 -32.5t-36.5 -83.5t30.5 -82t122.5 -71q80 -36 118 -63.5t57 -64t19 -89.5q0 -83 -56 -135t-155 -52q-84 0 -147 42.5t-94 124.5z" />
    <glyph glyph-name="scircumflex" unicode="&#x15d;" horiz-adv-x="404" 
d="M60 576l129 123h42l130 -123h-63l-88 85l-88 -85h-62zM22 111l42 16q11 -30 34.5 -52t53.5 -30.5t57 -8.5q60 0 89.5 27t29.5 65q0 21 -10.5 42t-38 38t-80.5 39q-83 35 -108.5 68.5t-25.5 77.5q0 27 13 55t48 48.5t78 20.5q46 0 80.5 -20.5t54.5 -58.5l-41 -21
q-30 53 -93 53q-38 0 -64 -21.5t-26 -55.5q0 -29 20.5 -53t94.5 -54q77 -31 112.5 -66t35.5 -92q0 -58 -44.5 -98.5t-124.5 -40.5q-69 0 -119 32.5t-68 89.5z" />
    <glyph glyph-name="Scedilla" unicode="&#x15e;" horiz-adv-x="546" 
d="M289 -12l-19 -43h6q25 0 42.5 -17.5t17.5 -44.5q0 -33 -22.5 -50t-60.5 -17q-18 0 -36.5 6.5t-29.5 15.5l15 28q26 -17 50 -17q18 0 30 9t12 24q0 40 -58 40l-15 -1l30 69q-72 8 -126 50t-81 115l45 21q26 -65 76.5 -102.5t119.5 -37.5q33 0 63 8.5t51.5 27.5t33 45.5
t11.5 57.5q0 33 -12 60.5t-43.5 52.5t-111.5 60q-105 45 -142.5 87t-37.5 108q0 26 9 54t30.5 53t57 42t82.5 17q123 0 178 -102l-45 -23q-41 77 -133 77q-54 0 -90.5 -32.5t-36.5 -83.5t30.5 -82t122.5 -71q80 -36 118 -63.5t57 -64t19 -89.5q0 -29 -9 -61t-36 -63
t-70.5 -46.5t-91.5 -16.5z" />
    <glyph glyph-name="scedilla" unicode="&#x15f;" horiz-adv-x="404" 
d="M220 -11l-21 -43h6q25 0 43 -17.5t18 -44.5q0 -33 -23 -50t-61 -17q-18 0 -36.5 6.5t-29.5 15.5l15 28q26 -17 50 -17q18 0 30.5 9.5t12.5 23.5q0 40 -59 40l-15 -1l30 69q-36 4 -66.5 17.5t-55 38.5t-36.5 64l42 16q11 -30 34.5 -52t53.5 -30.5t57 -8.5q60 0 89.5 27
t29.5 65q0 21 -10.5 42t-38 38t-80.5 39q-83 35 -108.5 68.5t-25.5 77.5q0 27 13 55t48 48.5t78 20.5q46 0 80.5 -20.5t54.5 -58.5l-41 -21q-30 53 -93 53q-38 0 -64 -21.5t-26 -55.5q0 -29 20.5 -53t94.5 -54q77 -31 112.5 -66t35.5 -92q0 -10 -5 -35t-24 -48t-50.5 -38.5
t-78.5 -17.5z" />
    <glyph glyph-name="Scaron" unicode="&#x160;" horiz-adv-x="546" 
d="M264 767l-130 123h63l88 -85l88 85h62l-129 -123h-42zM44 155l45 21q26 -65 76.5 -102.5t119.5 -37.5q33 0 63 8.5t51.5 27.5t33 45.5t11.5 57.5q0 33 -12 60.5t-43.5 52.5t-111.5 60q-105 45 -142.5 87t-37.5 108q0 26 9 54t30.5 53t57 42t82.5 17q123 0 178 -102
l-45 -23q-41 77 -133 77q-54 0 -90.5 -32.5t-36.5 -83.5t30.5 -82t122.5 -71q80 -36 118 -63.5t57 -64t19 -89.5q0 -83 -56 -135t-155 -52q-84 0 -147 42.5t-94 124.5z" />
    <glyph glyph-name="scaron" unicode="&#x161;" horiz-adv-x="404" 
d="M190 574l-130 123h63l88 -85l88 85h62l-129 -123h-42zM22 111l42 16q11 -30 34.5 -52t53.5 -30.5t57 -8.5q60 0 89.5 27t29.5 65q0 21 -10.5 42t-38 38t-80.5 39q-83 35 -108.5 68.5t-25.5 77.5q0 27 13 55t48 48.5t78 20.5q46 0 80.5 -20.5t54.5 -58.5l-41 -21
q-30 53 -93 53q-38 0 -64 -21.5t-26 -55.5q0 -29 20.5 -53t94.5 -54q77 -31 112.5 -66t35.5 -92q0 -58 -44.5 -98.5t-124.5 -40.5q-69 0 -119 32.5t-68 89.5z" />
    <glyph glyph-name="Tcommaaccent" unicode="&#x162;" horiz-adv-x="525" 
d="M236 0v649h-202v48h457v-48h-203v-649h-52zM230 -48h65l-84 -145h-41z" />
    <glyph glyph-name="tcommaaccent" unicode="&#x163;" horiz-adv-x="315" 
d="M133 -48h66l-85 -145h-40zM93 140v317h-59v47h59v193h50v-193h140v-47h-140v-317q0 -57 21 -82t67 -25q30 0 52 5v-45q-24 -6 -50 -6q-73 0 -106.5 38t-33.5 115z" />
    <glyph glyph-name="Tcaron" unicode="&#x164;" horiz-adv-x="525" 
d="M236 0v649h-202v48h457v-48h-203v-649h-52zM241 767l-130 123h63l88 -85l88 85h62l-129 -123h-42z" />
    <glyph glyph-name="tcaron" unicode="&#x165;" horiz-adv-x="338" 
d="M207 552l60 145h65l-85 -145h-40zM93 140v317h-59v47h59v193h50v-193h140v-47h-140v-317q0 -57 21 -82t67 -25q30 0 52 5v-45q-24 -6 -50 -6q-73 0 -106.5 38t-33.5 115z" />
    <glyph glyph-name="Tbar" unicode="&#x166;" horiz-adv-x="525" 
d="M236 0v383h-120v47h120v219h-202v48h457v-48h-203v-219h122v-47h-122v-383h-52z" />
    <glyph glyph-name="tbar" unicode="&#x167;" horiz-adv-x="317" 
d="M93 140v176h-59v47h59v94h-59v47h59v193h50v-193h140v-47h-140v-94h140v-47h-140v-176q0 -57 21 -82t67 -25q30 0 52 5v-45q-24 -6 -50 -6q-73 0 -106.5 38t-33.5 115z" />
    <glyph glyph-name="Utilde" unicode="&#x168;" horiz-adv-x="677" 
d="M194 768q5 34 27 56.5t54 22.5q28 0 66.5 -22t58.5 -22q41 0 51 47l33 -3q-5 -40 -26 -63t-56 -23q-29 0 -62.5 19t-45.5 22t-18 3q-18 0 -31.5 -10.5t-17.5 -29.5zM91 233v464h52v-459q0 -96 52.5 -148t143.5 -52t143.5 52t52.5 148v459h52v-464q0 -57 -18 -103
t-51.5 -77t-79 -47t-99.5 -16t-99.5 16t-79 47t-51.5 77t-18 103z" />
    <glyph glyph-name="utilde" unicode="&#x169;" horiz-adv-x="553" 
d="M119 601q4 34 26 56.5t55 22.5q28 0 66.5 -22t58.5 -22q41 0 51 46l33 -2q-5 -40 -26 -63t-56 -23q-30 0 -63 19t-45 22t-18 3q-18 0 -31.5 -10.5t-17.5 -29.5zM55 193v311h50v-301q0 -75 40.5 -119.5t108.5 -44.5q73 0 116.5 50.5t43.5 132.5v282h50v-407q0 -32 10 -47
t32 -15q18 0 28 3v-39q-16 -7 -42 -7q-20 0 -39 11.5t-27.5 33.5t-8.5 45v14q-16 -44 -62 -74t-113 -30q-84 0 -135.5 55t-51.5 146z" />
    <glyph glyph-name="Umacron" unicode="&#x16a;" horiz-adv-x="677" 
d="M192 770v46h294v-46h-294zM91 233v464h52v-459q0 -96 52.5 -148t143.5 -52t143.5 52t52.5 148v459h52v-464q0 -57 -18 -103t-51.5 -77t-79 -47t-99.5 -16t-99.5 16t-79 47t-51.5 77t-18 103z" />
    <glyph glyph-name="umacron" unicode="&#x16b;" horiz-adv-x="553" 
d="M116 607v47h294v-47h-294zM55 193v311h50v-301q0 -75 40.5 -119.5t108.5 -44.5q73 0 116.5 50.5t43.5 132.5v282h50v-407q0 -32 10 -47t32 -15q18 0 28 3v-39q-16 -7 -42 -7q-20 0 -39 11.5t-27.5 33.5t-8.5 45v14q-16 -44 -62 -74t-113 -30q-84 0 -135.5 55t-51.5 146z
" />
    <glyph glyph-name="Ubreve" unicode="&#x16c;" horiz-adv-x="677" 
d="M339 751q-23 0 -52.5 10.5t-52.5 39.5t-28 68h47q10 -35 32 -54t54 -19t54 19t32 54h47q-3 -20 -11.5 -40.5t-25 -37.5t-41 -28.5t-55.5 -11.5zM91 233v464h52v-459q0 -96 52.5 -148t143.5 -52t143.5 52t52.5 148v459h52v-464q0 -57 -18 -103t-51.5 -77t-79 -47
t-99.5 -16t-99.5 16t-79 47t-51.5 77t-18 103z" />
    <glyph glyph-name="ubreve" unicode="&#x16d;" horiz-adv-x="553" 
d="M263 579q-23 0 -52.5 10.5t-52.5 39.5t-28 68h47q10 -35 32 -54t54 -19t54 19t32 54h47q-3 -25 -18 -53t-46.5 -46.5t-68.5 -18.5zM55 193v311h50v-301q0 -75 40.5 -119.5t108.5 -44.5q73 0 116.5 50.5t43.5 132.5v282h50v-407q0 -32 10 -47t32 -15q18 0 28 3v-39
q-16 -7 -42 -7q-20 0 -39 11.5t-27.5 33.5t-8.5 45v14q-16 -44 -62 -74t-113 -30q-84 0 -135.5 55t-51.5 146z" />
    <glyph glyph-name="Uring" unicode="&#x16e;" horiz-adv-x="677" 
d="M339 709q-24 0 -45 14t-29 33t-8 34t8 34t29 33t45 14t45 -14t29 -33t8 -34t-8 -34t-28.5 -33t-45.5 -14zM339 745q18 0 31.5 13.5t13.5 31.5t-13.5 31t-31.5 13q-17 0 -30.5 -13t-13.5 -31t13.5 -31.5t30.5 -13.5zM91 233v464h52v-459q0 -96 52.5 -148t143.5 -52
t143.5 52t52.5 148v459h52v-464q0 -57 -18 -103t-51.5 -77t-79 -47t-99.5 -16t-99.5 16t-79 47t-51.5 77t-18 103z" />
    <glyph glyph-name="uring" unicode="&#x16f;" horiz-adv-x="553" 
d="M263 536q-33 0 -57.5 24.5t-24.5 57.5q0 15 8 34t29 33t45 14q33 0 57 -24t24 -57t-24 -57.5t-57 -24.5zM263 573q18 0 31 13.5t13 31.5t-13 31t-31 13t-31.5 -13t-13.5 -31t13.5 -31.5t31.5 -13.5zM55 193v311h50v-301q0 -75 40.5 -119.5t108.5 -44.5q73 0 116.5 50.5
t43.5 132.5v282h50v-407q0 -32 10 -47t32 -15q18 0 28 3v-39q-16 -7 -42 -7q-20 0 -39 11.5t-27.5 33.5t-8.5 45v14q-16 -44 -62 -74t-113 -30q-84 0 -135.5 55t-51.5 146z" />
    <glyph glyph-name="Uhungarumlaut" unicode="&#x170;" horiz-adv-x="677" 
d="M392 745l70 145h64l-96 -145h-38zM238 745l70 145h64l-96 -145h-38zM91 233v464h52v-459q0 -96 52.5 -148t143.5 -52t143.5 52t52.5 148v459h52v-464q0 -57 -18 -103t-51.5 -77t-79 -47t-99.5 -16t-99.5 16t-79 47t-51.5 77t-18 103z" />
    <glyph glyph-name="uhungarumlaut" unicode="&#x171;" horiz-adv-x="553" 
d="M312 552l71 145h63l-96 -145h-38zM162 552l70 145h64l-96 -145h-38zM55 193v311h50v-301q0 -75 40.5 -119.5t108.5 -44.5q73 0 116.5 50.5t43.5 132.5v282h50v-407q0 -32 10 -47t32 -15q18 0 28 3v-39q-16 -7 -42 -7q-20 0 -39 11.5t-27.5 33.5t-8.5 45v14
q-16 -44 -62 -74t-113 -30q-84 0 -135.5 55t-51.5 146z" />
    <glyph glyph-name="Uogonek" unicode="&#x172;" horiz-adv-x="677" 
d="M91 233v464h52v-459q0 -96 52.5 -148t143.5 -52t143.5 52t52.5 148v459h52v-463q0 -70 -26 -121.5t-73 -81.5q-4 -2 -24.5 -14.5t-36 -23t-33 -25.5t-27.5 -33.5t-10 -35.5q0 -23 15.5 -36t37.5 -13q34 0 59 15l-9 -43q-26 -13 -58 -13q-17 0 -37.5 7.5t-35.5 27.5
t-15 46q0 32 20 59.5t51 45.5q-20 -5 -48 -5q-53 0 -98.5 16t-78.5 47t-51 77t-18 103z" />
    <glyph glyph-name="uogonek" unicode="&#x173;" horiz-adv-x="553" 
d="M55 193v311h50v-301q0 -76 40.5 -120.5t108.5 -44.5q73 0 116.5 50.5t43.5 133.5v282h50v-407q0 -32 10 -47t32 -15q18 0 28 3v-39q-32 -12 -58 -30t-36 -36t-10 -32q0 -23 15.5 -36t37.5 -13q33 0 59 15l-10 -42q-26 -14 -57 -14q-17 0 -38 7.5t-36 27t-15 46.5
q0 33 23 61t58 43q-22 7 -36 28.5t-14 57.5v14q-16 -44 -62 -74t-113 -30q-84 0 -135.5 55t-51.5 146z" />
    <glyph glyph-name="Wcircumflex" unicode="&#x174;" horiz-adv-x="922" 
d="M310 769l130 123h42l130 -123h-63l-88 85l-89 -85h-62zM240 0l-209 697h52l178 -586l181 586h38l181 -586l177 586h53l-209 -697h-36l-185 593l-185 -593h-36z" />
    <glyph glyph-name="wcircumflex" unicode="&#x175;" horiz-adv-x="748" 
d="M224 576l129 123h42l130 -123h-63l-88 85l-88 -85h-62zM200 0l-181 504h51l146 -411l140 411h36l139 -411l146 411h52l-181 -504h-34l-140 414l-140 -414h-34z" />
    <glyph glyph-name="Ycircumflex" unicode="&#x176;" horiz-adv-x="598" 
d="M148 769l130 123h42l130 -123h-63l-88 85l-89 -85h-62zM325 294v-294h-52v294l-243 403h58l211 -351l211 351h58z" />
    <glyph glyph-name="ycircumflex" unicode="&#x177;" horiz-adv-x="490" 
d="M94 576l130 123h42l129 -123h-62l-88 85l-89 -85h-62zM189 -78l30 75l-200 507h52l173 -442l176 442h53l-238 -593q-24 -60 -51 -86q-16 -15 -38.5 -23.5t-45.5 -8.5q-27 0 -46 8v46q19 -7 46 -7q32 0 54 22q19 19 35 60z" />
    <glyph glyph-name="Ydieresis" unicode="&#x178;" horiz-adv-x="598" 
d="M402 756q-13 0 -24.5 10t-11.5 26q0 15 11.5 25t24.5 10t24.5 -10t11.5 -25q0 -16 -11.5 -26t-24.5 -10zM197 756q-13 0 -24.5 10t-11.5 26q0 15 11.5 25t24.5 10q12 0 24 -10t12 -25q0 -16 -11.5 -26t-24.5 -10zM325 294v-294h-52v294l-243 403h58l211 -351l211 351h58z
" />
    <glyph glyph-name="Zacute" unicode="&#x179;" horiz-adv-x="621" 
d="M303 745l60 145h66l-85 -145h-41zM36 0v33l466 616h-414v48h484v-35l-463 -614h464v-48h-537z" />
    <glyph glyph-name="zacute" unicode="&#x17a;" horiz-adv-x="493" 
d="M211 552l60 145h65l-84 -145h-41zM22 0v30l344 427h-305v47h376v-34l-342 -423h352v-47h-425z" />
    <glyph glyph-name="Zdotaccent" unicode="&#x17b;" horiz-adv-x="621" 
d="M333 768q-13 0 -24.5 10.5t-11.5 25.5q0 16 11.5 26t24.5 10t24.5 -10t11.5 -26q0 -15 -12 -25.5t-24 -10.5zM36 0v33l466 616h-414v48h484v-35l-463 -614h464v-48h-537z" />
    <glyph glyph-name="zdotaccent" unicode="&#x17c;" horiz-adv-x="493" 
d="M258 602q-13 0 -24.5 10t-11.5 26q0 15 11.5 25.5t24.5 10.5t24.5 -10.5t11.5 -25.5q0 -16 -11.5 -26t-24.5 -10zM22 0v30l344 427h-305v47h376v-34l-342 -423h352v-47h-425z" />
    <glyph glyph-name="Zcaron" unicode="&#x17d;" horiz-adv-x="621" 
d="M315 767l-130 123h63l88 -85l88 85h62l-129 -123h-42zM36 0v33l466 616h-414v48h484v-35l-463 -614h464v-48h-537z" />
    <glyph glyph-name="zcaron" unicode="&#x17e;" horiz-adv-x="493" 
d="M233 574l-130 123h63l88 -85l88 85h62l-129 -123h-42zM22 0v30l344 427h-305v47h376v-34l-342 -423h352v-47h-425z" />
    <glyph glyph-name="florin" unicode="&#x192;" horiz-adv-x="362" 
d="M28 -101l103 487h-76l8 43h77l26 124q17 79 57.5 118t111.5 39q22 0 43 -3l-9 -46q-19 2 -46 2q-44 0 -69.5 -25.5t-36.5 -78.5l-27 -130h110l-8 -43h-111l-104 -487h-49z" />
    <glyph glyph-name="Aringacute" unicode="&#x1fa;" horiz-adv-x="673" 
d="M321 883l60 145h65l-84 -145h-41zM35 0l283 680q-27 6 -45 28.5t-18 50.5q0 15 8 34t29 33t45 14q33 0 57 -24t24 -57q0 -29 -18 -51t-46 -28l283 -680h-55l-79 190h-334l-80 -190h-54zM337 714q17 0 30.5 13.5t13.5 31.5t-13.5 31t-30.5 13q-18 0 -31.5 -13t-13.5 -31
t13.5 -31.5t31.5 -13.5zM190 238h293l-147 360z" />
    <glyph glyph-name="aringacute" unicode="&#x1fb;" horiz-adv-x="635" 
d="M280 761l60 145h65l-85 -145h-40zM301 561q-33 0 -57.5 24.5t-24.5 57.5q0 32 24.5 56.5t57.5 24.5t57 -24.5t24 -56.5q0 -33 -24 -57.5t-57 -24.5zM301 598q18 0 31 13.5t13 31.5t-13 31t-31 13t-31.5 -13t-13.5 -31t13.5 -31.5t31.5 -13.5zM39 252q0 55 19.5 104
t54.5 85t81.5 56t98.5 20q53 0 99 -20.5t69.5 -48t31.5 -49.5v105h50v-410q0 -32 9.5 -46.5t32.5 -14.5q18 0 28 3v-39q-15 -7 -42 -7q-29 0 -47 15.5t-23.5 38.5t-5.5 43v17q-25 -52 -78 -84.5t-124 -32.5q-52 0 -98.5 20t-81.5 56t-54.5 85t-19.5 104zM89 252
q0 -45 13.5 -80.5t35 -63.5t62 -51t93.5 -23q43 0 80.5 16t65.5 45.5t43.5 70t15.5 86.5t-15.5 86.5t-43.5 70t-65.5 45.5t-80.5 16q-32 0 -66.5 -11t-65 -38t-51.5 -70t-21 -99z" />
    <glyph glyph-name="AEacute" unicode="&#x1fc;" horiz-adv-x="922" 
d="M509 745l60 145h65l-84 -145h-41zM2 0l535 697h319v-48h-281v-256h262v-49h-262v-296h288v-48h-340v183h-318l-141 -183h-62zM241 231h282v367z" />
    <glyph glyph-name="aeacute" unicode="&#x1fd;" horiz-adv-x="1023" 
d="M495 552l59 145h66l-85 -145h-40zM39 252q0 55 19.5 104t54.5 85t82 56t98 20q37 0 78.5 -12t75.5 -41.5t46 -64.5v105h50v-114q12 26 39 56t72 50.5t93 20.5t92 -20t76.5 -55.5t51 -83.5t18.5 -101l-1 -16h-434q2 -91 57.5 -149t141.5 -58q53 0 93.5 19t75.5 56l33 -33
q-80 -89 -202 -89q-51 0 -96 18.5t-71.5 47t-38.5 53.5v-106h-50v105q-12 -35 -43 -62t-71 -41.5t-86 -14.5q-52 0 -98.5 20t-81.5 56t-54.5 85t-19.5 104zM89 252q0 -45 15.5 -85.5t43 -70t65.5 -46t80 -16.5q43 0 81 16t66 45.5t43.5 70t15.5 86.5t-15.5 86.5t-43.5 70
t-66 45.5t-81 16q-31 0 -65.5 -11t-69 -41.5t-52 -75.5t-17.5 -90zM554 286h378q-6 59 -34.5 100.5t-67.5 62.5t-83 21q-47 0 -87.5 -21t-70 -62.5t-35.5 -100.5z" />
    <glyph glyph-name="Oslashacute" unicode="&#x1fe;" horiz-adv-x="821" 
d="M389 745l60 145h65l-85 -145h-40zM123 -6l56 75q-60 50 -94 122t-34 157q0 75 27.5 142t77 116t116 76t139.5 27q55 0 107 -16t95 -45l59 79l38 -29l-59 -79q56 -49 88 -120t32 -151q0 -75 -28 -141.5t-77.5 -115.5t-115.5 -76t-139 -27q-108 0 -193 54l-57 -76zM208 108
l376 500q-77 52 -173 52q-64 0 -121 -23.5t-99 -66t-65.5 -100.5t-23.5 -122q0 -72 28.5 -135t77.5 -105zM247 81q74 -44 164 -44q64 0 121 23.5t98.5 66t64.5 100t23 121.5q0 67 -26 127.5t-71 103.5z" />
    <glyph glyph-name="oslashacute" unicode="&#x1ff;" horiz-adv-x="606" 
d="M287 552l60 145h65l-85 -145h-40zM88 -6l41 56q-43 36 -67 89t-24 113q0 55 20.5 104t57 85t85 56t102.5 20q39 0 75.5 -11t64.5 -28l39 52l36 -26l-39 -52q41 -36 65 -88.5t24 -111.5q0 -55 -20.5 -104t-57 -85t-85 -56t-102.5 -20q-34 0 -71 10t-66 27l-42 -57zM158 89
l257 350q-23 14 -53 22.5t-59 8.5q-45 0 -84.5 -16.5t-69 -46t-45.5 -70t-16 -85.5q0 -48 19 -91t51 -72zM194 63q22 -13 51.5 -21t57.5 -8q45 0 84.5 16.5t69 46t45.5 70t16 85.5q0 47 -18 89t-49 71z" />
    <glyph glyph-name="Scommaaccent" unicode="&#x218;" horiz-adv-x="546" 
d="M186 -193l60 145h65l-85 -145h-40zM44 155l45 21q26 -65 76.5 -102.5t119.5 -37.5q33 0 63 8.5t51.5 27.5t33 45.5t11.5 57.5q0 33 -12 60.5t-43.5 52.5t-111.5 60q-105 45 -142.5 87t-37.5 108q0 26 9 54t30.5 53t57 42t82.5 17q123 0 178 -102l-45 -23q-41 77 -133 77
q-54 0 -90.5 -32.5t-36.5 -83.5t30.5 -82t122.5 -71q80 -36 118 -63.5t57 -64t19 -89.5q0 -83 -56 -135t-155 -52q-84 0 -147 42.5t-94 124.5z" />
    <glyph glyph-name="scommaaccent" unicode="&#x219;" horiz-adv-x="404" 
d="M165 -48h66l-85 -145h-41zM22 111l42 16q11 -30 34.5 -52t53.5 -30.5t57 -8.5q60 0 89.5 27t29.5 65q0 21 -10.5 42t-38 38t-80.5 39q-83 35 -108.5 68.5t-25.5 77.5q0 27 13 55t48 48.5t78 20.5q46 0 80.5 -20.5t54.5 -58.5l-41 -21q-30 53 -93 53q-38 0 -64 -21.5
t-26 -55.5q0 -29 20.5 -53t94.5 -54q77 -31 112.5 -66t35.5 -92q0 -58 -44.5 -98.5t-124.5 -40.5q-69 0 -119 32.5t-68 89.5z" />
    <glyph glyph-name="circumflex" unicode="&#x2c6;" horiz-adv-x="617" 
d="M153 576l126 123h58l127 -123h-62l-94 91l-93 -91h-62z" />
    <glyph glyph-name="caron" unicode="&#x2c7;" horiz-adv-x="617" 
d="M279 574l-126 123h62l93 -91l94 91h62l-127 -123h-58z" />
    <glyph glyph-name="breve" unicode="&#x2d8;" horiz-adv-x="613" 
d="M307 579q-37 0 -68.5 18.5t-47 46.5t-18.5 53h48q9 -34 31.5 -53.5t54.5 -19.5t54 19t32 54h47q-3 -20 -11.5 -40.5t-25 -37.5t-41 -28.5t-55.5 -11.5z" />
    <glyph glyph-name="dotaccent" unicode="&#x2d9;" horiz-adv-x="532" 
d="M267 602q-15 0 -25.5 10.5t-10.5 25.5t10.5 25.5t25.5 10.5q13 0 24.5 -10t11.5 -26t-11.5 -26t-24.5 -10z" />
    <glyph glyph-name="ring" unicode="&#x2da;" horiz-adv-x="246" 
d="M124 548q-24 0 -45 14t-29 33t-8 34t8 34t29 33t45 14t45 -14t29 -33t8 -34t-8 -34t-29 -33t-45 -14zM124 584q18 0 31 13.5t13 31.5t-13 31t-31 13t-31.5 -13t-13.5 -31t13.5 -31.5t31.5 -13.5z" />
    <glyph glyph-name="ogonek" unicode="&#x2db;" horiz-adv-x="533" 
d="M167 -110q0 34 22.5 63.5t54.5 46.5h47q-33 -19 -57 -46t-24 -55q0 -23 15.5 -36t37.5 -13q34 0 59 15l-9 -43q-26 -13 -58 -13q-17 0 -37.5 7.5t-35.5 27.5t-15 46z" />
    <glyph glyph-name="tilde" unicode="&#x2dc;" horiz-adv-x="589" 
d="M151 630q4 34 26 56.5t55 22.5q28 0 66.5 -22t58.5 -22q41 0 51 47l33 -3q-5 -40 -26 -63t-56 -23q-30 0 -63 19t-45 22t-18 3q-18 0 -31.5 -10.5t-17.5 -29.5z" />
    <glyph glyph-name="hungarumlaut" unicode="&#x2dd;" horiz-adv-x="592" 
d="M328 552l71 145h63l-96 -145h-38zM174 552l71 145h63l-96 -145h-38z" />
    <glyph glyph-name="mu" unicode="&#x3bc;" horiz-adv-x="526" 
d="M55 -193v697h50v-271q0 -88 45 -141.5t119 -53.5q69 0 111 44.5t42 120.5v301h50v-311q0 -91 -53 -146t-139 -55q-132 0 -175 105v-290h-50z" />
    <glyph glyph-name="pi" unicode="&#x3c0;" horiz-adv-x="585" 
d="M99 0q75 189 77 457h-10q-23 0 -47 -8.5t-39.5 -23t-23.5 -28.5l-41 23q16 29 44.5 49t57 27t48.5 7h398l-11 -46h-82v-327q0 -82 64 -82v-50h-1q-53 0 -82.5 34t-29.5 93v332h-195q-1 -124 -19.5 -244.5t-53.5 -212.5h-54z" />
    <glyph glyph-name="Wgrave" unicode="&#x1e80;" horiz-adv-x="922" 
d="M471 745l-85 145h65l60 -145h-40zM240 0l-209 697h52l178 -586l181 586h38l181 -586l177 586h53l-209 -697h-36l-185 593l-185 -593h-36z" />
    <glyph glyph-name="wgrave" unicode="&#x1e81;" horiz-adv-x="748" 
d="M379 552l-85 145h65l60 -145h-40zM200 0l-181 504h51l146 -411l140 411h36l139 -411l146 411h52l-181 -504h-34l-140 414l-140 -414h-34z" />
    <glyph glyph-name="Wacute" unicode="&#x1e82;" horiz-adv-x="922" 
d="M430 745l60 145h65l-85 -145h-40zM240 0l-209 697h52l178 -586l181 586h38l181 -586l177 586h53l-209 -697h-36l-185 593l-185 -593h-36z" />
    <glyph glyph-name="wacute" unicode="&#x1e83;" horiz-adv-x="748" 
d="M334 552l60 145h65l-85 -145h-40zM200 0l-181 504h51l146 -411l140 411h36l139 -411l146 411h52l-181 -504h-34l-140 414l-140 -414h-34z" />
    <glyph glyph-name="Wdieresis" unicode="&#x1e84;" horiz-adv-x="922" 
d="M564 756q-13 0 -24.5 10t-11.5 26t11.5 26t24.5 10t24.5 -10t11.5 -26t-11.5 -26t-24.5 -10zM358 756q-13 0 -24.5 10t-11.5 26t11.5 26t24.5 10t24.5 -10t11.5 -26t-11.5 -26t-24.5 -10zM240 0l-209 697h52l178 -586l181 586h38l181 -586l177 586h53l-209 -697h-36
l-185 593l-185 -593h-36z" />
    <glyph glyph-name="wdieresis" unicode="&#x1e85;" horiz-adv-x="748" 
d="M477 602q-15 0 -25.5 10.5t-10.5 25.5t10.5 25.5t25.5 10.5q12 0 24 -10.5t12 -25.5q0 -16 -11.5 -26t-24.5 -10zM271 602q-13 0 -24.5 10t-11.5 26q0 15 11.5 25.5t24.5 10.5t24.5 -10.5t11.5 -25.5q0 -16 -11.5 -26t-24.5 -10zM200 0l-181 504h51l146 -411l140 411h36
l139 -411l146 411h52l-181 -504h-34l-140 414l-140 -414h-34z" />
    <glyph glyph-name="Ygrave" unicode="&#x1ef2;" horiz-adv-x="598" 
d="M296 745l-85 145h65l60 -145h-40zM325 294v-294h-52v294l-243 403h58l211 -351l211 351h58z" />
    <glyph glyph-name="ygrave" unicode="&#x1ef3;" horiz-adv-x="490" 
d="M242 552l-85 145h65l60 -145h-40zM189 -78l30 75l-200 507h52l173 -442l176 442h53l-238 -593q-24 -60 -51 -86q-16 -15 -38.5 -23.5t-45.5 -8.5q-27 0 -46 8v46q19 -7 46 -7q32 0 54 22q19 19 35 60z" />
    <glyph glyph-name="endash" unicode="&#x2013;" horiz-adv-x="463" 
d="M45 239v47h374v-47h-374z" />
    <glyph glyph-name="emdash" unicode="&#x2014;" horiz-adv-x="727" 
d="M45 239v47h638v-47h-638z" />
    <glyph glyph-name="quoteleft" unicode="&#x2018;" horiz-adv-x="171" 
d="M17 445l125 252h42l-99 -252h-68z" />
    <glyph glyph-name="quoteright" unicode="&#x2019;" horiz-adv-x="177" 
d="M-1 445l99 252h68l-125 -252h-42z" />
    <glyph glyph-name="quotesinglbase" unicode="&#x201a;" horiz-adv-x="176" 
d="M-24 -128l94 239h67l-119 -239h-42z" />
    <glyph glyph-name="quotedblleft" unicode="&#x201c;" horiz-adv-x="316" 
d="M161 445l125 252h42l-99 -252h-68zM17 445l125 252h42l-99 -252h-68z" />
    <glyph glyph-name="quotedblright" unicode="&#x201d;" horiz-adv-x="321" 
d="M143 445l100 252h68l-125 -252h-43zM-1 445l99 252h68l-125 -252h-42z" />
    <glyph glyph-name="quotedblbase" unicode="&#x201e;" horiz-adv-x="313" 
d="M128 -128l94 239h67l-119 -239h-42zM-24 -128l94 239h67l-119 -239h-42z" />
    <glyph glyph-name="dagger" unicode="&#x2020;" horiz-adv-x="295" 
d="M124 301l3 249l-90 -2v44l89 -2l-2 107h48l-2 -107l89 2v-44l-90 2l3 -249h-48z" />
    <glyph glyph-name="daggerdbl" unicode="&#x2021;" horiz-adv-x="295" 
d="M124 301l2 107l-89 -2v44l90 -2v102l-90 -2v44l89 -2l-2 107h47l-2 -107l90 2v-44l-91 2v-102l91 2v-44l-90 2l2 -107h-47z" />
    <glyph glyph-name="bullet" unicode="&#x2022;" horiz-adv-x="224" 
d="M112 194q-24 0 -41.5 17t-17.5 42t17.5 42.5t41.5 17.5q23 0 41 -17.5t18 -42.5t-18 -42t-41 -17z" />
    <glyph glyph-name="ellipsis" unicode="&#x2026;" horiz-adv-x="479" 
d="M358 31q0 15 11.5 25.5t24.5 10.5t24.5 -10.5t11.5 -25.5q0 -16 -11.5 -26t-24.5 -10t-24.5 10t-11.5 26zM204 31q0 15 10.5 25.5t25.5 10.5q12 0 23.5 -10.5t11.5 -25.5q0 -16 -11.5 -26t-23.5 -10q-15 0 -25.5 10.5t-10.5 25.5zM50 31q0 15 11.5 25.5t24.5 10.5
q12 0 24 -10.5t12 -25.5q0 -16 -11.5 -26t-24.5 -10t-24.5 10t-11.5 26z" />
    <glyph glyph-name="perthousand" unicode="&#x2030;" horiz-adv-x="1095" 
d="M196 396q-64 0 -110 46t-46 110t46 110t110 46t110 -46t46 -110t-46 -110t-110 -46zM109 0l451 697h54l-451 -697h-54zM196 438q21 0 46.5 11.5t44.5 40t19 62.5q0 21 -11 48t-39 46.5t-60 19.5q-21 0 -47 -11.5t-45 -40t-19 -62.5q0 -22 11 -48.5t39 -46t61 -19.5z
M525 -11q-64 0 -110 46t-46 110t46 110t110 46t110 -46t46 -110t-46 -110t-110 -46zM525 31q21 0 46.5 11.5t44.5 40t19 62.5q0 21 -11 48t-39 46.5t-60 19.5q-21 0 -47 -11.5t-45 -40t-19 -62.5q0 -22 11 -48.5t39 -46t61 -19.5zM900 -11q-64 0 -110 46t-46 110t46 110
t110 46t110 -46t46 -110t-46 -110t-110 -46zM900 31q21 0 46.5 11.5t44.5 40t19 62.5q0 21 -11 48t-39 46.5t-60 19.5q-21 0 -47 -11.5t-45 -40t-19 -62.5q0 -22 11 -48.5t39 -46t61 -19.5z" />
    <glyph glyph-name="guilsinglleft" unicode="&#x2039;" horiz-adv-x="240" 
d="M149 78l-110 175l110 175h53l-110 -175l110 -175h-53z" />
    <glyph glyph-name="guilsinglright" unicode="&#x203a;" horiz-adv-x="240" 
d="M39 78l110 175l-110 175h53l110 -175l-110 -175h-53z" />
    <glyph glyph-name="fraction" unicode="&#x2044;" horiz-adv-x="493" 
d="M-5 0l451 697h54l-451 -697h-54z" />
    <glyph glyph-name="uni2070" unicode="&#x2070;" horiz-adv-x="380" 
d="M189 320q-22 0 -49.5 11t-49.5 39.5t-26 63.5q-2 16 -2 79t2 78q4 35 26 63.5t49.5 39.5t49.5 11q24 0 52 -10.5t50 -38.5t25 -65q2 -32 2 -78q0 -47 -2 -79q-2 -24 -15.5 -50.5t-44 -45t-67.5 -18.5zM189 359q34 0 59.5 22.5t28.5 55.5q2 15 2 76q0 60 -2 75
q-3 34 -28.5 56.5t-59.5 22.5q-32 0 -57 -23t-29 -56q-2 -15 -2 -75q0 -61 2 -76q4 -33 28.5 -55.5t57.5 -22.5z" />
    <glyph glyph-name="uni2074" unicode="&#x2074;" horiz-adv-x="350" 
d="M248 328v81h-212v27l129 261h43l-124 -250h164v82h41v-201h-41z" />
    <glyph glyph-name="uni2075" unicode="&#x2075;" horiz-adv-x="350" 
d="M160 320q-40 0 -74 23t-51 60l36 17q12 -27 36 -44t53 -17q40 0 67.5 27.5t27.5 65.5q0 18 -9.5 39.5t-33.5 36.5t-54 15q-18 0 -35 -7t-28 -16l-29 10l30 167h171v-38h-137l-17 -91q8 5 23 9.5t28 4.5q25 0 55.5 -12.5t52.5 -45t22 -72.5t-22 -72.5t-52.5 -46
t-59.5 -13.5z" />
    <glyph glyph-name="uni2076" unicode="&#x2076;" horiz-adv-x="369" 
d="M185 320q-38 0 -70.5 22t-45.5 52.5t-13 55.5q0 14 5.5 36t39.5 74l92 137h49l-89 -129q11 9 37 9q23 0 52 -12.5t50.5 -44.5t21.5 -70q0 -54 -37.5 -92t-91.5 -38zM185 359q17 0 38.5 9t36.5 31.5t15 49.5q0 17 -9 38.5t-31.5 36.5t-49.5 15q-37 0 -62.5 -26t-25.5 -64
t25.5 -64t62.5 -26z" />
    <glyph glyph-name="uni2077" unicode="&#x2077;" horiz-adv-x="349" 
d="M100 328l162 331h-200v38h254v-19l-171 -350h-45z" />
    <glyph glyph-name="uni2078" unicode="&#x2078;" horiz-adv-x="368" 
d="M237 542q30 -9 50.5 -38t20.5 -65q0 -49 -36 -84t-87 -35t-87 35t-36 84q0 36 20.5 65t50.5 38q-21 9 -32.5 27.5t-11.5 41.5q0 38 28.5 66t67.5 28t67.5 -28t28.5 -66q0 -23 -11.5 -41.5t-32.5 -27.5zM129 610q0 -23 16.5 -40t39.5 -17t39.5 17t16.5 40t-16.5 40
t-39.5 17t-39.5 -17t-16.5 -40zM185 359q33 0 57.5 24t24.5 56q0 33 -24.5 56.5t-57.5 23.5t-57.5 -23.5t-24.5 -56.5q0 -32 24.5 -56t57.5 -24z" />
    <glyph glyph-name="uni2079" unicode="&#x2079;" horiz-adv-x="377" 
d="M130 328l93 134q-5 -3 -16 -6t-23 -3q-22 0 -50.5 12t-50 43t-21.5 69q0 53 37.5 90.5t89.5 37.5q24 0 54 -12.5t51.5 -44t21.5 -70.5q0 -15 -6.5 -38.5t-43.5 -80.5l-88 -131h-48zM189 490q19 0 39.5 9t34.5 31t14 48q0 36 -26 62.5t-62 26.5q-17 0 -38 -9t-35.5 -31
t-14.5 -49q0 -36 25.5 -62t62.5 -26z" />
    <glyph glyph-name="uni2080" unicode="&#x2080;" horiz-adv-x="375" 
d="M62 106q-2 16 -2 79t2 78q4 35 26 63.5t49.5 39.5t49.5 11q24 0 51.5 -10.5t49.5 -38.5t26 -65l1 -78l-1 -79q-3 -31 -19 -55.5t-44 -41.5t-64 -17q-22 0 -49.5 11t-49.5 39.5t-26 63.5zM101 109q4 -33 28.5 -55.5t57.5 -22.5q34 0 59 22.5t28 55.5q2 15 2 76q0 60 -2 75
q-3 34 -28 56.5t-59 22.5q-32 0 -57 -23t-29 -56q-2 -15 -2 -75q0 -61 2 -76z" />
    <glyph glyph-name="uni2081" unicode="&#x2081;" horiz-adv-x="225" 
d="M99 0v331h-48v38h89v-369h-41z" />
    <glyph glyph-name="uni2082" unicode="&#x2082;" horiz-adv-x="335" 
d="M49 0v28l164 186q24 28 24 59q0 27 -20 46t-47 19t-47 -21.5t-20 -49.5h-40q0 33 18 60.5t43.5 38.5t45.5 11q21 0 46 -10.5t43.5 -36.5t18.5 -57q0 -21 -6.5 -41t-26.5 -44l-135 -149h176v-39h-237z" />
    <glyph glyph-name="uni2083" unicode="&#x2083;" horiz-adv-x="354" 
d="M37 79l36 13q11 -27 36.5 -43.5t57.5 -16.5q42 0 70 24.5t28 61.5q0 36 -27 60.5t-68 24.5q-34 0 -55 -8l-15 22l118 114h-151v38h218v-23l-116 -109q24 0 36 -2q42 -8 70.5 -40.5t28.5 -76.5q0 -43 -23 -73t-55 -41.5t-59 -11.5q-44 0 -79.5 24t-50.5 63z" />
    <glyph glyph-name="uni2084" unicode="&#x2084;" horiz-adv-x="350" 
d="M36 81v27l129 261h43l-124 -250h164v82h41v-201h-41v81h-212z" />
    <glyph glyph-name="uni2085" unicode="&#x2085;" horiz-adv-x="350" 
d="M35 75l36 17q12 -27 36 -44t53 -17q40 0 67.5 27.5t27.5 65.5q0 18 -9.5 39.5t-33.5 36.5t-54 15q-18 0 -35 -7t-28 -16l-29 10l30 167h171v-38h-137l-17 -91q8 5 23 9.5t28 4.5q25 0 55.5 -12.5t52.5 -45t22 -72.5t-22 -72.5t-52.5 -46t-59.5 -13.5q-40 0 -74 23t-51 60
z" />
    <glyph glyph-name="uni2086" unicode="&#x2086;" horiz-adv-x="369" 
d="M56 122q0 14 5.5 36t39.5 74l92 137h49l-89 -129q11 9 37 9q23 0 52 -12.5t50.5 -44.5t21.5 -70q0 -54 -37.5 -92t-91.5 -38q-38 0 -70.5 22t-45.5 52.5t-13 55.5zM97 121q0 -38 25.5 -64t62.5 -26q17 0 38.5 9t36.5 31.5t15 49.5q0 17 -9 38.5t-31.5 36.5t-49.5 15
q-37 0 -62.5 -26t-25.5 -64z" />
    <glyph glyph-name="uni2087" unicode="&#x2087;" horiz-adv-x="349" 
d="M100 0l162 331h-200v38h254v-19l-171 -350h-45z" />
    <glyph glyph-name="uni2088" unicode="&#x2088;" horiz-adv-x="368" 
d="M237 214q30 -9 50.5 -38t20.5 -65q0 -49 -36 -84t-87 -35t-87 35t-36 84q0 36 20.5 65t50.5 38q-21 9 -32.5 27.5t-11.5 41.5q0 38 28.5 66t67.5 28t67.5 -28t28.5 -66q0 -23 -11.5 -41.5t-32.5 -27.5zM129 282q0 -23 16.5 -40t39.5 -17t39.5 17t16.5 40t-16.5 40
t-39.5 17t-39.5 -17t-16.5 -40zM185 31q33 0 57.5 24t24.5 56q0 33 -24.5 56.5t-57.5 23.5t-57.5 -23.5t-24.5 -56.5q0 -32 24.5 -56t57.5 -24z" />
    <glyph glyph-name="uni2089" unicode="&#x2089;" horiz-adv-x="367" 
d="M126 0l93 134q-5 -3 -16 -6t-23 -3q-22 0 -50.5 12t-50 43t-21.5 69q0 53 37 90.5t89 37.5q25 0 54.5 -12.5t51 -44t21.5 -70.5q0 -15 -6.5 -39.5t-42.5 -79.5l-88 -131h-48zM184 162q39 0 64 26t25 62q0 27 -15 49t-36 31t-38 9q-36 0 -61.5 -26.5t-25.5 -62.5t25.5 -62
t61.5 -26z" />
    <glyph glyph-name="Euro" unicode="&#x20ac;" horiz-adv-x="751" 
d="M24 251l20 47h80q-3 21 -3 50q0 35 4 59h-79l20 47h68q11 41 35 85t69 86t103.5 63t114.5 21q70 0 133 -28t109 -77l-37 -33q-38 41 -91.5 65t-113.5 24q-95 0 -167.5 -57t-100.5 -149h288l-20 -47h-278q-5 -30 -5 -59q0 -24 3 -50h236l-20 -47h-206q9 -35 28.5 -71.5
t57 -72.5t87 -53.5t97.5 -17.5q63 0 117.5 24t93.5 68l37 -34q-47 -50 -111 -78t-137 -28q-57 0 -110 19t-96 54t-73.5 84t-44.5 106h-108z" />
    <glyph glyph-name="afii61289" unicode="&#x2113;" horiz-adv-x="453" 
d="M35 121l-19 34l74 58v285q0 103 39.5 157t105.5 54q57 0 90 -39t33 -106q0 -92 -54.5 -183.5t-162.5 -188.5v-7q0 -77 29.5 -114t83.5 -37q21 0 46 9t47 30.5t38 48.5l30 -27q-60 -107 -174 -107q-70 0 -109.5 47.5t-40.5 127.5q-25 -21 -56 -42zM140 251
q38 37 77.5 86.5t65 108t25.5 117.5q0 49 -20.5 74t-55.5 25q-18 0 -40 -12.5t-37 -49t-15 -91.5v-258z" />
    <glyph glyph-name="afii61352" unicode="&#x2116;" horiz-adv-x="1148" 
d="M705 483q0 29 10 62t34.5 62t63 49.5t87.5 20.5q39 0 70.5 -13t57 -34t46.5 -59t21 -88q0 -30 -10 -62.5t-34.5 -61.5t-63 -49.5t-87.5 -20.5q-29 0 -61.5 10t-66 37t-50.5 67t-17 80zM755 483q0 -37 19 -72.5t54.5 -55t71.5 -19.5q60 0 102.5 43t42.5 104q0 37 -17 69
t-50.5 55t-77.5 23q-29 0 -56 -12t-47 -33t-31 -47t-11 -55zM723 170v46h360v-46h-360zM96 0v697h45l404 -597v597h52v-697h-43l-406 600v-600h-52z" />
    <glyph glyph-name="trademark" unicode="&#x2122;" horiz-adv-x="812" 
d="M369 326v372h5l185 -221l185 221h6v-372h-50v247l-141 -171l-140 171v-247h-50zM149 326v323h-123v48h297v-48h-124v-323h-50z" />
    <glyph glyph-name="uni2126" unicode="&#x2126;" horiz-adv-x="774" 
d="M723 364q0 -97 -44.5 -183.5t-111.5 -132.5h122v-48h-252q110 58 172.5 150t62.5 205q0 63 -21.5 119.5t-60 98t-91.5 64.5t-112 23t-112 -23t-91.5 -64.5t-60 -98t-21.5 -119.5q0 -113 62.5 -205t172.5 -150h-252v48h122q-67 46 -111.5 132.5t-44.5 183.5q0 72 26 135.5
t72 110t108 72.5t130 26t130 -26t108 -72.5t72 -110t26 -135.5z" />
    <glyph glyph-name="estimated" unicode="&#x212e;" horiz-adv-x="916" 
d="M188 105q52 -47 122.5 -74t147.5 -27q67 0 129.5 20.5t105 51.5t67.5 60h21q-26 -32 -72 -67t-113.5 -58t-137.5 -23q-82 0 -157.5 29.5t-132 82t-88.5 123t-32 147.5t32 147.5t88.5 123t132 82t157.5 29.5q105 0 199 -47.5t152.5 -138t59.5 -201.5v-6h-681v-254z
M188 375h540v260q-52 47 -122.5 74t-147.5 27q-76 0 -147 -27.5t-123 -74.5v-259z" />
    <glyph glyph-name="onethird" unicode="&#x2153;" horiz-adv-x="726" 
d="M59 0l409 697h53l-410 -697h-52zM104 328v331h-48v38h89v-369h-41zM401 79l36 13q12 -28 37.5 -44t57.5 -16q20 0 43 8t38.5 29t15.5 49q0 36 -27 60.5t-68 24.5q-35 0 -54 -8l-16 22l119 114h-152v38h219v-23l-117 -109q25 0 37 -2q42 -8 70.5 -40.5t28.5 -76.5
q0 -27 -13 -56t-47.5 -49.5t-76.5 -20.5q-45 0 -80.5 24t-50.5 63z" />
    <glyph glyph-name="twothirds" unicode="&#x2154;" horiz-adv-x="822" 
d="M182 0l410 697h53l-410 -697h-53zM62 328v28l164 186q24 28 24 59q0 27 -20 46t-48 19q-26 0 -46 -21.5t-20 -49.5h-40q0 33 18 60.5t43 38.5t45 11q21 0 46.5 -10.5t44 -36.5t18.5 -57q0 -21 -6.5 -41t-26.5 -44l-135 -149h175v-39h-236zM497 79l36 13
q11 -27 36.5 -43.5t57.5 -16.5q42 0 70 24.5t28 61.5q0 36 -27 60.5t-68 24.5q-34 0 -55 -8l-15 22l119 114h-152v38h219v-23l-117 -109q24 0 36 -2q42 -8 70.5 -40.5t28.5 -76.5q0 -43 -23 -73t-55 -41.5t-59 -11.5q-44 0 -79.5 24t-50.5 63z" />
    <glyph glyph-name="arrowleft" unicode="&#x2190;" horiz-adv-x="627" 
d="M235 55l-206 205l206 206l34 -34l-148 -148h471v-48h-472l149 -148z" />
    <glyph glyph-name="arrowup" unicode="&#x2191;" horiz-adv-x="647" 
d="M298 0v457l-138 -139l-34 33l197 199l198 -199l-34 -33l-138 139v-457h-51z" />
    <glyph glyph-name="arrowright" unicode="&#x2192;" horiz-adv-x="627" 
d="M34 236v48h472l-149 148l34 34l207 -206l-207 -205l-34 33l149 148h-472z" />
    <glyph glyph-name="arrowdown" unicode="&#x2193;" horiz-adv-x="647" 
d="M126 163l34 33l138 -139v447h51v-447l138 139l34 -33l-198 -198z" />
    <glyph glyph-name="arrowboth" unicode="&#x2194;" horiz-adv-x="848" 
d="M235 55l-206 205l206 206l34 -34l-149 -148h606l-148 148l33 34l207 -206l-207 -205l-33 33l149 148h-607l149 -148z" />
    <glyph glyph-name="arrowupdn" unicode="&#x2195;" horiz-adv-x="647" 
d="M139 125l34 34l124 -126v465l-124 -126l-34 34l184 184l184 -184l-33 -34l-125 126v-465l125 126l33 -34l-184 -184z" />
    <glyph glyph-name="uni2196" unicode="&#x2196;" horiz-adv-x="647" 
d="M119 173v292h292v-49h-209l340 -340l-34 -34l-338 338v-207h-51z" />
    <glyph glyph-name="uni2197" unicode="&#x2197;" horiz-adv-x="647" 
d="M105 76l340 340h-209v49h292v-292h-51v207l-338 -338z" />
    <glyph glyph-name="uni2198" unicode="&#x2198;" horiz-adv-x="647" 
d="M236 48v49h209l-340 340l34 34l338 -338v207h51v-292h-292z" />
    <glyph glyph-name="uni2199" unicode="&#x2199;" horiz-adv-x="647" 
d="M119 48v292h51v-207l338 338l34 -34l-340 -340h209v-49h-292z" />
    <glyph glyph-name="partialdiff" unicode="&#x2202;" horiz-adv-x="506" 
d="M40 203q0 57 26.5 113.5t77 88t106.5 31.5q39 0 74 -18.5t54 -45t25 -49.5q4 30 4 61q0 89 -23 156t-61.5 97.5t-88.5 30.5q-32 0 -58.5 -11t-49.5 -39l-36 31q34 37 69 52t77 15q65 0 114 -39t75 -109q13 -35 21.5 -85t8.5 -98q0 -56 -11 -125.5t-33 -122.5
q-27 -64 -77 -106t-108 -42q-31 0 -64 11.5t-63 41.5t-44.5 74t-14.5 87zM89 195q0 -30 12 -67.5t45 -64.5t80 -27q41 0 77.5 27.5t58.5 70.5q11 22 18 51t7 52q0 65 -39 109t-98 44q-23 0 -49.5 -9t-51 -31.5t-42.5 -61.5t-18 -93z" />
    <glyph glyph-name="uni2206" unicode="&#x2206;" horiz-adv-x="623" 
d="M41 0v32l252 665h37l253 -665v-32h-542zM99 48h425l-212 560z" />
    <glyph glyph-name="product" unicode="&#x220f;" horiz-adv-x="642" 
d="M138 0v650h-103v47h573v-47h-103v-650h-50v650h-268v-650h-49z" />
    <glyph glyph-name="summation" unicode="&#x2211;" horiz-adv-x="576" 
d="M54 0v36l239 333l-223 292v36h439v-48h-376l218 -285l-229 -316h398v-48h-466z" />
    <glyph glyph-name="minus" unicode="&#x2212;" horiz-adv-x="391" 
d="M46 325v47h300v-47h-300z" />
    <glyph glyph-name="radical" unicode="&#x221a;" horiz-adv-x="718" 
d="M54 324l-16 37l133 57l194 -452l267 834h49l-293 -910h-40l-203 473z" />
    <glyph glyph-name="infinity" unicode="&#x221e;" horiz-adv-x="780" 
d="M203 187q-66 0 -108.5 39.5t-42.5 100.5q0 44 23.5 77.5t58 51t75.5 17.5q36 0 76.5 -21.5t103.5 -88.5q63 66 107 88t81 22q66 0 109.5 -41.5t43.5 -104.5q0 -58 -44.5 -99t-111.5 -41q-37 0 -77 20.5t-103 86.5q-63 -64 -107.5 -85.5t-83.5 -21.5zM424 328
q54 -56 88 -75t62 -19q21 0 45.5 9t41.5 32.5t17 51.5q0 20 -9.5 43t-35.5 39.5t-59 16.5q-28 0 -61.5 -20t-88.5 -78zM207 234q28 0 58 18t54.5 41.5t39.5 38.5q-52 54 -87.5 74t-62.5 20q-33 0 -59 -16.5t-36 -40t-10 -42.5q0 -41 29 -67t74 -26z" />
    <glyph glyph-name="integral" unicode="&#x222b;" horiz-adv-x="321" 
d="M31 -51q18 -7 39 -7q40 0 58.5 36.5t18.5 138.5q0 47 -8 213.5t-8 238.5q0 221 127 221q16 0 32 -4v-43q-12 4 -29 4q-39 0 -59 -42.5t-20 -139.5q0 -65 8 -236t8 -220q0 -72 -12.5 -117.5t-38.5 -69.5t-72 -24q-18 0 -44 8v43z" />
    <glyph glyph-name="approxequal" unicode="&#x2248;" horiz-adv-x="414" 
d="M40 252q5 34 30 56t62 22q33 0 76.5 -20t59 -23t22.5 -3q48 0 61 43l34 -3q-6 -39 -29.5 -60.5t-63.5 -21.5q-36 0 -78.5 20t-58 23t-22.5 3q-22 0 -38 -10t-21 -30zM40 387q5 34 30 56t62 22q33 0 76.5 -20t59 -23t22.5 -3q48 0 61 43l34 -3q-6 -39 -29.5 -60.5
t-63.5 -21.5q-36 0 -78.5 20t-58 23t-22.5 3q-22 0 -38 -10t-21 -30z" />
    <glyph glyph-name="notequal" unicode="&#x2260;" horiz-adv-x="433" 
d="M119 143l-39 22l56 95h-90v47h117l56 95h-173v47h201l64 108l39 -23l-50 -85h88v-47h-116l-56 -95h172v-47h-200z" />
    <glyph glyph-name="lessequal" unicode="&#x2264;" horiz-adv-x="409" 
d="M30 22v47h327v-47h-327zM45 338v36l312 196v-53l-259 -161l259 -160v-53z" />
    <glyph glyph-name="greaterequal" unicode="&#x2265;" horiz-adv-x="409" 
d="M52 22v47h326v-47h-326zM52 143v53l259 160l-259 161v53l312 -196v-36z" />
    <glyph glyph-name="triagup" unicode="&#x25b2;" horiz-adv-x="447" 
d="M90 169l131 229l137 -229h-268z" />
    <glyph glyph-name="triagrt" unicode="&#x25ba;" horiz-adv-x="447" 
d="M126 130v267l228 -130z" />
    <glyph glyph-name="triagdn" unicode="&#x25bc;" horiz-adv-x="447" 
d="M221 130l-131 228h268z" />
    <glyph glyph-name="triaglf" unicode="&#x25c4;" horiz-adv-x="447" 
d="M93 267l227 130v-267z" />
    <glyph glyph-name="lozenge" unicode="&#x25ca;" horiz-adv-x="531" 
d="M254 0l-215 349l215 348h24l216 -348l-216 -349h-24zM266 70l170 279l-170 277l-170 -277z" />
    <glyph glyph-name="uni25E2" unicode="&#x25e2;" horiz-adv-x="447" 
d="M82 214l189 189l69 -253z" />
    <glyph glyph-name="uni25E3" unicode="&#x25e3;" horiz-adv-x="447" 
d="M108 150l69 253l189 -189z" />
    <glyph glyph-name="uni25E4" unicode="&#x25e4;" horiz-adv-x="447" 
d="M175 129l-69 253l258 -64z" />
    <glyph glyph-name="uni25E5" unicode="&#x25e5;" horiz-adv-x="447" 
d="M341 382l-69 -253l-189 189z" />
    <glyph glyph-name="uniFB01" unicode="&#xfb01;" horiz-adv-x="480" 
d="M109 0v457h-78v47h78v47q0 33 7 65t31 56q38 37 115 37q28 0 46 -4v-47q-19 4 -51 4q-50 0 -74 -25.5t-24 -79.5v-53h234v-413q0 -29 9.5 -42t32.5 -13l28 2v-42q-17 -6 -41 -6q-79 0 -79 92v375h-184v-457h-50z" />
    <glyph glyph-name="uniFB02" unicode="&#xfb02;" horiz-adv-x="548" 
d="M109 0v457h-78v47h78v47q0 36 8.5 70t36.5 59q33 29 95 29q25 0 39 -4v-46q-16 4 -44 4q-43 0 -64 -26t-21 -80v-53h112v-47h-112v-457h-50zM344 127v570h49v-567q0 -49 18 -72.5t58 -23.5q25 0 42 4v-46q-22 -5 -42 -5q-125 0 -125 140z" />
    <glyph glyph-name="uniFB03" unicode="&#xfb03;" horiz-adv-x="714" 
d="M109 0v457h-78v47h78v47q0 158 140 158q25 0 39 -4v-47q-16 4 -44 4q-43 0 -64 -25.5t-21 -79.5v-53h184v47q0 33 7 65t31 56q38 37 115 37q28 0 46 -4v-47q-19 4 -51 4q-50 0 -74 -25.5t-24 -79.5v-53h234v-413q0 -29 9.5 -42t32.5 -13l28 2v-42q-17 -6 -41 -6
q-79 0 -79 92v375h-184v-457h-50v457h-184v-457h-50z" />
    <glyph glyph-name="uniFB04" unicode="&#xfb04;" horiz-adv-x="797" 
d="M109 0v457h-78v47h78v47q0 158 140 158q25 0 39 -4v-46q-16 4 -44 4q-43 0 -64 -26t-21 -80v-53h184v47q0 158 140 158q25 0 39 -4v-46q-16 4 -44 4q-43 0 -64 -26t-21 -80v-53h112v-47h-112v-457h-50v457h-184v-457h-50zM592 127v570h50v-567q0 -49 18 -72.5t58 -23.5
q25 0 41 4v-46q-20 -5 -41 -5q-126 0 -126 140z" />
    <glyph glyph-name="space.aalt" horiz-adv-x="30" 
 />
    <glyph glyph-name="a.ss01" horiz-adv-x="603" 
d="M493 504h50v-504h-50v105q-12 -35 -43 -62t-71 -41.5t-86 -14.5q-52 0 -98.5 20t-81.5 56t-54.5 85t-19.5 104t19.5 104t54.5 85t82 56t98 20q37 0 78.5 -12t75.5 -41.5t46 -64.5v105zM293 34q43 0 81 16t66 45.5t43.5 70t15.5 86.5t-15.5 86.5t-43.5 70t-66 45.5t-81 16
q-31 0 -65.5 -11t-69 -41.5t-52 -75.5t-17.5 -90t15.5 -85.5t43 -70t65.5 -46t80 -16.5z" />
    <glyph glyph-name="d.ss01" horiz-adv-x="604" 
d="M493 697h50v-697h-50v105q-12 -35 -43 -62t-71 -41.5t-86 -14.5q-52 0 -98.5 20t-81.5 56t-54.5 85t-19.5 104t19.5 104t54.5 85t82 56t98 20q37 0 78.5 -12t75.5 -41.5t46 -64.5v298zM293 34q43 0 81 16t66 45.5t43.5 70t15.5 86.5t-15.5 86.5t-43.5 70t-66 45.5t-81 16
q-31 0 -65.5 -11t-69 -41.5t-52 -75.5t-17.5 -90t15.5 -85.5t43 -70t65.5 -46t80 -16.5z" />
    <glyph glyph-name="h.ss01" horiz-adv-x="531" 
d="M61 0v697h50v-290q19 48 60.5 76.5t110.5 28.5q85 0 137 -55t52 -146v-311h-50v301q0 75 -41 119.5t-109 44.5q-73 0 -116.5 -53.5t-43.5 -140.5v-271h-50z" />
    <glyph glyph-name="i.ss01" horiz-adv-x="174" 
d="M87 604q-13 0 -24.5 10t-11.5 25q0 16 11.5 26t24.5 10t24.5 -10t11.5 -26q0 -15 -11.5 -25t-24.5 -10zM62 0v504h50v-504h-50z" />
    <glyph glyph-name="l.ss01" horiz-adv-x="174" 
d="M62 0v697h50v-697h-50z" />
    <glyph glyph-name="m.ss01" horiz-adv-x="828" 
d="M599 512q77 0 123 -54.5t46 -146.5v-311h-50v301q0 75 -35.5 119.5t-96.5 44.5q-67 0 -107 -52t-40 -137v-276h-50v301q0 75 -36.5 119.5t-96.5 44.5q-66 0 -105.5 -53.5t-39.5 -140.5v-271h-50v504h50v-97q18 48 56.5 76.5t101.5 28.5q57 0 98 -31t57 -85q17 56 61.5 86
t113.5 30z" />
    <glyph glyph-name="n.ss01" horiz-adv-x="541" 
d="M61 0v504h50v-97q43 105 176 105q87 0 140.5 -55t53.5 -146v-311h-50v301q0 75 -42.5 119.5t-112.5 44.5q-75 0 -120 -53.5t-45 -140.5v-271h-50z" />
    <glyph glyph-name="r.ss04" horiz-adv-x="336" 
d="M61 0v356q0 78 39 120.5t126 42.5q37 0 65 -7v-47q-29 7 -66 7q-64 0 -89 -30.5t-25 -92.5v-349h-50z" />
    <glyph glyph-name="t.ss01" horiz-adv-x="292" 
d="M97 0v457h-63v47h63v193h50v-193h118v-47h-118v-457h-50z" />
    <glyph glyph-name="u.ss01" horiz-adv-x="526" 
d="M263 -11q-46 0 -84.5 13t-66 39t-42.5 64t-15 86v313h50v-308q0 -77 42 -118.5t116 -41.5t116 41.5t42 118.5v308h50v-313q0 -36 -10 -72t-34.5 -64.5t-65 -47t-98.5 -18.5z" />
    <glyph glyph-name="y.ss01" horiz-adv-x="502" 
d="M219 0l-200 504h52l174 -443l186 443h53l-296 -697h-51z" />
    <glyph glyph-name="agrave.ss01" horiz-adv-x="603" 
d="M289 552l-85 145h66l60 -145h-41zM493 504h50v-504h-50v105q-12 -35 -43 -62t-71 -41.5t-86 -14.5q-52 0 -98.5 20t-81.5 56t-54.5 85t-19.5 104t19.5 104t54.5 85t82 56t98 20q37 0 78.5 -12t75.5 -41.5t46 -64.5v105zM293 34q43 0 81 16t66 45.5t43.5 70t15.5 86.5
t-15.5 86.5t-43.5 70t-66 45.5t-81 16q-31 0 -65.5 -11t-69 -41.5t-52 -75.5t-17.5 -90t15.5 -85.5t43 -70t65.5 -46t80 -16.5z" />
    <glyph glyph-name="aacute.ss01" horiz-adv-x="603" 
d="M266 552l60 145h66l-85 -145h-41zM493 504h50v-504h-50v105q-12 -35 -43 -62t-71 -41.5t-86 -14.5q-52 0 -98.5 20t-81.5 56t-54.5 85t-19.5 104t19.5 104t54.5 85t82 56t98 20q37 0 78.5 -12t75.5 -41.5t46 -64.5v105zM293 34q43 0 81 16t66 45.5t43.5 70t15.5 86.5
t-15.5 86.5t-43.5 70t-66 45.5t-81 16q-31 0 -65.5 -11t-69 -41.5t-52 -75.5t-17.5 -90t15.5 -85.5t43 -70t65.5 -46t80 -16.5z" />
    <glyph glyph-name="acircumflex.ss01" horiz-adv-x="603" 
d="M165 576l129 123h42l130 -123h-63l-88 85l-88 -85h-62zM493 504h50v-504h-50v105q-12 -35 -43 -62t-71 -41.5t-86 -14.5q-52 0 -98.5 20t-81.5 56t-54.5 85t-19.5 104t19.5 104t54.5 85t82 56t98 20q37 0 78.5 -12t75.5 -41.5t46 -64.5v105zM293 34q43 0 81 16t66 45.5
t43.5 70t15.5 86.5t-15.5 86.5t-43.5 70t-66 45.5t-81 16q-31 0 -65.5 -11t-69 -41.5t-52 -75.5t-17.5 -90t15.5 -85.5t43 -70t65.5 -46t80 -16.5z" />
    <glyph glyph-name="atilde.ss01" horiz-adv-x="603" 
d="M159 600q4 34 26 56.5t55 22.5q28 0 66.5 -22t58.5 -22q40 0 51 47l33 -3q-3 -29 -16 -49.5t-31 -28t-35 -7.5q-10 0 -21.5 2t-21 6.5t-37 19.5t-46.5 15q-18 0 -31.5 -10t-17.5 -29zM493 504h50v-504h-50v105q-12 -35 -43 -62t-71 -41.5t-86 -14.5q-52 0 -98.5 20
t-81.5 56t-54.5 85t-19.5 104t19.5 104t54.5 85t82 56t98 20q37 0 78.5 -12t75.5 -41.5t46 -64.5v105zM293 34q43 0 81 16t66 45.5t43.5 70t15.5 86.5t-15.5 86.5t-43.5 70t-66 45.5t-81 16q-31 0 -65.5 -11t-69 -41.5t-52 -75.5t-17.5 -90t15.5 -85.5t43 -70t65.5 -46
t80 -16.5z" />
    <glyph glyph-name="adieresis.ss01" horiz-adv-x="603" 
d="M404 602q-13 0 -24.5 10t-11.5 26q0 15 11.5 25.5t24.5 10.5t24.5 -10.5t11.5 -25.5q0 -16 -11.5 -26t-24.5 -10zM199 602q-15 0 -25.5 10.5t-10.5 25.5t10.5 25.5t25.5 10.5q12 0 23.5 -10.5t11.5 -25.5q0 -16 -11.5 -26t-23.5 -10zM493 504h50v-504h-50v105
q-12 -35 -43 -62t-71 -41.5t-86 -14.5q-52 0 -98.5 20t-81.5 56t-54.5 85t-19.5 104t19.5 104t54.5 85t82 56t98 20q37 0 78.5 -12t75.5 -41.5t46 -64.5v105zM293 34q43 0 81 16t66 45.5t43.5 70t15.5 86.5t-15.5 86.5t-43.5 70t-66 45.5t-81 16q-31 0 -65.5 -11t-69 -41.5
t-52 -75.5t-17.5 -90t15.5 -85.5t43 -70t65.5 -46t80 -16.5z" />
    <glyph glyph-name="amacron.ss01" horiz-adv-x="603" 
d="M159 607v47h294v-47h-294zM493 504h50v-504h-50v105q-12 -35 -43 -62t-71 -41.5t-86 -14.5q-52 0 -98.5 20t-81.5 56t-54.5 85t-19.5 104t19.5 104t54.5 85t82 56t98 20q37 0 78.5 -12t75.5 -41.5t46 -64.5v105zM293 34q43 0 81 16t66 45.5t43.5 70t15.5 86.5t-15.5 86.5
t-43.5 70t-66 45.5t-81 16q-31 0 -65.5 -11t-69 -41.5t-52 -75.5t-17.5 -90t15.5 -85.5t43 -70t65.5 -46t80 -16.5z" />
    <glyph glyph-name="abreve.ss01" horiz-adv-x="603" 
d="M298 579q-18 0 -38.5 5.5t-40 19t-34.5 37t-20 56.5h47q10 -35 32 -54t54 -19t54.5 19.5t31.5 53.5h47q-3 -25 -18 -53t-46.5 -46.5t-68.5 -18.5zM493 504h50v-504h-50v105q-12 -35 -43 -62t-71 -41.5t-86 -14.5q-52 0 -98.5 20t-81.5 56t-54.5 85t-19.5 104t19.5 104
t54.5 85t82 56t98 20q37 0 78.5 -12t75.5 -41.5t46 -64.5v105zM293 34q43 0 81 16t66 45.5t43.5 70t15.5 86.5t-15.5 86.5t-43.5 70t-66 45.5t-81 16q-31 0 -65.5 -11t-69 -41.5t-52 -75.5t-17.5 -90t15.5 -85.5t43 -70t65.5 -46t80 -16.5z" />
    <glyph glyph-name="aring.ss01" horiz-adv-x="603" 
d="M304 561q-34 0 -58 24.5t-24 57.5q0 15 8 34t28.5 33t45.5 14q32 0 56.5 -24.5t24.5 -56.5q0 -33 -24 -57.5t-57 -24.5zM304 598q17 0 30.5 13.5t13.5 31.5t-13.5 31t-30.5 13q-18 0 -31.5 -13t-13.5 -31t13.5 -31.5t31.5 -13.5zM493 504h50v-504h-50v105
q-12 -35 -43 -62t-71 -41.5t-86 -14.5q-52 0 -98.5 20t-81.5 56t-54.5 85t-19.5 104t19.5 104t54.5 85t82 56t98 20q37 0 78.5 -12t75.5 -41.5t46 -64.5v105zM293 34q43 0 81 16t66 45.5t43.5 70t15.5 86.5t-15.5 86.5t-43.5 70t-66 45.5t-81 16q-31 0 -65.5 -11t-69 -41.5
t-52 -75.5t-17.5 -90t15.5 -85.5t43 -70t65.5 -46t80 -16.5z" />
    <glyph glyph-name="aringacute.ss01" horiz-adv-x="603" 
d="M280 761l60 145h65l-85 -145h-40zM301 561q-33 0 -57.5 24.5t-24.5 57.5q0 32 24.5 56.5t57.5 24.5t57 -24.5t24 -56.5q0 -33 -24 -57.5t-57 -24.5zM301 598q18 0 31 13.5t13 31.5t-13 31t-31 13t-31.5 -13t-13.5 -31t13.5 -31.5t31.5 -13.5zM493 504h50v-504h-50v105
q-12 -35 -43 -62t-71 -41.5t-86 -14.5q-52 0 -98.5 20t-81.5 56t-54.5 85t-19.5 104t19.5 104t54.5 85t82 56t98 20q37 0 78.5 -12t75.5 -41.5t46 -64.5v105zM293 34q43 0 81 16t66 45.5t43.5 70t15.5 86.5t-15.5 86.5t-43.5 70t-66 45.5t-81 16q-31 0 -65.5 -11t-69 -41.5
t-52 -75.5t-17.5 -90t15.5 -85.5t43 -70t65.5 -46t80 -16.5z" />
    <glyph glyph-name="aogonek.ss01" horiz-adv-x="603" 
d="M39 252q0 55 19.5 104t54.5 85t82 56t98 20q37 0 78.5 -12t75.5 -41.5t46 -64.5v105h50v-502q-24 -14 -45 -32.5t-30 -37.5t-9 -33q0 -23 15.5 -36t37.5 -13q33 0 59 15l-10 -43q-25 -13 -57 -13q-17 0 -37.5 7.5t-36 27.5t-15.5 46q0 33 22 62.5t56 47.5v105
q-12 -35 -43 -62t-71 -41.5t-86 -14.5q-52 0 -98.5 20t-81.5 56t-54.5 85t-19.5 104zM88 252q0 -45 15.5 -85.5t43.5 -70t65.5 -46t80.5 -16.5t81 16t66 45.5t43.5 70t15.5 86.5t-15.5 86.5t-43.5 70t-66 45.5t-81 16q-42 0 -75.5 -14.5t-60 -38t-48 -66.5t-21.5 -99z" />
    <glyph glyph-name="dcaron.ss01" horiz-adv-x="740" 
d="M578 552l59 145h66l-85 -145h-40zM493 697h50v-697h-50v105q-12 -35 -43 -62t-71 -41.5t-86 -14.5q-52 0 -98.5 20t-81.5 56t-54.5 85t-19.5 104t19.5 104t54.5 85t82 56t98 20q37 0 78.5 -12t75.5 -41.5t46 -64.5v298zM293 34q43 0 81 16t66 45.5t43.5 70t15.5 86.5
t-15.5 86.5t-43.5 70t-66 45.5t-81 16q-42 0 -75.5 -14.5t-60 -38t-48 -66.5t-21.5 -99q0 -45 15.5 -85.5t43.5 -70t65.5 -46t80.5 -16.5z" />
    <glyph glyph-name="dcroat.ss01" horiz-adv-x="604" 
d="M39 252q0 55 19.5 104t54.5 85t82 56t98 20q37 0 78.5 -12t75.5 -41.5t46 -64.5v186h-222v41h222v71h50v-71h52v-41h-52v-585h-50v105q-12 -35 -43 -62t-71 -41.5t-86 -14.5q-52 0 -98.5 20t-81.5 56t-54.5 85t-19.5 104zM88 252q0 -45 15.5 -85.5t43.5 -70t65.5 -46
t80.5 -16.5t81 16t66 45.5t43.5 70t15.5 86.5t-15.5 86.5t-43.5 70t-66 45.5t-81 16q-42 0 -75.5 -14.5t-60 -38t-48 -66.5t-21.5 -99z" />
    <glyph glyph-name="hcircumflex.ss01" horiz-adv-x="531" 
d="M-54 721l122 123h42l122 -123h-62l-81 84l-82 -84h-61zM61 0v697h50v-290q19 48 60.5 76.5t110.5 28.5q85 0 137 -55t52 -146v-311h-50v301q0 75 -41 119.5t-109 44.5q-73 0 -116.5 -53.5t-43.5 -140.5v-271h-50z" />
    <glyph glyph-name="hbar.ss01" horiz-adv-x="534" 
d="M64 0v583h-59v42h59v72h50v-72h209v-42h-209v-176q19 48 60.5 76.5t110.5 28.5q85 0 137 -55t52 -146v-311h-50v301q0 76 -41 120.5t-109 44.5q-73 0 -116.5 -53.5t-43.5 -141.5v-271h-50z" />
    <glyph glyph-name="igrave.ss01" horiz-adv-x="174" 
d="M70 552l-85 145h65l60 -145h-40zM62 0v504h50v-504h-50z" />
    <glyph glyph-name="iacute.ss01" horiz-adv-x="174" 
d="M63 552l60 145h65l-85 -145h-40zM62 0v504h50v-504h-50z" />
    <glyph glyph-name="icircumflex.ss01" horiz-adv-x="174" 
d="M62 0v504h50v-504h-50zM-38 576l104 123h42l104 -123h-58l-67 87l-67 -87h-58z" />
    <glyph glyph-name="itilde.ss01" horiz-adv-x="184" 
d="M1 599l-33 3q5 34 23.5 55.5t45.5 21.5q22 0 56.5 -22t49.5 -22q32 0 41 47l32 -3q-10 -84 -70 -84q-14 0 -26.5 5.5t-39 22t-40.5 16.5q-15 0 -25.5 -10.5t-13.5 -29.5zM67 0v504h50v-504h-50z" />
    <glyph glyph-name="idieresis.ss01" horiz-adv-x="174" 
d="M149 602q-13 0 -24.5 10t-11.5 26q0 15 11.5 25.5t24.5 10.5t24.5 -10.5t11.5 -25.5q0 -16 -11.5 -26t-24.5 -10zM24 602q-13 0 -24.5 10t-11.5 26q0 15 11.5 25.5t24.5 10.5t24.5 -10.5t11.5 -25.5q0 -16 -11.5 -26t-24.5 -10zM62 0v504h50v-504h-50z" />
    <glyph glyph-name="imacron.ss01" horiz-adv-x="174" 
d="M-23 607v47h219v-47h-219zM62 0v504h50v-504h-50z" />
    <glyph glyph-name="ibreve.ss01" horiz-adv-x="174" 
d="M86 583q-47 0 -78 31t-35 83h46q3 -31 21 -50t46 -19q29 0 47 19t21 50h47q-2 -25 -13.5 -52t-39 -44.5t-62.5 -17.5zM62 0v504h50v-504h-50z" />
    <glyph glyph-name="iogonek.ss01" horiz-adv-x="174" 
d="M87 602q-13 0 -24.5 10t-11.5 26q0 15 11.5 25.5t24.5 10.5q12 0 24 -10.5t12 -25.5q0 -16 -11.5 -26t-24.5 -10zM62 -1v505h50v-503q-34 -19 -54 -42.5t-24 -38.5t-4 -21q0 -23 15.5 -36t37.5 -13q33 0 58 15l-9 -43q-25 -13 -57 -13q-17 0 -38 7.5t-36 27t-15 46.5
q0 33 22 62.5t54 45.5v1z" />
    <glyph glyph-name="dotlessi.ss01" horiz-adv-x="174" 
d="M62 0v504h50v-504h-50z" />
    <glyph glyph-name="lacute.ss01" horiz-adv-x="174" 
d="M63 722l59 145h66l-85 -145h-40zM62 0v697h50v-697h-50z" />
    <glyph glyph-name="lcaron.ss01" horiz-adv-x="271" 
d="M146 552l60 145h65l-85 -145h-40zM62 0v697h50v-697h-50z" />
    <glyph glyph-name="lcommaaccent.ss01" horiz-adv-x="174" 
d="M60 -48h65l-85 -145h-40zM62 0v697h50v-697h-50z" />
    <glyph glyph-name="ldot.ss01" horiz-adv-x="270" 
d="M185 333q-12 0 -23.5 10t-11.5 26q0 7 4 16.5t15 14t16 4.5q15 0 25.5 -10t10.5 -25t-10.5 -25.5t-25.5 -10.5zM62 0v697h50v-697h-50z" />
    <glyph glyph-name="lslash.ss01" horiz-adv-x="202" 
d="M76 0v328l-68 -41v52l68 40v318h50v-288l85 51v-51l-85 -52v-357h-50z" />
    <glyph glyph-name="nacute.ss01" horiz-adv-x="541" 
d="M243 552l60 145h65l-85 -145h-40zM61 0v504h50v-97q43 105 176 105q87 0 140.5 -55t53.5 -146v-311h-50v301q0 75 -42.5 119.5t-112.5 44.5q-75 0 -120 -53.5t-45 -140.5v-271h-50z" />
    <glyph glyph-name="ncaron.ss01" horiz-adv-x="541" 
d="M258 574l-130 123h63l88 -85l88 85h62l-129 -123h-42zM61 0v504h50v-97q43 105 176 105q87 0 140.5 -55t53.5 -146v-311h-50v301q0 75 -42.5 119.5t-112.5 44.5q-75 0 -120 -53.5t-45 -140.5v-271h-50z" />
    <glyph glyph-name="ntilde.ss01" horiz-adv-x="541" 
d="M133 600q5 34 27 56.5t54 22.5q29 0 67 -22t58 -22t33.5 12t17.5 35l34 -3q-5 -40 -26 -62.5t-57 -22.5q-29 0 -67 21.5t-58 21.5q-18 0 -31.5 -10t-17.5 -29zM61 0v504h50v-97q43 105 176 105q87 0 140.5 -55t53.5 -146v-311h-50v301q0 75 -42.5 119.5t-112.5 44.5
q-75 0 -120 -53.5t-45 -140.5v-271h-50z" />
    <glyph glyph-name="ncommaaccent.ss01" horiz-adv-x="541" 
d="M245 -48h65l-85 -145h-40zM61 0v504h50v-97q43 105 176 105q87 0 140.5 -55t53.5 -146v-311h-50v301q0 75 -42.5 119.5t-112.5 44.5q-75 0 -120 -53.5t-45 -140.5v-271h-50z" />
    <glyph glyph-name="racute.ss04" horiz-adv-x="336" 
d="M136 552l60 145h65l-84 -145h-41zM61 0v356q0 78 39 120.5t126 42.5q37 0 65 -7v-47q-29 7 -66 7q-64 0 -89 -30.5t-25 -92.5v-349h-50z" />
    <glyph glyph-name="rcommaaccent.ss04" horiz-adv-x="336" 
d="M61 -48h65l-85 -145h-40zM61 0v356q0 78 39 120.5t126 42.5q37 0 65 -7v-47q-29 7 -66 7q-64 0 -89 -30.5t-25 -92.5v-349h-50z" />
    <glyph glyph-name="rcaron.ss04" horiz-adv-x="336" 
d="M165 574l-130 123h63l88 -85l88 85h62l-129 -123h-42zM61 0v356q0 78 39 120.5t126 42.5q37 0 65 -7v-47q-29 7 -66 7q-64 0 -89 -30.5t-25 -92.5v-349h-50z" />
    <glyph glyph-name="tcaron.ss01" horiz-adv-x="313" 
d="M192 552l59 145h61l-80 -145h-40zM97 0v457h-63v47h63v193h50v-193h118v-47h-118v-457h-50z" />
    <glyph glyph-name="tcommaaccent.ss01" horiz-adv-x="293" 
d="M97 -48h65l-84 -145h-41zM97 0v457h-63v47h63v193h50v-193h118v-47h-118v-457h-50z" />
    <glyph glyph-name="tbar.ss01" horiz-adv-x="293" 
d="M98 0v316h-64v47h64v94h-64v47h64v193h48v-193h119v-47h-119v-94h119v-47h-119v-316h-48z" />
    <glyph glyph-name="ugrave.ss01" horiz-adv-x="526" 
d="M254 552l-84 145h65l60 -145h-41zM263 -11q-46 0 -84.5 13t-66 39t-42.5 64t-15 86v313h50v-308q0 -77 42 -118.5t116 -41.5t116 41.5t42 118.5v308h50v-313q0 -36 -10 -72t-34.5 -64.5t-65 -47t-98.5 -18.5z" />
    <glyph glyph-name="uacute.ss01" horiz-adv-x="526" 
d="M231 552l60 145h65l-85 -145h-40zM263 -11q-46 0 -84.5 13t-66 39t-42.5 64t-15 86v313h50v-308q0 -77 42 -118.5t116 -41.5t116 41.5t42 118.5v308h50v-313q0 -36 -10 -72t-34.5 -64.5t-65 -47t-98.5 -18.5z" />
    <glyph glyph-name="ucircumflex.ss01" horiz-adv-x="526" 
d="M113 576l129 123h42l130 -123h-63l-88 85l-88 -85h-62zM263 -11q-46 0 -84.5 13t-66 39t-42.5 64t-15 86v313h50v-308q0 -77 42 -118.5t116 -41.5t116 41.5t42 118.5v308h50v-313q0 -36 -10 -72t-34.5 -64.5t-65 -47t-98.5 -18.5z" />
    <glyph glyph-name="utilde.ss01" horiz-adv-x="526" 
d="M119 601q4 34 26 56.5t55 22.5q28 0 66.5 -22t58.5 -22q41 0 51 46l33 -2q-5 -40 -26 -63t-56 -23q-30 0 -63 19t-45 22t-18 3q-18 0 -31.5 -10.5t-17.5 -29.5zM263 -11q-46 0 -84.5 13t-66 39t-42.5 64t-15 86v313h50v-308q0 -77 42 -118.5t116 -41.5t116 41.5t42 118.5
v308h50v-313q0 -36 -10 -72t-34.5 -64.5t-65 -47t-98.5 -18.5z" />
    <glyph glyph-name="udieresis.ss01" horiz-adv-x="526" 
d="M366 602q-13 0 -24.5 10t-11.5 26q0 15 11.5 25.5t24.5 10.5t24.5 -10.5t11.5 -25.5q0 -16 -11.5 -26t-24.5 -10zM160 602q-13 0 -24 10t-11 26q0 15 10.5 25.5t24.5 10.5q13 0 24.5 -10.5t11.5 -25.5q0 -16 -11.5 -26t-24.5 -10zM263 -11q-46 0 -84.5 13t-66 39
t-42.5 64t-15 86v313h50v-308q0 -77 42 -118.5t116 -41.5t116 41.5t42 118.5v308h50v-313q0 -36 -10 -72t-34.5 -64.5t-65 -47t-98.5 -18.5z" />
    <glyph glyph-name="umacron.ss01" horiz-adv-x="526" 
d="M116 607v47h294v-47h-294zM263 -11q-46 0 -84.5 13t-66 39t-42.5 64t-15 86v313h50v-308q0 -77 42 -118.5t116 -41.5t116 41.5t42 118.5v308h50v-313q0 -36 -10 -72t-34.5 -64.5t-65 -47t-98.5 -18.5z" />
    <glyph glyph-name="ubreve.ss01" horiz-adv-x="526" 
d="M263 579q-23 0 -52.5 10.5t-52.5 39.5t-28 68h47q10 -35 32 -54t54 -19t54 19t32 54h47q-3 -25 -18 -53t-46.5 -46.5t-68.5 -18.5zM263 -11q-46 0 -84.5 13t-66 39t-42.5 64t-15 86v313h50v-308q0 -77 42 -118.5t116 -41.5t116 41.5t42 118.5v308h50v-313q0 -36 -10 -72
t-34.5 -64.5t-65 -47t-98.5 -18.5z" />
    <glyph glyph-name="uring.ss01" horiz-adv-x="526" 
d="M263 536q-33 0 -57.5 24.5t-24.5 57.5q0 15 8 34t29 33t45 14q33 0 57 -24t24 -57t-24 -57.5t-57 -24.5zM263 573q18 0 31 13.5t13 31.5t-13 31t-31 13t-31.5 -13t-13.5 -31t13.5 -31.5t31.5 -13.5zM263 -11q-46 0 -84.5 13t-66 39t-42.5 64t-15 86v313h50v-308
q0 -77 42 -118.5t116 -41.5t116 41.5t42 118.5v308h50v-313q0 -36 -10 -72t-34.5 -64.5t-65 -47t-98.5 -18.5z" />
    <glyph glyph-name="uhungarumlaut.ss01" horiz-adv-x="526" 
d="M312 552l71 145h63l-96 -145h-38zM162 552l70 145h64l-96 -145h-38zM263 -11q-46 0 -84.5 13t-66 39t-42.5 64t-15 86v313h50v-308q0 -77 42 -118.5t116 -41.5t116 41.5t42 118.5v308h50v-313q0 -36 -10 -72t-34.5 -64.5t-65 -47t-98.5 -18.5z" />
    <glyph glyph-name="uogonek.ss01" horiz-adv-x="526" 
d="M263 -11q-46 0 -84.5 13t-66 39t-42.5 64t-15 86v313h50v-308q0 -77 42 -118.5t116 -41.5t116 41.5t42 118.5v308h50v-309q0 -123 -103 -188q-55 -35 -74 -59.5t-19 -48.5q0 -23 15.5 -36t37.5 -13q33 0 58 15l-9 -43q-25 -13 -57 -13q-17 0 -38 7.5t-36 27t-15 46.5
q0 31 19.5 58.5t48.5 44.5q-21 -4 -36 -4z" />
    <glyph glyph-name="ygrave.ss01" horiz-adv-x="502" 
d="M247 552l-85 145h65l60 -145h-40zM219 0l-200 504h52l174 -443l186 443h53l-296 -697h-51z" />
    <glyph glyph-name="yacute.ss01" horiz-adv-x="502" 
d="M221 552l60 145h65l-85 -145h-40zM219 0l-200 504h52l174 -443l186 443h53l-296 -697h-51z" />
    <glyph glyph-name="ycircumflex.ss01" horiz-adv-x="502" 
d="M95 576l129 123h42l130 -123h-63l-88 85l-88 -85h-62zM219 0l-200 504h52l174 -443l186 443h53l-296 -697h-51z" />
    <glyph glyph-name="ydieresis.ss01" horiz-adv-x="502" 
d="M349 602q-15 0 -25.5 10.5t-10.5 25.5t10.5 25.5t25.5 10.5q12 0 23.5 -10.5t11.5 -25.5q0 -16 -11.5 -26t-23.5 -10zM143 602q-13 0 -24.5 10t-11.5 26q0 15 11.5 25.5t24.5 10.5t24.5 -10.5t11.5 -25.5q0 -16 -11.5 -26t-24.5 -10zM219 0l-200 504h52l174 -443l186 443
h53l-296 -697h-51z" />
    <glyph glyph-name="uniFB01.aalt" horiz-adv-x="454" 
d="M109 0v457h-78v47h78v47q0 36 8.5 70t36.5 59q36 29 107 29q29 0 47 -4v-46q-20 4 -52 4q-49 0 -73 -26t-24 -80v-53h234v-504h-50v457h-184v-457h-50z" />
    <glyph glyph-name="glyph331" horiz-adv-x="479" 
d="M109 0v457h-78v47h78v47q0 36 8.5 70t36.5 59q33 29 95 29q25 0 39 -4v-46q-16 4 -44 4q-43 0 -64 -26t-21 -80v-53h112v-47h-112v-457h-50zM368 0v697h50v-697h-50z" />
    <glyph glyph-name="uniFB03.aalt" horiz-adv-x="688" 
d="M109 0v457h-78v47h78v47q0 158 140 158q25 0 39 -4v-46q-16 4 -44 4q-43 0 -64 -26t-21 -80v-53h184v47q0 36 8.5 70t36.5 59q36 29 107 29q29 0 47 -4v-46q-20 4 -52 4q-49 0 -73 -26t-24 -80v-53h234v-504h-50v457h-184v-457h-50v457h-184v-457h-50z" />
    <glyph glyph-name="glyph333" horiz-adv-x="703" 
d="M109 0v457h-78v47h78v47q0 158 140 158q25 0 39 -4v-46q-16 4 -44 4q-43 0 -64 -26t-21 -80v-53h184v47q0 158 140 158q25 0 39 -4v-46q-16 4 -44 4q-43 0 -64 -26t-21 -80v-53h112v-47h-112v-457h-50v457h-184v-457h-50zM592 0v697h50v-697h-50z" />
    <glyph glyph-name="zero.oldstyle" horiz-adv-x="528" 
d="M482 317q2 -16 2 -64q0 -50 -2 -65q-5 -52 -35 -100t-80.5 -73.5t-102.5 -25.5t-102.5 25.5t-80.5 73.5t-35 100q-2 15 -2 65q0 48 2 64q9 85 71.5 141.5t146.5 56.5t146.5 -56.5t71.5 -141.5zM430 192q2 15 2 61q0 45 -2 59q-6 67 -53.5 111t-112.5 44t-112.5 -44
t-53.5 -111q-2 -14 -2 -59l1 -61q7 -67 54.5 -111t112.5 -44t112.5 44.5t53.5 110.5z" />
    <glyph glyph-name="one.oldstyle" horiz-adv-x="328" 
d="M184 0v438l-125 -79l-28 42l157 103h48v-504h-52z" />
    <glyph glyph-name="two.oldstyle" horiz-adv-x="474" 
d="M30 0v37l275 206q65 50 65 116q0 32 -21 58.5t-50.5 37t-54.5 10.5q-59 0 -101.5 -41t-42.5 -97h-50q0 28 10 59.5t37.5 63.5t67.5 48.5t79 16.5q74 0 125 -45.5t51 -110.5q0 -44 -19 -81.5t-63 -72.5l-212 -157h320v-48h-416z" />
    <glyph glyph-name="three.oldstyle" horiz-adv-x="501" 
d="M17 12l46 21q19 -47 65.5 -75t108.5 -28q76 0 123.5 41t47.5 107q0 40 -21 75t-62 53t-88 18q-35 0 -79 -11l-19 34l218 209h-289v48h370v-35l-216 -205q13 4 36 4q41 0 78 -14t64.5 -39.5t42.5 -60.5t15 -76q0 -31 -10.5 -65t-40.5 -67t-76 -49.5t-94 -16.5
q-77 0 -136 35.5t-84 96.5z" />
    <glyph glyph-name="four.oldstyle" horiz-adv-x="539" 
d="M41 0v35l231 469h58l-226 -456h314v165h53v-406h-53v193h-377z" />
    <glyph glyph-name="five.oldstyle" horiz-adv-x="511" 
d="M32 11l46 21q21 -46 65.5 -73.5t101.5 -27.5q26 0 54 8t53.5 28t43 52t17.5 74q0 24 -8.5 51.5t-31.5 55t-57 41.5t-67 14q-38 0 -74 -14t-62 -37l-37 9l52 291h301v-48h-257l-33 -184q22 14 52 23.5t59 9.5q47 0 87.5 -17t69.5 -46t44.5 -67t15.5 -78q0 -35 -11 -72
t-42 -73t-77 -53.5t-92 -17.5q-55 0 -101 20.5t-72.5 51t-39.5 58.5z" />
    <glyph glyph-name="six.oldstyle" horiz-adv-x="532" 
d="M44 210q0 37 17 80t78 130l195 277h62l-200 -284q27 19 78 19q43 0 82.5 -17t69 -48t46 -71.5t16.5 -85.5t-17 -85.5t-47.5 -71t-71.5 -47.5t-85 -17q-45 0 -86 17t-71.5 47.5t-48 71.5t-17.5 85zM96 210q0 -72 50 -122t121 -50q43 0 83.5 22.5t63 64t22.5 85.5
q0 72 -49.5 123t-119.5 51q-71 0 -121 -51t-50 -123z" />
    <glyph glyph-name="seven.oldstyle" horiz-adv-x="488" 
d="M111 -193l285 649h-363v48h424v-37l-291 -660h-55z" />
    <glyph glyph-name="eight.oldstyle" horiz-adv-x="534" 
d="M41 206q0 72 40 125t100 71q-39 17 -63 55t-24 82q0 26 10.5 58.5t37 59.5t58.5 40t67 13q26 0 55 -9t55 -30t44.5 -55t18.5 -77q0 -44 -24.5 -82t-63.5 -55q44 -13 79 -46.5t48.5 -73.5t13.5 -76q0 -44 -17.5 -84t-48.5 -70.5t-72.5 -47.5t-87.5 -17t-87.5 17
t-72.5 47.5t-48.5 70.5t-17.5 84zM267 418q36 0 67 21t43 49t12 51q0 51 -35.5 86.5t-86.5 35.5t-86.5 -35.5t-35.5 -86.5q0 -24 12 -52t42.5 -48.5t67.5 -20.5zM93 206q0 -26 9 -54.5t30.5 -54t56 -43.5t78.5 -18q35 0 67 13t56 36.5t37.5 55t13.5 65.5q0 70 -51 119.5
t-123 49.5t-123 -49.5t-51 -119.5z" />
    <glyph glyph-name="nine.oldstyle" horiz-adv-x="532" 
d="M138 0l200 284q-25 -19 -79 -19q-43 0 -82.5 17t-69.5 48t-47 71.5t-17 85.5t17.5 85.5t48.5 71t72 47.5t85 17q45 0 86 -17t71.5 -47.5t48 -71.5t17.5 -85q0 -24 -8.5 -56t-29.5 -68.5t-56 -85.5l-195 -277h-62zM266 313q71 0 121 51t50 123q0 26 -9 55.5t-30 55.5
t-54.5 44t-77.5 18q-35 0 -66 -13t-55 -37t-37 -55.5t-13 -67.5q0 -26 9 -55.5t30 -55.5t54.5 -44.5t77.5 -18.5z" />
    <glyph glyph-name="zero.tnum" horiz-adv-x="523" 
d="M477 509q3 -34 3 -160q0 -127 -3 -161q-5 -53 -34.5 -101.5t-79.5 -74t-101 -25.5t-101 25.5t-79.5 74t-34.5 101.5q-3 34 -3 161q0 126 3 160q3 32 14.5 61.5t29.5 53.5t41.5 42t56.5 31t73 13q30 0 64 -10t69.5 -37t56.5 -69t25 -85zM425 192q3 31 3 157q0 125 -3 156
q-6 67 -52.5 112t-110.5 45t-110.5 -45t-52.5 -112q-3 -31 -3 -156q0 -126 3 -157q6 -67 52.5 -112t110.5 -45t110.5 45t52.5 112z" />
    <glyph glyph-name="one.tnum" horiz-adv-x="523" 
d="M323 0v635l-220 -132l-26 43l249 151h49v-697h-52z" />
    <glyph glyph-name="two.tnum" horiz-adv-x="523" 
d="M41 0v35l321 357q29 31 41 60t12 62q0 36 -20 71.5t-55.5 55t-72.5 19.5q-61 0 -104.5 -44t-43.5 -105h-52q0 30 10.5 63t39 67t70 51.5t81.5 17.5q31 0 64.5 -10t63.5 -34.5t50.5 -63.5t20.5 -89q0 -81 -68 -157q-252 -279 -280 -308h364v-48h-442z" />
    <glyph glyph-name="three.tnum" horiz-adv-x="523" 
d="M28 132l45 21q19 -53 67 -84.5t110 -31.5q79 0 129.5 50t50.5 128q0 75 -51.5 124t-134.5 49q-47 0 -92 -15l-20 35l239 241h-295v48h375v-35l-235 -235q17 5 47 5q56 0 108 -27.5t80 -80t28 -109.5q0 -37 -11.5 -76.5t-43 -77t-79 -56t-95.5 -18.5q-75 0 -136 38.5
t-86 106.5z" />
    <glyph glyph-name="four.tnum" horiz-adv-x="523" 
d="M36 166v35l245 496h57l-239 -482h314v164h53v-379h-53v166h-377z" />
    <glyph glyph-name="five.tnum" horiz-adv-x="523" 
d="M26 128l46 22q10 -24 32 -51t59.5 -44.5t77.5 -17.5q36 0 69 13.5t57.5 38.5t38 58.5t13.5 71.5q0 28 -8.5 58.5t-32.5 61.5t-59 47t-70 16q-74 0 -131 -45l-37 10l52 330h296v-48h-251l-34 -224q19 12 49 19.5t58 7.5q36 0 74.5 -12.5t75 -45.5t54.5 -80t18 -91
q0 -51 -17.5 -95t-49.5 -75.5t-74.5 -48.5t-90.5 -17q-71 0 -129 38.5t-86 102.5z" />
    <glyph glyph-name="six.tnum" horiz-adv-x="524" 
d="M44 209q0 20 8.5 54.5t61.5 123.5l183 310h58l-176 -298q28 24 90 24q31 0 66 -11t71.5 -41t55.5 -74t19 -88q0 -45 -17 -86t-47 -71.5t-70 -47.5t-84 -17q-55 0 -108 29t-82 82.5t-29 110.5zM96 207q0 -27 8.5 -56t29 -54.5t53.5 -43.5t76 -18q42 0 82 22.5t62 64
t22 85.5q0 42 -22 83t-62 63t-82 22q-71 0 -119 -48.5t-48 -119.5z" />
    <glyph glyph-name="seven.tnum" horiz-adv-x="523" 
d="M126 0l312 649h-404v48h467v-37l-317 -660h-58z" />
    <glyph glyph-name="eight.tnum" horiz-adv-x="523" 
d="M41 206q0 72 39.5 125t98.5 71q-38 17 -61.5 55t-23.5 82q0 71 49 121t118 50t118 -50t49 -121q0 -44 -24 -82t-62 -55q59 -18 99 -71.5t40 -124.5q0 -44 -17 -84t-47 -70.5t-70.5 -47.5t-85.5 -17t-85.5 17t-70.5 47.5t-47 70.5t-17 84zM261 418q34 0 63.5 21t41 49
t11.5 51q0 31 -15 60.5t-43 45.5t-58 16q-24 0 -50.5 -12t-46 -42t-19.5 -68q0 -50 34 -85.5t82 -35.5zM93 206q0 -71 49 -120.5t119 -49.5t119 49.5t49 120.5q0 70 -49 119.5t-119 49.5t-119 -49.5t-49 -119.5z" />
    <glyph glyph-name="nine.tnum" horiz-adv-x="523" 
d="M169 0l177 298q-30 -24 -90 -24q-31 0 -66 11t-71.5 41t-55.5 74t-19 88q0 45 17 86t47 71.5t70 47.5t84 17q55 0 108 -29t82 -82.5t29 -110.5q0 -22 -9.5 -59t-70.5 -139l-173 -290h-59zM262 321q26 0 54.5 8.5t53.5 29.5t42 54.5t17 76.5q0 27 -8.5 56t-29 54.5
t-53.5 43.5t-76 18q-42 0 -82.5 -22.5t-62.5 -64t-22 -85.5q0 -70 49 -119.5t118 -49.5z" />
    <glyph glyph-name="four.ss05" horiz-adv-x="549" 
d="M24 139v37l365 521h38v-509h85v-49h-85v-139h-52v139h-351zM89 188h286v405z" />
    <glyph glyph-name="four.ss05.oldstyle" horiz-adv-x="525" 
d="M22 0v37l342 467h39v-456h80v-48h-80v-193h-53v193h-328zM88 48h262v357z" />
    <glyph glyph-name="four.ss05.tnum" horiz-adv-x="523" 
d="M26 139v37l342 521h39v-509h70v-49h-70v-139h-52v139h-329zM89 188h266v400z" />
    <glyph glyph-name="uni2074.aalt" horiz-adv-x="363" 
d="M39 398v27l195 272h34v-260h44v-39h-44v-70h-40v70h-189zM94 437h134v184z" />
    <glyph glyph-name="uni2084.aalt" horiz-adv-x="363" 
d="M39 70v27l195 272h34v-260h44v-39h-44v-70h-40v70h-189zM94 109h134v184z" />
    <glyph glyph-name="onequarter.aalt" horiz-adv-x="653" 
d="M72 0l410 697h52l-409 -697h-53zM118 328v331h-48v38h88v-369h-40zM320 70v27l195 272h34v-260h44v-39h-44v-70h-41v70h-188zM375 109h133v184z" />
    <glyph glyph-name="threequarters.aalt" horiz-adv-x="768" 
d="M184 0l409 697h53l-410 -697h-52zM174 320q-44 0 -79.5 24t-50.5 63l36 13q11 -27 36.5 -43.5t57.5 -16.5q42 0 70 24.5t28 61.5q0 36 -27 60.5t-68 24.5q-34 0 -55 -8l-15 22l118 114h-151v38h218v-23l-116 -109q24 0 36 -2q42 -8 70.5 -40.5t28.5 -76.5q0 -43 -23 -73
t-55 -41.5t-59 -11.5zM436 70v27l194 272h35v-260h44v-39h-44v-70h-41v70h-188zM491 109h133v184z" />
    <glyph glyph-name="parenleft_P_parenright.dlig" horiz-adv-x="812" 
d="M46 348q0 73 28 139t77.5 115.5t115.5 77.5t139 28q72 0 138.5 -28t116 -77.5t77.5 -115.5t28 -139t-28 -139.5t-77.5 -116t-116 -77.5t-138.5 -28t-138.5 28t-116 78t-77.5 116t-28 139zM81 348q0 -66 25 -126t70 -105.5t104.5 -70.5t125.5 -25q65 0 125 25t104.5 70.5
t69.5 105.5t25 126t-25 126.5t-69.5 105.5t-104.5 70t-125 25q-66 0 -125.5 -25t-104.5 -70t-70 -105.5t-25 -126.5zM294 117v438h136q30 0 61.5 -13.5t54.5 -48.5t23 -76q0 -59 -39.5 -98.5t-99.5 -39.5h-86v-162h-50zM344 327h85q41 0 66 26t25 64t-25 64t-66 26h-85v-180
z" />
    <glyph glyph-name="colon.aalt" horiz-adv-x="172" 
d="M86 444q-13 0 -24.5 10t-11.5 26q0 15 11.5 25.5t24.5 10.5q12 0 24 -10.5t12 -25.5q0 -16 -11.5 -26t-24.5 -10zM86 168q-13 0 -24.5 10t-11.5 26q0 15 11.5 25.5t24.5 10.5q12 0 24 -10.5t12 -25.5q0 -16 -11.5 -26t-24.5 -10z" />
    <glyph glyph-name="semicolon.aalt" horiz-adv-x="211" 
d="M112 444q-13 0 -24.5 10t-11.5 26q0 15 11.5 25.5t24.5 10.5q12 0 24 -10.5t12 -25.5q0 -16 -11.5 -26t-24.5 -10zM-11 -38l94 239h67l-119 -239h-42z" />
    <glyph glyph-name="bullet.case" horiz-adv-x="224" 
d="M112 289q-24 0 -41.5 17t-17.5 42t17.5 42.5t41.5 17.5q23 0 41 -17.5t18 -42.5t-18 -42t-41 -17z" />
    <glyph glyph-name="periodcentered.aalt" horiz-adv-x="167" 
d="M84 312q-15 0 -25.5 10t-10.5 25t10.5 25.5t25.5 10.5q12 0 23.5 -10t11.5 -26q0 -15 -11.5 -25t-23.5 -10z" />
    <glyph glyph-name="guilsinglleft.aalt" horiz-adv-x="240" 
d="M149 158l-110 175l110 175h53l-110 -175l110 -175h-53z" />
    <glyph glyph-name="guilsinglright.aalt" horiz-adv-x="240" 
d="M39 158l110 175l-110 175h53l110 -175l-110 -175h-53z" />
    <glyph glyph-name="guillemotleft.aalt" horiz-adv-x="370" 
d="M279 158l-110 175l110 175h53l-110 -175l110 -175h-53zM149 158l-110 175l110 175h53l-110 -175l110 -175h-53z" />
    <glyph glyph-name="guillemotright.aalt" horiz-adv-x="370" 
d="M170 158l110 175l-110 175h52l110 -175l-110 -175h-52zM39 158l110 175l-110 175h53l110 -175l-110 -175h-53z" />
    <glyph glyph-name="slash.case" horiz-adv-x="406" 
d="M25 -81l314 859h47l-314 -859h-47z" />
    <glyph glyph-name="backslash.aalt" horiz-adv-x="407" 
d="M339 -81l-314 859h47l314 -859h-47z" />
    <glyph glyph-name="hyphen.aalt" horiz-adv-x="350" 
d="M45 325v47h261v-47h-261z" />
    <glyph glyph-name="endash.aalt" horiz-adv-x="463" 
d="M45 325v47h374v-47h-374z" />
    <glyph glyph-name="emdash.aalt" horiz-adv-x="727" 
d="M45 325v47h638v-47h-638z" />
    <glyph glyph-name="parenleft.aalt" horiz-adv-x="277" 
d="M274 -131q-110 96 -166.5 216.5t-56.5 256.5t56.5 256.5t166.5 216.5l26 -27q-199 -187 -199 -446t199 -446z" />
    <glyph glyph-name="parenright.aalt" horiz-adv-x="277" 
d="M-22 -104q198 187 198 446t-198 445l26 28q110 -96 166.5 -216.5t56.5 -256.5q0 -137 -56.5 -257t-166.5 -217z" />
    <glyph glyph-name="bracketleft.aalt" horiz-adv-x="286" 
d="M88 -96v890h197v-48h-145v-794h145v-48h-197z" />
    <glyph glyph-name="bracketright.aalt" horiz-adv-x="286" 
d="M2 -48h145v794h-145v48h197v-890h-197v48z" />
    <glyph glyph-name="braceleft.aalt" horiz-adv-x="303" 
d="M115 28v193q0 38 -9 62t-31 37q-5 3 -17.5 7.5t-25.5 5.5v34q13 1 25.5 5.5t17.5 7.5q16 10 28 30.5t12 68.5v193q0 53 29.5 88t80.5 35h34v-40h-29q-33 0 -49 -23t-16 -59v-176q0 -41 -6.5 -71.5t-24.5 -49.5q-19 -19 -43 -26q24 -7 43 -26q14 -14 22.5 -41t8.5 -80
v-176q0 -36 16 -59t49 -23h29v-40h-34q-51 0 -80.5 35t-29.5 88z" />
    <glyph glyph-name="braceright.aalt" horiz-adv-x="303" 
d="M44 -55h29q33 0 49 23t16 59v176q0 41 6.5 71.5t24.5 49.5q19 19 43 26q-24 7 -43 26q-14 14 -22.5 41t-8.5 80v176q0 36 -16 59t-49 23h-29v40h34q51 0 80.5 -35t29.5 -88v-193q0 -39 9 -62.5t31 -36.5q5 -3 17.5 -7.5t25.5 -5.5v-34q-13 -1 -25.5 -5.5t-17.5 -7.5
q-17 -10 -28.5 -30.5t-11.5 -68.5v-193q0 -53 -29.5 -88t-80.5 -35h-34v40z" />
    <glyph glyph-name="exclamdown.aalt" horiz-adv-x="223" 
d="M112 636q-13 0 -24.5 10.5t-11.5 25.5q0 16 11.5 26t24.5 10t24.5 -10t11.5 -26q0 -15 -12 -25.5t-24 -10.5zM80 0l11 542h42l10 -542h-63z" />
    <glyph glyph-name="questiondown.aalt" horiz-adv-x="391" 
d="M179 543q27 0 57.5 -10.5t50 -38.5t19.5 -66q0 -70 -80 -128q-2 -2 -41 -29.5t-59.5 -49t-28 -46t-7.5 -47.5q0 -15 7.5 -33t21.5 -30.5t35 -20t50 -7.5q73 0 137 62v-60q-58 -50 -137 -50q-36 0 -68.5 10t-54 31t-32 46.5t-10.5 49.5q0 30 7 57t27 52.5t67 60.5t49 37
q66 49 66 95q0 32 -19.5 49.5t-56.5 17.5q-39 0 -67 -18v52q28 14 67 14zM237 672q0 -16 -11.5 -26t-24.5 -10t-24.5 10t-11.5 26q0 15 11.5 25.5t24.5 10.5t24.5 -10.5t11.5 -25.5z" />
    <glyph glyph-name="at.aalt" horiz-adv-x="805" 
d="M42 348q0 68 26.5 133.5t75 116.5t115.5 80.5t143 29.5q70 0 136 -25.5t117 -72.5t80 -110.5t29 -134.5q0 -101 -37.5 -154t-101.5 -53q-38 0 -63.5 21.5t-35.5 58.5q-19 -33 -53 -52t-73 -19q-73 0 -123 50.5t-50 124.5t50.5 125t122.5 51q38 0 69 -16.5t50 -47.5v55h48
v-224q0 -40 16.5 -60t41.5 -20q89 0 89 160q0 60 -24.5 114.5t-67.5 96t-100.5 64.5t-119.5 23t-119 -24.5t-100 -68t-67.5 -101.5t-24.5 -121t24.5 -121t67.5 -101.5t100 -68t119 -24.5q36 0 76.5 11t73.5 30l23 -43q-81 -43 -173 -43q-69 0 -134.5 27t-116.5 76t-80 115.5
t-29 141.5zM276 342q0 -25 12 -55t43 -51t69 -21q24 0 52.5 12t49 43.5t20.5 71.5q0 41 -20.5 73t-49 44t-52.5 12q-25 0 -54 -12.5t-49.5 -44.5t-20.5 -72z" />
    <glyph glyph-name="A.c2sc" horiz-adv-x="585" 
d="M32 0l242 558h37l243 -558h-55l-62 145h-288l-63 -145h-54zM170 192h246l-123 286z" />
    <glyph glyph-name="b.aalt" horiz-adv-x="490" 
d="M83 0v558h177q64 0 105 -40t41 -101q0 -39 -20.5 -69.5t-55.5 -44.5q26 -4 54 -19.5t46 -48.5t18 -73q0 -25 -8.5 -52.5t-29 -51.5t-54 -41t-78.5 -17h-195zM135 321h119q43 0 72 27t29 67q0 19 -9.5 42t-34.5 38.5t-57 15.5h-119v-190zM135 47h140q52 0 87 33t35 82
q0 22 -11.5 48.5t-42.5 45t-70 18.5h-138v-227z" />
    <glyph glyph-name="C.aalt" horiz-adv-x="578" 
d="M43 278q0 61 22.5 114.5t62 93t92.5 61t112 21.5q63 0 119.5 -25.5t93.5 -68.5l-34 -31q-31 37 -78 57.5t-101 20.5q-49 0 -93 -18.5t-76 -51.5t-50 -77.5t-18 -95.5q0 -50 18 -94.5t50 -77.5t76 -51t93 -18q54 0 101 21.5t79 58.5l35 -32q-27 -32 -66.5 -55t-79 -31.5
t-69.5 -8.5q-59 0 -112 21.5t-92.5 60.5t-62 92.5t-22.5 113.5z" />
    <glyph glyph-name="D.c2sc" horiz-adv-x="620" 
d="M83 0v559h184q69 0 127 -20.5t98 -58t61 -89.5t21 -113q0 -60 -21 -111.5t-60.5 -89t-97 -57.5t-127.5 -20h-185zM135 47h129q123 0 190.5 63t67.5 168q0 52 -17 95t-49.5 74t-81.5 48t-111 17h-128v-465z" />
    <glyph glyph-name="e.aalt" horiz-adv-x="452" 
d="M83 0v558h312v-47h-260v-193h244v-47h-244v-224h266v-47h-318z" />
    <glyph glyph-name="f.aalt" horiz-adv-x="415" 
d="M83 0v558h286v-47h-234v-195h213v-47h-213v-269h-52z" />
    <glyph glyph-name="g.aalt" horiz-adv-x="600" 
d="M42 279q0 60 22.5 113.5t62 93t92.5 61t112 21.5q53 0 102 -17.5t83 -49.5l-30 -35q-31 26 -71 40.5t-84 14.5q-49 0 -93 -18.5t-76 -51t-50 -77.5t-18 -95q0 -51 18 -96t50 -78t76 -51t93 -18q46 0 88 15.5t73 43.5v159h-176v47h228v-223q-39 -41 -95.5 -65t-117.5 -24
q-59 0 -112 21.5t-92.5 61t-62 93t-22.5 114.5z" />
    <glyph glyph-name="H.c2sc" horiz-adv-x="613" 
d="M83 0v558h52v-238h344v238h51v-558h-51v273h-344v-273h-52z" />
    <glyph glyph-name="I.c2sc" horiz-adv-x="224" 
d="M86 0v558h52v-558h-52z" />
    <glyph glyph-name="j.aalt" horiz-adv-x="294" 
d="M28 -3v49q19 -8 48 -8q31 0 49 12t26 35.5t8 62.5v410h52v-408q0 -57 -11.5 -90t-41 -51.5t-82.5 -18.5q-30 0 -48 7z" />
    <glyph glyph-name="k.aalt" horiz-adv-x="538" 
d="M83 0v558h52v-309l301 309h65l-236 -246l246 -312h-64l-218 277l-94 -96v-181h-52z" />
    <glyph glyph-name="L.c2sc" horiz-adv-x="423" 
d="M83 0v558h52v-511h251v-47h-303z" />
    <glyph glyph-name="M.c2sc" horiz-adv-x="727" 
d="M83 0v558h49l231 -386l231 386h50v-558h-52v461l-229 -381l-229 381v-461h-51z" />
    <glyph glyph-name="N.c2sc" horiz-adv-x="633" 
d="M83 0v558h46l369 -469v469h52v-558h-43l-372 472v-472h-52z" />
    <glyph glyph-name="O.c2sc" horiz-adv-x="663" 
d="M42 278q0 61 22.5 115t62.5 93t93 60.5t111 21.5t111.5 -21.5t93.5 -60.5t62.5 -93t22.5 -115t-22.5 -114.5t-62.5 -92.5t-93.5 -60.5t-111.5 -21.5t-111 21.5t-93 60.5t-62.5 92.5t-22.5 114.5zM94 278q0 -51 18 -95.5t50 -77.5t76 -51t93 -18t93 18t76.5 51t50.5 77.5
t18 95.5t-18 96t-50.5 78t-76 51t-93.5 18q-49 0 -93 -18t-76 -51t-50 -78t-18 -96z" />
    <glyph glyph-name="p.aalt" horiz-adv-x="482" 
d="M83 0v558h178q47 0 90.5 -22t66 -62.5t22.5 -83.5q0 -35 -13.5 -66t-38 -53.5t-57.5 -35t-70 -12.5h-126v-223h-52zM135 270h124q30 0 59.5 12.5t49.5 42t20 65.5q0 52 -36 86.5t-93 34.5h-124v-241z" />
    <glyph glyph-name="q.aalt" horiz-adv-x="663" 
d="M42 278q0 61 22.5 114.5t62.5 92.5t93 60.5t111 21.5t111.5 -21.5t93.5 -60.5t62.5 -92.5t22.5 -114.5t-23 -114.5t-63 -91.5l61 -74l-37 -30l-60 74q-74 -52 -168 -52q-58 0 -111.5 21.5t-93 60.5t-62 92.5t-22.5 113.5zM94 278q0 -49 18 -93.5t50.5 -77.5t76 -51.5
t92.5 -18.5q74 0 137 42l-97 120l36 30l97 -119q31 31 48 75t17 93q0 51 -18 95.5t-50 77t-76 50.5t-94 18q-49 0 -92.5 -18t-76 -50.5t-50.5 -77t-18 -95.5z" />
    <glyph glyph-name="R.c2sc" horiz-adv-x="512" 
d="M83 0v558h194q45 0 87.5 -21t65.5 -60.5t23 -81.5q0 -26 -11 -57.5t-39.5 -59t-66.5 -40.5l145 -238h-60l-137 229l-21 -1h-128v-228h-52zM135 275h137q26 0 56.5 11.5t51.5 41t21 67.5q0 23 -12 50t-43.5 46.5t-70.5 19.5h-140v-236z" />
    <glyph glyph-name="S.aalt" horiz-adv-x="468" 
d="M39 124l44 21q21 -50 63 -79t100 -29q37 0 68 12.5t46 40t15 53.5q0 36 -19.5 60.5t-52.5 40.5t-69 31q-98 39 -125 75.5t-27 83.5q0 58 43.5 96.5t109.5 38.5q52 0 91.5 -22.5t61.5 -64.5l-44 -22q-31 62 -109 62q-32 0 -57 -13.5t-34.5 -34t-9.5 -39.5
q0 -23 11.5 -43.5t38 -36t76.5 -36.5q65 -27 99.5 -50t51 -53t16.5 -72q0 -68 -48.5 -111t-133.5 -43q-70 0 -125.5 34.5t-80.5 99.5z" />
    <glyph glyph-name="T.c2sc" horiz-adv-x="450" 
d="M199 0v511h-169v47h391v-47h-170v-511h-52z" />
    <glyph glyph-name="U.c2sc" horiz-adv-x="587" 
d="M457 558h52v-367q0 -95 -59.5 -147.5t-155.5 -52.5t-155.5 52.5t-59.5 147.5v367h52v-362q0 -76 44 -117t119 -41t119 41t44 117v362z" />
    <glyph glyph-name="v.aalt" horiz-adv-x="564" 
d="M262 0l-227 558h54l192 -471l193 471h55l-229 -558h-38z" />
    <glyph glyph-name="w.aalt" horiz-adv-x="808" 
d="M221 0l-193 558h52l159 -454l146 454h37l146 -454l159 454h53l-194 -558h-34l-148 461l-148 -461h-35z" />
    <glyph glyph-name="x.aalt" horiz-adv-x="552" 
d="M40 0l203 289l-191 269h58l167 -233l166 233h57l-191 -270l205 -288h-60l-180 251l-177 -251h-57z" />
    <glyph glyph-name="Y.c2sc" horiz-adv-x="522" 
d="M287 0h-52v233l-208 325h56l178 -277l178 277h56l-208 -325v-233z" />
    <glyph glyph-name="z.aalt" horiz-adv-x="542" 
d="M43 0v33l385 477h-341v48h412v-35l-383 -476h385v-47h-458z" />
    <glyph glyph-name="Agrave.c2sc" horiz-adv-x="585" 
d="M286 596l-75 116h64l50 -116h-39zM32 0l242 558h37l243 -558h-55l-62 145h-288l-63 -145h-54zM170 192h246l-123 286z" />
    <glyph glyph-name="Aacute.c2sc" horiz-adv-x="585" 
d="M260 596l49 116h65l-75 -116h-39zM32 0l242 558h37l243 -558h-55l-62 145h-288l-63 -145h-54zM170 192h246l-123 286z" />
    <glyph glyph-name="Acircumflex.c2sc" horiz-adv-x="585" 
d="M161 615l113 96h38l113 -96h-62l-70 62l-70 -62h-62zM32 0l242 558h37l243 -558h-55l-62 145h-288l-63 -145h-54zM170 192h246l-123 286z" />
    <glyph glyph-name="Atilde.c2sc" horiz-adv-x="585" 
d="M170 612q4 29 23 48.5t46 19.5q14 0 26.5 -4t37 -16t39.5 -12q33 0 40 34l33 -3q-4 -33 -22 -52.5t-49 -19.5q-24 0 -55.5 16t-47.5 16q-14 0 -24.5 -7.5t-14.5 -21.5zM32 0l242 558h37l243 -558h-55l-62 145h-288l-63 -145h-54zM170 192h246l-123 286z" />
    <glyph glyph-name="Adieresis.c2sc" horiz-adv-x="585" 
d="M381 600q-12 0 -23.5 10t-11.5 24q0 15 11.5 24.5t23.5 9.5t23 -9.5t11 -24.5q0 -13 -10.5 -23.5t-23.5 -10.5zM206 600q-12 0 -23.5 10t-11.5 24q0 15 11.5 24.5t23.5 9.5t23 -9.5t11 -24.5q0 -13 -10.5 -23.5t-23.5 -10.5zM32 0l242 558h37l243 -558h-55l-62 145h-288
l-63 -145h-54zM170 192h246l-123 286z" />
    <glyph glyph-name="Amacron.c2sc" horiz-adv-x="585" 
d="M168 615v46h251v-46h-251zM32 0l242 558h37l243 -558h-55l-62 145h-288l-63 -145h-54zM170 192h246l-123 286z" />
    <glyph glyph-name="Abreve.c2sc" horiz-adv-x="585" 
d="M292 601q-33 0 -61.5 16t-41.5 40t-16 46h45q19 -58 74 -58t74 58h46q-7 -46 -41 -74t-79 -28zM32 0l242 558h37l243 -558h-55l-62 145h-288l-63 -145h-54zM170 192h246l-123 286z" />
    <glyph glyph-name="Aring.c2sc" horiz-adv-x="585" 
d="M310 537l244 -537h-53l-66 145h-284l-66 -145h-53l244 537q-24 6 -40 25.5t-16 43.5q0 29 21.5 50t51.5 21t51.5 -21t21.5 -50q0 -24 -16 -43.5t-40 -25.5zM256 606q0 -14 11 -24.5t26 -10.5t26 10.5t11 24.5q0 15 -11 25.5t-26 10.5t-26 -10.5t-11 -25.5zM172 192h242
l-121 271z" />
    <glyph glyph-name="Aringacute.c2sc" horiz-adv-x="585" 
d="M278 710l45 108h65l-70 -108h-40zM310 537l244 -537h-53l-66 145h-284l-66 -145h-53l244 537q-24 6 -40 25.5t-16 43.5q0 29 21.5 50t51.5 21t51.5 -21t21.5 -50q0 -24 -16 -43.5t-40 -25.5zM256 606q0 -14 11 -24.5t26 -10.5t26 10.5t11 24.5q0 15 -11 25.5t-26 10.5
t-26 -10.5t-11 -25.5zM172 192h242l-121 271z" />
    <glyph glyph-name="Aogonek.c2sc" horiz-adv-x="585" 
d="M32 0l242 558h37l243 -558q-27 -10 -49 -33t-22 -46q0 -17 12.5 -27t30.5 -10q29 0 51 12l-9 -41q-24 -11 -50 -11q-32 0 -55.5 19t-23.5 49q0 19 14 43t47 42v2l-63 146h-288l-63 -145h-54zM170 192h246l-123 286z" />
    <glyph glyph-name="ae.aalt" horiz-adv-x="788" 
d="M6 0l455 558h269v-47h-231v-193h215v-47h-215v-224h237v-47h-289v143h-264l-117 -143h-60zM221 190h226v277z" />
    <glyph glyph-name="aeacute.aalt" horiz-adv-x="788" 
d="M437 596l50 116h64l-74 -116h-40zM6 0l455 558h269v-47h-231v-193h215v-47h-215v-224h237v-47h-289v143h-264l-117 -143h-60zM221 190h226v277z" />
    <glyph glyph-name="Cacute.aalt" horiz-adv-x="578" 
d="M305 596l48 116h64l-73 -116h-39zM43 278q0 61 22.5 114.5t62 93t92.5 61t112 21.5q63 0 119.5 -25.5t93.5 -68.5l-34 -31q-31 37 -78 57.5t-101 20.5q-49 0 -93 -18.5t-76 -51.5t-50 -77.5t-18 -95.5q0 -50 18 -94.5t50 -77.5t76 -51t93 -18q54 0 101 21.5t79 58.5
l35 -32q-27 -32 -66.5 -55t-79 -31.5t-69.5 -8.5q-59 0 -112 21.5t-92.5 60.5t-62 92.5t-22.5 113.5z" />
    <glyph glyph-name="Ccircumflex.aalt" horiz-adv-x="578" 
d="M202 615l113 96h38l113 -96h-62l-70 62l-70 -62h-62zM43 278q0 61 22.5 114.5t62 93t92.5 61t112 21.5q63 0 119.5 -25.5t93.5 -68.5l-34 -31q-31 37 -78 57.5t-101 20.5q-49 0 -93 -18.5t-76 -51.5t-50 -77.5t-18 -95.5q0 -50 18 -94.5t50 -77.5t76 -51t93 -18
q54 0 101 21.5t79 58.5l35 -32q-27 -32 -66.5 -55t-79 -31.5t-69.5 -8.5q-59 0 -112 21.5t-92.5 60.5t-62 92.5t-22.5 113.5z" />
    <glyph glyph-name="Ccaron.aalt" horiz-adv-x="578" 
d="M353 616h-38l-113 96h62l70 -63l70 63h62zM43 278q0 61 22.5 114.5t62 93t92.5 61t112 21.5q63 0 119.5 -25.5t93.5 -68.5l-34 -31q-31 37 -78 57.5t-101 20.5q-49 0 -93 -18.5t-76 -51.5t-50 -77.5t-18 -95.5q0 -50 18 -94.5t50 -77.5t76 -51t93 -18q54 0 101 21.5
t79 58.5l35 -32q-27 -32 -66.5 -55t-79 -31.5t-69.5 -8.5q-59 0 -112 21.5t-92.5 60.5t-62 92.5t-22.5 113.5z" />
    <glyph glyph-name="Cdotaccent.aalt" horiz-adv-x="578" 
d="M336 612q-13 0 -23.5 10.5t-10.5 23.5q0 15 11 25t23 10t23 -10t11 -25q0 -13 -10.5 -23.5t-23.5 -10.5zM43 278q0 61 22.5 114.5t62 93t92.5 61t112 21.5q63 0 119.5 -25.5t93.5 -68.5l-34 -31q-31 37 -78 57.5t-101 20.5q-49 0 -93 -18.5t-76 -51.5t-50 -77.5
t-18 -95.5q0 -50 18 -94.5t50 -77.5t76 -51t93 -18q54 0 101 21.5t79 58.5l35 -32q-27 -32 -66.5 -55t-79 -31.5t-69.5 -8.5q-59 0 -112 21.5t-92.5 60.5t-62 92.5t-22.5 113.5z" />
    <glyph glyph-name="Ccedilla.aalt" horiz-adv-x="578" 
d="M237 -133l14 27q23 -15 45 -15q14 0 24.5 8t10.5 19q0 32 -50 32h-11l23 55q-52 6 -98 30t-80 62t-53 88t-19 105q0 61 22.5 114.5t62 93t92.5 61t112 21.5q63 0 119.5 -25.5t93.5 -68.5l-34 -31q-31 37 -78 57.5t-101 20.5q-49 0 -93 -18.5t-76 -51.5t-50 -77.5
t-18 -95.5q0 -50 18 -94.5t50 -77.5t76 -51t93 -18q54 0 101 21.5t79 58.5l35 -32q-27 -32 -66.5 -55t-79 -31.5t-69.5 -8.5h-1l-13 -29h2q21 0 37 -15.5t16 -38.5q0 -30 -21 -45t-55 -15q-16 0 -33.5 6t-26.5 14z" />
    <glyph glyph-name="Dcaron.c2sc" horiz-adv-x="620" 
d="M315 616h-38l-113 96h62l70 -63l70 63h62zM83 0v559h184q69 0 127 -20.5t98 -58t61 -89.5t21 -113q0 -60 -21 -111.5t-60.5 -89t-97 -57.5t-127.5 -20h-185zM135 47h129q123 0 190.5 63t67.5 168q0 52 -17 95t-49.5 74t-81.5 48t-111 17h-128v-465z" />
    <glyph glyph-name="Dcroat.c2sc" horiz-adv-x="617" 
d="M83 0v263h-57v47h57v248h183q70 0 127.5 -20.5t97.5 -58t61 -89t21 -112.5t-21 -112.5t-61 -88.5t-97.5 -57t-126.5 -20h-184zM135 47h129q76 0 137.5 28.5t90.5 83.5t29 119q0 52 -16.5 95t-49.5 74t-82 47.5t-110 16.5h-128v-201h123v-47h-123v-216z" />
    <glyph glyph-name="egrave.aalt" horiz-adv-x="452" 
d="M237 596l-75 116h64l50 -116h-39zM83 0v558h312v-47h-260v-193h244v-47h-244v-224h266v-47h-318z" />
    <glyph glyph-name="eacute.aalt" horiz-adv-x="452" 
d="M208 596l50 116h64l-74 -116h-40zM83 0v558h312v-47h-260v-193h244v-47h-244v-224h266v-47h-318z" />
    <glyph glyph-name="ecircumflex.aalt" horiz-adv-x="452" 
d="M107 615l113 96h38l113 -96h-62l-70 62l-70 -62h-62zM83 0v558h312v-47h-260v-193h244v-47h-244v-224h266v-47h-318z" />
    <glyph glyph-name="ecaron.aalt" horiz-adv-x="452" 
d="M262 616h-38l-113 96h62l70 -63l70 63h62zM83 0v558h312v-47h-260v-193h244v-47h-244v-224h266v-47h-318z" />
    <glyph glyph-name="edieresis.aalt" horiz-adv-x="452" 
d="M326 612q-12 0 -23.5 10t-11.5 24q0 15 11.5 25t23.5 10t23 -10t11 -25q0 -13 -10.5 -23.5t-23.5 -10.5zM156 612q-13 0 -24 9.5t-11 24.5t11 25t24 10q12 0 23 -10t11 -25q0 -13 -10.5 -23.5t-23.5 -10.5zM83 0v558h312v-47h-260v-193h244v-47h-244v-224h266v-47h-318z
" />
    <glyph glyph-name="emacron.aalt" horiz-adv-x="452" 
d="M115 615v46h251v-46h-251zM83 0v558h312v-47h-260v-193h244v-47h-244v-224h266v-47h-318z" />
    <glyph glyph-name="ebreve.aalt" horiz-adv-x="452" 
d="M240 601q-46 0 -79.5 28t-40.5 74h46q19 -58 74 -58t74 58h46q-7 -46 -41 -74t-79 -28zM83 0v558h312v-47h-260v-193h244v-47h-244v-224h266v-47h-318z" />
    <glyph glyph-name="edotaccent.aalt" horiz-adv-x="452" 
d="M243 612q-13 0 -24 9.5t-11 24.5t11 25t24 10q12 0 23 -10t11 -25q0 -13 -10.5 -23.5t-23.5 -10.5zM83 0v558h312v-47h-260v-193h244v-47h-244v-224h266v-47h-318z" />
    <glyph glyph-name="eogonek.aalt" horiz-adv-x="452" 
d="M83 0v558h312v-47h-260v-193h244v-47h-244v-224h266v-47q-27 -15 -47.5 -36t-20.5 -43q0 -17 13 -27t31 -10q28 0 50 12l-8 -41q-25 -11 -50 -11q-32 0 -55.5 19t-23.5 49q0 28 18 51t47 37h-272z" />
    <glyph glyph-name="gcircumflex.aalt" horiz-adv-x="599" 
d="M201 615l113 96h38l113 -96h-62l-70 62l-70 -62h-62zM42 279q0 60 22.5 113.5t62 93t92.5 61t112 21.5q53 0 102 -17.5t83 -49.5l-30 -35q-31 26 -71 40.5t-84 14.5q-49 0 -93 -18.5t-76 -51t-50 -77.5t-18 -95q0 -51 18 -96t50 -78t76 -51t93 -18q46 0 88 15.5t73 43.5
v159h-176v47h228v-223q-39 -41 -95.5 -65t-117.5 -24q-59 0 -112 21.5t-92.5 61t-62 93t-22.5 114.5z" />
    <glyph glyph-name="gbreve.aalt" horiz-adv-x="599" 
d="M328 601q-44 0 -77.5 28.5t-39.5 73.5h46q8 -28 26.5 -43t44.5 -15q53 0 72 58h46q-7 -46 -40.5 -74t-77.5 -28zM42 279q0 60 22.5 113.5t62 93t92.5 61t112 21.5q53 0 102 -17.5t83 -49.5l-30 -35q-31 26 -71 40.5t-84 14.5q-49 0 -93 -18.5t-76 -51t-50 -77.5t-18 -95
q0 -51 18 -96t50 -78t76 -51t93 -18q46 0 88 15.5t73 43.5v159h-176v47h228v-223q-39 -41 -95.5 -65t-117.5 -24q-59 0 -112 21.5t-92.5 61t-62 93t-22.5 114.5z" />
    <glyph glyph-name="gdotaccent.aalt" horiz-adv-x="599" 
d="M332 612q-13 0 -23.5 10.5t-10.5 23.5q0 15 11 25t23 10t23 -10t11 -25q0 -13 -10.5 -23.5t-23.5 -10.5zM42 279q0 60 22.5 113.5t62 93t92.5 61t112 21.5q53 0 102 -17.5t83 -49.5l-30 -35q-31 26 -71 40.5t-84 14.5q-49 0 -93 -18.5t-76 -51t-50 -77.5t-18 -95
q0 -51 18 -96t50 -78t76 -51t93 -18q46 0 88 15.5t73 43.5v159h-176v47h228v-223q-39 -41 -95.5 -65t-117.5 -24q-59 0 -112 21.5t-92.5 61t-62 93t-22.5 114.5z" />
    <glyph glyph-name="Gcommaaccent.aalt" horiz-adv-x="599" 
d="M250 -154l48 116h64l-73 -116h-39zM42 279q0 60 22.5 113.5t62 93t92.5 61t112 21.5q53 0 102 -17.5t83 -49.5l-30 -35q-31 26 -71 40.5t-84 14.5q-49 0 -93 -18.5t-76 -51t-50 -77.5t-18 -95q0 -51 18 -96t50 -78t76 -51t93 -18q46 0 88 15.5t73 43.5v159h-176v47h228
v-223q-39 -41 -95.5 -65t-117.5 -24q-59 0 -112 21.5t-92.5 61t-62 93t-22.5 114.5z" />
    <glyph glyph-name="Hcircumflex.c2sc" horiz-adv-x="614" 
d="M83 0v558h52v-238h344v238h51v-558h-51v273h-344v-273h-52zM174 615l113 96h38l113 -96h-62l-70 62l-70 -62h-62z" />
    <glyph glyph-name="Hbar.c2sc" horiz-adv-x="614" 
d="M83 0v409h-51v45h51v104h52v-104h344v104h51v-104h50v-45h-50v-409h-51v273h-344v-273h-52zM135 320h344v89h-344v-89z" />
    <glyph glyph-name="Igrave.c2sc" horiz-adv-x="224" 
d="M94 596l-75 116h65l49 -116h-39zM86 0v558h52v-558h-52z" />
    <glyph glyph-name="Iacute.c2sc" horiz-adv-x="224" 
d="M90 596l49 116h65l-75 -116h-39zM86 0v558h52v-558h-52z" />
    <glyph glyph-name="Icircumflex.c2sc" horiz-adv-x="224" 
d="M86 0v558h52v-558h-52zM-15 615l108 96h38l108 -96h-59l-68 62l-68 -62h-59z" />
    <glyph glyph-name="Itilde.c2sc" horiz-adv-x="224" 
d="M21 610l-32 2q3 29 22 48.5t47 19.5q14 0 26.5 -4t37 -16t39.5 -12q32 0 40 34l33 -3q-5 -34 -22.5 -53t-48.5 -19q-24 0 -55.5 16t-47.5 16q-14 0 -25 -7.5t-14 -21.5zM86 0v558h52v-558h-52z" />
    <glyph glyph-name="Idieresis.c2sc" horiz-adv-x="224" 
d="M182 612q-13 0 -23.5 10.5t-10.5 23.5q0 15 11 25t23 10t23.5 -10t11.5 -25q0 -14 -11.5 -24t-23.5 -10zM42 612q-12 0 -23.5 10t-11.5 24q0 15 11.5 25t23.5 10t23 -10t11 -25q0 -13 -10.5 -23.5t-23.5 -10.5zM86 0v558h52v-558h-52z" />
    <glyph glyph-name="Imacron.c2sc" horiz-adv-x="224" 
d="M-3 615v46h229v-46h-229zM86 0v558h52v-558h-52z" />
    <glyph glyph-name="Ibreve.c2sc" horiz-adv-x="224" 
d="M112 601q-34 0 -62.5 16t-41.5 40t-16 46h46q19 -58 74 -58t74 58h45q-6 -45 -40 -73.5t-79 -28.5zM86 0v558h52v-558h-52z" />
    <glyph glyph-name="Idotaccent.c2sc" horiz-adv-x="224" 
d="M112 612q-12 0 -23.5 10t-11.5 24q0 15 11.5 25t23.5 10t23 -10t11 -25q0 -13 -10.5 -23.5t-23.5 -10.5zM86 0v558h52v-558h-52z" />
    <glyph glyph-name="Iogonek.c2sc" horiz-adv-x="224" 
d="M86 -2v560h52v-558q-26 -11 -48 -33.5t-22 -45.5q0 -17 12.5 -27t30.5 -10q27 0 51 12l-9 -41q-24 -11 -49 -11q-32 0 -55.5 19t-23.5 49q0 25 17 48t44 37v1z" />
    <glyph glyph-name="ij.aalt" horiz-adv-x="431" 
d="M94 -1v48q46 -10 91 -10q26 0 51 8.5t41 36.5t16 97v379h52v-372q0 -108 -38 -152.5t-121 -44.5q-53 0 -92 10zM95 131v427h52v-427h-52z" />
    <glyph glyph-name="jcircumflex.aalt" horiz-adv-x="294" 
d="M28 -3v49q19 -8 48 -8q31 0 49 12t26 35.5t8 62.5v410h52v-408q0 -57 -11.5 -90t-41 -51.5t-82.5 -18.5q-30 0 -48 7zM57 615l107 96h39l107 -96h-59l-68 62l-67 -62h-59z" />
    <glyph glyph-name="kcommaaccent.aalt" horiz-adv-x="533" 
d="M205 -154l51 116h64l-75 -116h-40zM83 0v558h52v-309l301 309h65l-236 -246l246 -312h-64l-218 277l-94 -96v-181h-52z" />
    <glyph glyph-name="Lacute.c2sc" horiz-adv-x="423" 
d="M92 596l51 116h64l-75 -116h-40zM83 0v558h52v-511h251v-47h-303z" />
    <glyph glyph-name="Lcaron.c2sc" horiz-adv-x="423" 
d="M83 0v558h52v-511h251v-47h-303zM217 442l49 116h65l-75 -116h-39z" />
    <glyph glyph-name="Lcommaaccent.c2sc" horiz-adv-x="423" 
d="M83 0v558h52v-511h251v-47h-303zM159 -154l51 116h64l-75 -116h-40z" />
    <glyph glyph-name="Ldot.c2sc" horiz-adv-x="423" 
d="M83 0v558h52v-511h251v-47h-303zM267 265q-13 0 -23.5 10.5t-10.5 23.5q0 15 11 24.5t23 9.5t23 -9.5t11 -24.5q0 -13 -10.5 -23.5t-23.5 -10.5z" />
    <glyph glyph-name="Lslash.c2sc" horiz-adv-x="422" 
d="M83 0v233l-57 -30v50l57 30v275h52v-246l119 64v-50l-119 -64v-215h251v-47h-303z" />
    <glyph glyph-name="Nacute.c2sc" horiz-adv-x="633" 
d="M281 596l50 116h65l-75 -116h-40zM83 0v558h46l369 -469v469h52v-558h-43l-372 472v-472h-52z" />
    <glyph glyph-name="Ncaron.c2sc" horiz-adv-x="633" 
d="M333 616h-38l-113 96h62l70 -63l70 63h62zM83 0v558h46l369 -469v469h52v-558h-43l-372 472v-472h-52z" />
    <glyph glyph-name="Ntilde.c2sc" horiz-adv-x="633" 
d="M193 612q4 30 23 49t47 19q14 0 26.5 -4t36.5 -16t39 -12q33 0 40 34l33 -3q-4 -34 -21.5 -53t-49.5 -19q-24 0 -55.5 16t-47.5 16q-13 0 -24 -7.5t-14 -21.5zM83 0v558h46l369 -469v469h52v-558h-43l-372 472v-472h-52z" />
    <glyph glyph-name="Ncommaaccent.c2sc" horiz-adv-x="633" 
d="M245 -154l50 116h64l-75 -116h-39zM83 0v558h46l369 -469v469h52v-558h-43l-372 472v-472h-52z" />
    <glyph glyph-name="ograve.aalt" horiz-adv-x="663" 
d="M319 596l-72 116h64l48 -116h-40zM42 278q0 61 22.5 115t62.5 93t93 60.5t111 21.5t111.5 -21.5t93.5 -60.5t62.5 -93t22.5 -115t-22.5 -114.5t-62.5 -92.5t-93.5 -60.5t-111.5 -21.5t-111 21.5t-93 60.5t-62.5 92.5t-22.5 114.5zM94 278q0 -51 18 -95.5t50 -77.5t76 -51
t93 -18t93 18t76.5 51t50.5 77.5t18 95.5t-18 96t-50.5 78t-76 51t-93.5 18q-49 0 -93 -18t-76 -51t-50 -78t-18 -96z" />
    <glyph glyph-name="oacute.aalt" horiz-adv-x="663" 
d="M297 596l48 116h64l-72 -116h-40zM42 278q0 61 22.5 115t62.5 93t93 60.5t111 21.5t111.5 -21.5t93.5 -60.5t62.5 -93t22.5 -115t-22.5 -114.5t-62.5 -92.5t-93.5 -60.5t-111.5 -21.5t-111 21.5t-93 60.5t-62.5 92.5t-22.5 114.5zM94 278q0 -51 18 -95.5t50 -77.5t76 -51
t93 -18t93 18t76.5 51t50.5 77.5t18 95.5t-18 96t-50.5 78t-76 51t-93.5 18q-49 0 -93 -18t-76 -51t-50 -78t-18 -96z" />
    <glyph glyph-name="ocircumflex.aalt" horiz-adv-x="663" 
d="M198 615l112 96h39l113 -96h-62l-70 62l-70 -62h-62zM42 278q0 61 22.5 115t62.5 93t93 60.5t111 21.5t111.5 -21.5t93.5 -60.5t62.5 -93t22.5 -115t-22.5 -114.5t-62.5 -92.5t-93.5 -60.5t-111.5 -21.5t-111 21.5t-93 60.5t-62.5 92.5t-22.5 114.5zM94 278
q0 -51 18 -95.5t50 -77.5t76 -51t93 -18t93 18t76.5 51t50.5 77.5t18 95.5t-18 96t-50.5 78t-76 51t-93.5 18q-49 0 -93 -18t-76 -51t-50 -78t-18 -96z" />
    <glyph glyph-name="otilde.aalt" horiz-adv-x="663" 
d="M212 612q4 29 22.5 48.5t45.5 19.5q14 0 26 -4t35.5 -16t37.5 -12q31 0 38 34l33 -3q-4 -34 -21.5 -53t-47.5 -19q-24 0 -54 16t-45 16q-14 0 -23.5 -7.5t-13.5 -21.5zM42 278q0 61 22.5 115t62.5 93t93 60.5t111 21.5t111.5 -21.5t93.5 -60.5t62.5 -93t22.5 -115
t-22.5 -114.5t-62.5 -92.5t-93.5 -60.5t-111.5 -21.5t-111 21.5t-93 60.5t-62.5 92.5t-22.5 114.5zM94 278q0 -51 18 -95.5t50 -77.5t76 -51t93 -18t93 18t76.5 51t50.5 77.5t18 95.5t-18 96t-50.5 78t-76 51t-93.5 18q-49 0 -93 -18t-76 -51t-50 -78t-18 -96z" />
    <glyph glyph-name="odieresis.aalt" horiz-adv-x="663" 
d="M416 600q-13 0 -23.5 10.5t-10.5 23.5q0 15 11 24.5t23 9.5t23 -9.5t11 -24.5q0 -13 -10.5 -23.5t-23.5 -10.5zM248 600q-13 0 -24 9.5t-11 24.5t11 24.5t24 9.5q12 0 23 -9.5t11 -24.5q0 -13 -10.5 -23.5t-23.5 -10.5zM42 278q0 61 22.5 115t62.5 93t93 60.5t111 21.5
t111.5 -21.5t93.5 -60.5t62.5 -93t22.5 -115t-22.5 -114.5t-62.5 -92.5t-93.5 -60.5t-111.5 -21.5t-111 21.5t-93 60.5t-62.5 92.5t-22.5 114.5zM94 278q0 -51 18 -95.5t50 -77.5t76 -51t93 -18t93 18t76.5 51t50.5 77.5t18 95.5t-18 96t-50.5 78t-76 51t-93.5 18
q-49 0 -93 -18t-76 -51t-50 -78t-18 -96z" />
    <glyph glyph-name="omacron.aalt" horiz-adv-x="663" 
d="M211 616v46h241v-46h-241zM42 278q0 61 22.5 115t62.5 93t93 60.5t111 21.5t111.5 -21.5t93.5 -60.5t62.5 -93t22.5 -115t-22.5 -114.5t-62.5 -92.5t-93.5 -60.5t-111.5 -21.5t-111 21.5t-93 60.5t-62.5 92.5t-22.5 114.5zM94 278q0 -51 18 -95.5t50 -77.5t76 -51t93 -18
t93 18t76.5 51t50.5 77.5t18 95.5t-18 96t-50.5 78t-76 51t-93.5 18q-49 0 -93 -18t-76 -51t-50 -78t-18 -96z" />
    <glyph glyph-name="obreve.aalt" horiz-adv-x="663" 
d="M330 601q-33 0 -61.5 16t-41.5 40t-16 46h45q19 -58 74 -58t74 58h46q-7 -46 -41 -74t-79 -28zM42 278q0 61 22.5 115t62.5 93t93 60.5t111 21.5t111.5 -21.5t93.5 -60.5t62.5 -93t22.5 -115t-22.5 -114.5t-62.5 -92.5t-93.5 -60.5t-111.5 -21.5t-111 21.5t-93 60.5
t-62.5 92.5t-22.5 114.5zM94 278q0 -51 18 -95.5t50 -77.5t76 -51t93 -18t93 18t76.5 51t50.5 77.5t18 95.5t-18 96t-50.5 78t-76 51t-93.5 18q-49 0 -93 -18t-76 -51t-50 -78t-18 -96z" />
    <glyph glyph-name="ohungarumlaut.aalt" horiz-adv-x="663" 
d="M373 596l54 116h62l-80 -116h-36zM250 596l54 116h61l-79 -116h-36zM42 278q0 61 22.5 115t62.5 93t93 60.5t111 21.5t111.5 -21.5t93.5 -60.5t62.5 -93t22.5 -115t-22.5 -114.5t-62.5 -92.5t-93.5 -60.5t-111.5 -21.5t-111 21.5t-93 60.5t-62.5 92.5t-22.5 114.5z
M94 278q0 -51 18 -95.5t50 -77.5t76 -51t93 -18t93 18t76.5 51t50.5 77.5t18 95.5t-18 96t-50.5 78t-76 51t-93.5 18q-49 0 -93 -18t-76 -51t-50 -78t-18 -96z" />
    <glyph glyph-name="Oslash.aalt" horiz-adv-x="661" 
d="M92 -3l47 62q-45 39 -71 96.5t-26 122.5q0 29 9 73.5t40.5 91t72 73.5t82 39t84.5 12q85 0 156 -44l46 62l38 -28l-46 -62q44 -40 69.5 -96t25.5 -121q0 -61 -22.5 -114.5t-62.5 -92t-93 -60t-111 -21.5q-83 0 -153 42l-48 -63zM168 98l290 387q-26 16 -60 25.5t-68 9.5
q-49 0 -92.5 -18t-75.5 -50.5t-50 -77.5t-18 -96q0 -54 19.5 -101t54.5 -79zM206 71q26 -16 59 -25t65 -9q36 0 76 12t80 45t60.5 83.5t20.5 100.5q0 53 -19.5 99.5t-53.5 78.5z" />
    <glyph glyph-name="Oslashacute.aalt" horiz-adv-x="661" 
d="M312 596l48 116h64l-73 -116h-39zM92 -3l47 62q-45 39 -71 96.5t-26 122.5q0 29 9 73.5t40.5 91t72 73.5t82 39t84.5 12q85 0 156 -44l46 62l38 -28l-46 -62q44 -40 69.5 -96t25.5 -121q0 -61 -22.5 -114.5t-62.5 -92t-93 -60t-111 -21.5q-83 0 -153 42l-48 -63zM168 98
l290 387q-26 16 -60 25.5t-68 9.5q-49 0 -92.5 -18t-75.5 -50.5t-50 -77.5t-18 -96q0 -54 19.5 -101t54.5 -79zM206 71q26 -16 59 -25t65 -9q36 0 76 12t80 45t60.5 83.5t20.5 100.5q0 53 -19.5 99.5t-53.5 78.5z" />
    <glyph glyph-name="oe.aalt" horiz-adv-x="909" 
d="M42 278q0 29 7.5 66t28 74.5t50.5 67t68 49t75 26.5t65 7q80 0 146 -38.5t92 -99.5v128h276v-47h-224v-193h208v-47h-208v-224h230v-47h-282v128q-27 -61 -92.5 -99.5t-145.5 -38.5q-60 0 -114 21.5t-94.5 60.5t-63 92.5t-22.5 113.5zM92 278q0 -50 18.5 -94.5
t51.5 -77.5t78 -51t96 -18q37 0 77.5 12t81 45.5t61 83.5t20.5 100q0 51 -18 95.5t-50.5 77.5t-77 51.5t-94.5 18.5q-51 0 -96 -18.5t-78 -51.5t-51.5 -77.5t-18.5 -95.5z" />
    <glyph glyph-name="Racute.c2sc" horiz-adv-x="512" 
d="M216 596l50 116h64l-75 -116h-39zM83 0v558h194q45 0 87.5 -21t65.5 -60.5t23 -81.5q0 -26 -11 -57.5t-39.5 -59t-66.5 -40.5l145 -238h-60l-137 229l-21 -1h-128v-228h-52zM135 275h137q26 0 56.5 11.5t51.5 41t21 67.5q0 23 -12 50t-43.5 46.5t-70.5 19.5h-140v-236z
" />
    <glyph glyph-name="Rcaron.c2sc" horiz-adv-x="512" 
d="M272 616h-38l-113 96h62l70 -63l70 63h62zM83 0v558h194q45 0 87.5 -21t65.5 -60.5t23 -81.5q0 -26 -11 -57.5t-39.5 -59t-66.5 -40.5l145 -238h-60l-137 229l-21 -1h-128v-228h-52zM135 275h137q26 0 56.5 11.5t51.5 41t21 67.5q0 23 -12 50t-43.5 46.5t-70.5 19.5h-140
v-236z" />
    <glyph glyph-name="Rcommaaccent.c2sc" horiz-adv-x="512" 
d="M193 -154l50 116h65l-75 -116h-40zM83 0v558h194q45 0 87.5 -21t65.5 -60.5t23 -81.5q0 -26 -11 -57.5t-39.5 -59t-66.5 -40.5l145 -238h-60l-137 229l-21 -1h-128v-228h-52zM135 275h137q26 0 56.5 11.5t51.5 41t21 67.5q0 23 -12 50t-43.5 46.5t-70.5 19.5h-140v-236z
" />
    <glyph glyph-name="Sacute.aalt" horiz-adv-x="468" 
d="M215 596l50 116h64l-75 -116h-39zM39 124l44 21q21 -50 63 -79t100 -29q37 0 68 12.5t46 40t15 53.5q0 36 -19.5 60.5t-52.5 40.5t-69 31q-98 39 -125 75.5t-27 83.5q0 58 43.5 96.5t109.5 38.5q52 0 91.5 -22.5t61.5 -64.5l-44 -22q-31 62 -109 62q-32 0 -57 -13.5
t-34.5 -34t-9.5 -39.5q0 -23 11.5 -43.5t38 -36t76.5 -36.5q65 -27 99.5 -50t51 -53t16.5 -72q0 -68 -48.5 -111t-133.5 -43q-70 0 -125.5 34.5t-80.5 99.5z" />
    <glyph glyph-name="Scircumflex.aalt" horiz-adv-x="468" 
d="M111 615l113 96h38l113 -96h-62l-70 62l-70 -62h-62zM39 124l44 21q21 -50 63 -79t100 -29q37 0 68 12.5t46 40t15 53.5q0 36 -19.5 60.5t-52.5 40.5t-69 31q-98 39 -125 75.5t-27 83.5q0 58 43.5 96.5t109.5 38.5q52 0 91.5 -22.5t61.5 -64.5l-44 -22q-31 62 -109 62
q-32 0 -57 -13.5t-34.5 -34t-9.5 -39.5q0 -23 11.5 -43.5t38 -36t76.5 -36.5q65 -27 99.5 -50t51 -53t16.5 -72q0 -68 -48.5 -111t-133.5 -43q-70 0 -125.5 34.5t-80.5 99.5z" />
    <glyph glyph-name="Scaron.aalt" horiz-adv-x="468" 
d="M260 616h-38l-113 96h62l70 -63l70 63h62zM39 124l44 21q21 -50 63 -79t100 -29q37 0 68 12.5t46 40t15 53.5q0 36 -19.5 60.5t-52.5 40.5t-69 31q-98 39 -125 75.5t-27 83.5q0 58 43.5 96.5t109.5 38.5q52 0 91.5 -22.5t61.5 -64.5l-44 -22q-31 62 -109 62
q-32 0 -57 -13.5t-34.5 -34t-9.5 -39.5q0 -23 11.5 -43.5t38 -36t76.5 -36.5q65 -27 99.5 -50t51 -53t16.5 -72q0 -68 -48.5 -111t-133.5 -43q-70 0 -125.5 34.5t-80.5 99.5z" />
    <glyph glyph-name="Scommaaccent.aalt" horiz-adv-x="468" 
d="M157 -154l50 116h66l-75 -116h-41zM39 124l44 21q21 -50 63 -79t100 -29q37 0 68 12.5t46 40t15 53.5q0 36 -19.5 60.5t-52.5 40.5t-69 31q-98 39 -125 75.5t-27 83.5q0 58 43.5 96.5t109.5 38.5q52 0 91.5 -22.5t61.5 -64.5l-44 -22q-31 62 -109 62q-32 0 -57 -13.5
t-34.5 -34t-9.5 -39.5q0 -23 11.5 -43.5t38 -36t76.5 -36.5q65 -27 99.5 -50t51 -53t16.5 -72q0 -68 -48.5 -111t-133.5 -43q-70 0 -125.5 34.5t-80.5 99.5z" />
    <glyph glyph-name="Scedilla.c2sc" horiz-adv-x="468" 
d="M39 124l44 21q21 -50 63 -79t100 -29q37 0 68 12.5t46 40t15 53.5q0 36 -19.5 60.5t-52.5 40.5t-69 31q-98 39 -125 75.5t-27 83.5q0 58 43.5 96.5t109.5 38.5q52 0 91.5 -22.5t61.5 -64.5l-44 -22q-31 62 -109 62q-32 0 -57 -13.5t-34.5 -34t-9.5 -39.5
q0 -23 11.5 -43.5t38 -36t76.5 -36.5q65 -27 99.5 -50t51 -53t16.5 -72q0 -65 -44.5 -107t-124.5 -46l-13 -30h2q21 0 37 -15.5t16 -38.5q0 -30 -21 -45t-55 -15q-16 0 -33.5 6t-26.5 14l14 27q23 -15 45 -15q14 0 24.5 8t10.5 19q0 32 -50 32h-11l22 53q-63 6 -110.5 40
t-69.5 93z" />
    <glyph glyph-name="germandbls.aalt" horiz-adv-x="935" 
d="M39 124l44 21q21 -50 63 -79t100 -29q37 0 68 12.5t46 40t15 53.5q0 36 -19.5 60.5t-52.5 40.5t-69 31q-98 39 -125 75.5t-27 83.5q0 58 43.5 96.5t109.5 38.5q52 0 91.5 -22.5t61.5 -64.5l-44 -22q-31 62 -109 62q-32 0 -57 -13.5t-34.5 -34t-9.5 -39.5
q0 -23 11.5 -43.5t38 -36t76.5 -36.5q65 -27 99.5 -50t51 -53t16.5 -72q0 -68 -48.5 -111t-133.5 -43q-70 0 -125.5 34.5t-80.5 99.5zM503 124l44 21q21 -50 63 -79t100 -29q37 0 68 12.5t46 40t15 53.5q0 36 -19.5 60.5t-52.5 40.5t-69 31q-98 39 -125 75.5t-27 83.5
q0 58 43.5 96.5t109.5 38.5q52 0 91.5 -22.5t61.5 -64.5l-44 -22q-31 62 -109 62q-32 0 -57 -13.5t-34.5 -34t-9.5 -39.5q0 -23 11.5 -43.5t38 -36t76.5 -36.5q65 -27 99.5 -50t51 -53t16.5 -72q0 -68 -48.5 -111t-133.5 -43q-70 0 -125.5 34.5t-80.5 99.5z" />
    <glyph glyph-name="Tcaron.c2sc" horiz-adv-x="450" 
d="M243 616h-38l-113 96h62l70 -63l70 63h62zM199 0v511h-169v47h391v-47h-170v-511h-52z" />
    <glyph glyph-name="Tcommaaccent.c2sc" horiz-adv-x="450" 
d="M144 -154l50 116h65l-75 -116h-40zM199 0v511h-169v47h391v-47h-170v-511h-52z" />
    <glyph glyph-name="Tbar.c2sc" horiz-adv-x="450" 
d="M199 0v299h-99v46h99v166h-169v47h391v-47h-170v-166h101v-46h-101v-299h-52z" />
    <glyph glyph-name="Ugrave.c2sc" horiz-adv-x="585" 
d="M288 596l-75 116h64l50 -116h-39zM457 558h52v-367q0 -95 -59.5 -147.5t-155.5 -52.5t-155.5 52.5t-59.5 147.5v367h52v-362q0 -76 44 -117t119 -41t119 41t44 117v362z" />
    <glyph glyph-name="Uacute.c2sc" horiz-adv-x="585" 
d="M263 596l50 116h64l-74 -116h-40zM457 558h52v-367q0 -95 -59.5 -147.5t-155.5 -52.5t-155.5 52.5t-59.5 147.5v367h52v-362q0 -76 44 -117t119 -41t119 41t44 117v362z" />
    <glyph glyph-name="Ucircumflex.c2sc" horiz-adv-x="585" 
d="M162 615l113 96h38l113 -96h-62l-70 62l-70 -62h-62zM457 558h52v-367q0 -95 -59.5 -147.5t-155.5 -52.5t-155.5 52.5t-59.5 147.5v367h52v-362q0 -76 44 -117t119 -41t119 41t44 117v362z" />
    <glyph glyph-name="Utilde.c2sc" horiz-adv-x="585" 
d="M173 612q4 30 23 49t47 19q14 0 26.5 -4t36.5 -16t39 -12q33 0 40 34l33 -3q-4 -34 -21.5 -53t-49.5 -19q-24 0 -55.5 16t-47.5 16q-13 0 -24 -7.5t-14 -21.5zM457 558h52v-367q0 -95 -59.5 -147.5t-155.5 -52.5t-155.5 52.5t-59.5 147.5v367h52v-362q0 -76 44 -117
t119 -41t119 41t44 117v362z" />
    <glyph glyph-name="Udieresis.c2sc" horiz-adv-x="585" 
d="M380 600q-12 0 -23.5 10t-11.5 24q0 15 11.5 24.5t23.5 9.5t23 -9.5t11 -24.5q0 -13 -10.5 -23.5t-23.5 -10.5zM209 600q-13 0 -23.5 10.5t-10.5 23.5q0 15 11 24.5t23 9.5t23.5 -9.5t11.5 -24.5q0 -14 -11.5 -24t-23.5 -10zM457 558h52v-367q0 -95 -59.5 -147.5
t-155.5 -52.5t-155.5 52.5t-59.5 147.5v367h52v-362q0 -76 44 -117t119 -41t119 41t44 117v362z" />
    <glyph glyph-name="Umacron.c2sc" horiz-adv-x="585" 
d="M167 615v46h250v-46h-250zM457 558h52v-367q0 -95 -59.5 -147.5t-155.5 -52.5t-155.5 52.5t-59.5 147.5v367h52v-362q0 -76 44 -117t119 -41t119 41t44 117v362z" />
    <glyph glyph-name="Ubreve.c2sc" horiz-adv-x="585" 
d="M294 601q-33 0 -61.5 16t-41.5 40t-16 46h45q19 -58 74 -58t74 58h46q-7 -46 -41 -74t-79 -28zM457 558h52v-367q0 -95 -59.5 -147.5t-155.5 -52.5t-155.5 52.5t-59.5 147.5v367h52v-362q0 -76 44 -117t119 -41t119 41t44 117v362z" />
    <glyph glyph-name="Uring.c2sc" horiz-adv-x="585" 
d="M294 567q-30 0 -51.5 21t-21.5 50t22 50.5t51 21.5q30 0 51.5 -21.5t21.5 -50.5t-21.5 -50t-51.5 -21zM294 602q15 0 26 11t11 25q0 15 -11 25.5t-26 10.5t-26 -10.5t-11 -25.5q0 -14 11 -25t26 -11zM457 558h52v-367q0 -95 -59.5 -147.5t-155.5 -52.5t-155.5 52.5
t-59.5 147.5v367h52v-362q0 -76 44 -117t119 -41t119 41t44 117v362z" />
    <glyph glyph-name="Uhungarumlaut.c2sc" horiz-adv-x="585" 
d="M328 596l53 116h62l-79 -116h-36zM200 596l53 116h62l-79 -116h-36zM457 558h52v-367q0 -95 -59.5 -147.5t-155.5 -52.5t-155.5 52.5t-59.5 147.5v367h52v-362q0 -76 44 -117t119 -41t119 41t44 117v362z" />
    <glyph glyph-name="Uogonek.c2sc" horiz-adv-x="587" 
d="M79 191v367h52v-362q0 -76 43.5 -117t118.5 -41q77 0 120.5 41t43.5 117v362h52v-362q0 -57 -22.5 -100.5t-62.5 -67.5q-63 -37 -86.5 -59.5t-23.5 -47.5q0 -17 12.5 -27t30.5 -10q27 0 51 12l-9 -41q-25 -11 -50 -11q-32 0 -55 19t-23 49q0 26 15.5 48.5t40.5 33.5
l-36 -3q-58 0 -108.5 22.5t-77 70.5t-26.5 107z" />
    <glyph glyph-name="wgrave.aalt" horiz-adv-x="808" 
d="M398 596l-75 116h64l51 -116h-40zM221 0l-193 558h52l159 -454l146 454h37l146 -454l159 454h53l-194 -558h-34l-148 461l-148 -461h-35z" />
    <glyph glyph-name="wacute.aalt" horiz-adv-x="808" 
d="M367 596l50 116h64l-74 -116h-40zM221 0l-193 558h52l159 -454l146 454h37l146 -454l159 454h53l-194 -558h-34l-148 461l-148 -461h-35z" />
    <glyph glyph-name="wcircumflex.aalt" horiz-adv-x="808" 
d="M272 615l113 96h38l113 -96h-62l-70 62l-70 -62h-62zM221 0l-193 558h52l159 -454l146 454h37l146 -454l159 454h53l-194 -558h-34l-148 461l-148 -461h-35z" />
    <glyph glyph-name="wdieresis.aalt" horiz-adv-x="808" 
d="M490 600q-13 0 -23.5 10.5t-10.5 23.5q0 15 11 24.5t23 9.5t23 -9.5t11 -24.5q0 -13 -10.5 -23.5t-23.5 -10.5zM319 600q-13 0 -23.5 10.5t-10.5 23.5q0 15 11 24.5t23 9.5q13 0 24 -9.5t11 -24.5t-11 -24.5t-24 -9.5zM221 0l-193 558h52l159 -454l146 454h37l146 -454
l159 454h53l-194 -558h-34l-148 461l-148 -461h-35z" />
    <glyph glyph-name="Ygrave.c2sc" horiz-adv-x="522" 
d="M257 596l-75 116h65l50 -116h-40zM287 0h-52v233l-208 325h56l178 -277l178 277h56l-208 -325v-233z" />
    <glyph glyph-name="Yacute.c2sc" horiz-adv-x="522" 
d="M232 596l50 116h64l-74 -116h-40zM287 0h-52v233l-208 325h56l178 -277l178 277h56l-208 -325v-233z" />
    <glyph glyph-name="Ycircumflex.c2sc" horiz-adv-x="522" 
d="M129 615l113 96h38l113 -96h-62l-70 62l-70 -62h-62zM287 0h-52v233l-208 325h56l178 -277l178 277h56l-208 -325v-233z" />
    <glyph glyph-name="Ydieresis.c2sc" horiz-adv-x="522" 
d="M346 599q-12 0 -23.5 10t-11.5 25q0 14 11.5 24t23.5 10t23.5 -10t11.5 -24q0 -15 -11.5 -25t-23.5 -10zM175 599q-12 0 -23 10t-11 25q0 13 10.5 23.5t23.5 10.5q12 0 23.5 -10t11.5 -24q0 -15 -11.5 -25t-23.5 -10zM287 0h-52v233l-208 325h56l178 -277l178 277h56
l-208 -325v-233z" />
    <glyph glyph-name="zacute.aalt" horiz-adv-x="542" 
d="M260 596l50 116h65l-75 -116h-40zM43 0v33l385 477h-341v48h412v-35l-383 -476h385v-47h-458z" />
    <glyph glyph-name="zcaron.aalt" horiz-adv-x="542" 
d="M317 616h-38l-113 96h62l70 -63l70 63h62zM43 0v33l385 477h-341v48h412v-35l-383 -476h385v-47h-458z" />
    <glyph glyph-name="zdotaccent.aalt" horiz-adv-x="542" 
d="M295 612q-13 0 -23.5 10.5t-10.5 23.5q0 15 11 25t23 10q13 0 24 -10t11 -25t-11 -24.5t-24 -9.5zM43 0v33l385 477h-341v48h412v-35l-383 -476h385v-47h-458z" />
    <glyph glyph-name="eng.aalt" horiz-adv-x="634" 
d="M83 0v558h45l372 -480v480h51v-549q0 -101 -34.5 -137.5t-95.5 -36.5q-31 0 -53 7v49q18 -9 53 -9q29 0 45.5 13.5t24.5 39.5t8 65v1l-364 470v-471h-52z" />
    <glyph glyph-name="eth.aalt" horiz-adv-x="617" 
d="M83 0v263h-57v47h57v248h183q70 0 127.5 -20.5t97.5 -58t61 -89t21 -112.5t-21 -112.5t-61 -88.5t-97.5 -57t-126.5 -20h-184zM135 47h129q76 0 137.5 28.5t90.5 83.5t29 119q0 52 -16.5 95t-49.5 74t-82 47.5t-110 16.5h-128v-201h123v-47h-123v-216z" />
    <glyph glyph-name="thorn.aalt" horiz-adv-x="408" 
d="M83 0v558h52v-122h58q82 0 129 -45t47 -115t-46 -114t-126 -44h-62v-118h-52zM135 165h58q57 0 90.5 31t33.5 82q0 50 -33.5 80.5t-91.5 30.5h-57v-224z" />
    <glyph glyph-name="arrowleft.aalt" horiz-adv-x="647" 
d="M235 145l-206 205l206 206l34 -33l-148 -149h484v-48h-485l149 -148z" />
    <glyph glyph-name="arrowup.aalt" horiz-adv-x="647" 
d="M298 72v476l-138 -140l-34 34l197 198l198 -198l-34 -34l-138 140v-476h-51z" />
    <glyph glyph-name="arrowright.aalt" horiz-adv-x="647" 
d="M34 326v48h485l-149 149l34 33l206 -206l-206 -205l-34 33l149 148h-485z" />
    <glyph glyph-name="arrowdown.aalt" horiz-adv-x="647" 
d="M126 254l34 33l138 -139v479h51v-479l138 139l34 -33l-198 -199z" />
    <glyph glyph-name="arrowboth.aalt" horiz-adv-x="888" 
d="M235 145l-206 205l206 206l34 -33l-149 -149h647l-148 149l33 33l207 -206l-207 -205l-33 33l149 148h-648l149 -148z" />
    <glyph glyph-name="arrowupdn.aalt" horiz-adv-x="647" 
d="M126 184l34 34l138 -140v549l-138 -140l-34 34l197 198l198 -198l-34 -34l-138 140v-549l138 140l34 -34l-198 -198z" />
    <glyph glyph-name="uni2196.aalt" horiz-adv-x="647" 
d="M119 263v292h292v-49h-209l365 -365l-34 -34l-363 363v-207h-51z" />
    <glyph glyph-name="uni2197.aalt" horiz-adv-x="647" 
d="M114 107l-34 34l365 365h-209v49h292v-292h-51v207z" />
    <glyph glyph-name="uni2198.aalt" horiz-adv-x="647" 
d="M236 138v50h209l-365 364l34 34l363 -363v207h51v-292h-292z" />
    <glyph glyph-name="uni2199.aalt" horiz-adv-x="647" 
d="M119 138v292h51v-207l363 363l34 -34l-365 -364h209v-50h-292z" />
    <glyph glyph-name="triagup.aalt" horiz-adv-x="447" 
d="M90 266l131 228l137 -228h-268z" />
    <glyph glyph-name="triagrt.aalt" horiz-adv-x="447" 
d="M126 226v267l228 -130z" />
    <glyph glyph-name="triagdn.aalt" horiz-adv-x="447" 
d="M221 226l-131 229h268z" />
    <glyph glyph-name="triaglf.aalt" horiz-adv-x="447" 
d="M93 363l227 130v-267z" />
    <glyph glyph-name="uni25E2.aalt" horiz-adv-x="447" 
d="M82 311l189 188l69 -253z" />
    <glyph glyph-name="uni25E3.aalt" horiz-adv-x="447" 
d="M108 246l69 253l189 -188z" />
    <glyph glyph-name="uni25E4.aalt" horiz-adv-x="447" 
d="M175 225l-69 253l258 -64z" />
    <glyph glyph-name="uni25E5.aalt" horiz-adv-x="447" 
d="M278 220l-189 189l253 69z" />
    <glyph glyph-name="A.swash" 
d="M144 0l267 649h-102q-67 0 -117 -24q-45 -23 -70 -65t-25 -94q0 -28 11.5 -62.5t42.5 -65.5t70 -44l-20 -44q-65 23 -110 82t-45 134q0 67 33 120t92 83q55 28 138 28h163l287 -697h-56l-78 190h-348l-77 -190h-56zM297 238h308l-154 379z" />
    <glyph glyph-name="glyph687" 
d="M35 0l287 697h163q83 0 138 -28q60 -31 92.5 -83.5t32.5 -119.5q0 -75 -45 -134t-110 -82l-20 44q39 13 69.5 44t42.5 65.5t12 62.5q0 52 -25 94t-71 65q-48 24 -116 24h-102l267 -649h-56l-78 190h-348l-77 -190h-56zM188 238h308l-154 379z" />
    <glyph glyph-name="A.swash.ss01" horiz-adv-x="1050" 
d="M45 209q0 48 19 92.5t52.5 77.5t78 51.5t93.5 18.5q59 0 111 -27.5t83 -75.5l-39 -29q-26 39 -67.5 61t-87.5 22q-28 0 -60 -10t-61 -33.5t-49.5 -61.5t-20.5 -86q0 -47 24.5 -92t68.5 -69.5t90 -24.5q69 0 115 38t86 136l206 500h41l287 -697h-56l-78 190h-348l-10 -25
q-47 -109 -103.5 -150t-139.5 -41q-47 0 -90 18.5t-75.5 51t-51 76t-18.5 89.5zM553 238h308l-154 379z" />
    <glyph glyph-name="glyph689" horiz-adv-x="1050" 
d="M35 0l287 697h41l206 -500q40 -98 86 -136t115 -38q46 0 90 24.5t68.5 69.5t24.5 92q0 38 -13 69t-34 56t-58.5 45.5t-85.5 20.5q-46 0 -87.5 -22t-67.5 -61l-39 29q31 48 83 75.5t111 27.5q49 0 93.5 -18.5t78 -51.5t52.5 -77.5t19 -92.5q0 -34 -12.5 -73.5t-45.5 -79.5
t-81.5 -61t-95.5 -21q-83 0 -139.5 41t-103.5 150l-10 25h-348l-78 -190h-56zM189 238h308l-154 379z" />
    <glyph glyph-name="B.swash" horiz-adv-x="834" 
d="M342 0v649h-33q-73 0 -124 -29q-44 -24 -68 -65.5t-24 -93.5q0 -33 14 -70.5t51 -70.5t86 -42l-10 -48q-40 8 -75.5 29t-61.5 52.5t-40.5 70t-14.5 79.5q0 32 11 71.5t42 76.5t75 60q56 28 139 28h241q27 0 57.5 -8.5t57 -29.5t45 -55t18.5 -80q0 -51 -25.5 -90.5
t-69.5 -54.5q65 -9 105 -59.5t40 -120.5q0 -41 -15.5 -78t-43 -64t-64.5 -42t-79 -15h-234zM394 48h179q65 0 109 43.5t44 107.5q0 65 -44.5 107.5t-112.5 42.5h-175v-301zM394 397h152q26 0 56.5 12t52 43t21.5 70q0 55 -36.5 91t-92.5 36h-153v-252z" />
    <glyph glyph-name="D.swash" horiz-adv-x="967" 
d="M342 0v649h-33q-73 0 -124 -29q-44 -24 -68 -65.5t-24 -93.5q0 -33 14 -70.5t51.5 -70.5t86.5 -42l-11 -48q-40 8 -75.5 29t-61.5 52.5t-40.5 70t-14.5 79.5q0 32 11 71.5t42 76.5t75 60q56 28 139 28h244q81 0 148.5 -25t114.5 -71.5t72 -111.5t25 -141t-25 -140.5
t-71.5 -111t-114 -71.5t-148.5 -25h-212zM394 48h156q73 0 131.5 21.5t98 61.5t60 95.5t20.5 121.5t-20.5 122t-60 96t-98.5 61.5t-132 21.5h-155v-601z" />
    <glyph glyph-name="E.swash" horiz-adv-x="790" 
d="M342 0v649h-33q-73 0 -124 -29q-44 -24 -68 -65.5t-24 -93.5q0 -33 14 -70.5t51.5 -70.5t86.5 -42l-11 -48q-40 8 -75.5 29t-61.5 52.5t-40.5 70t-14.5 79.5q0 32 11 71.5t42 76.5t75 60q56 28 139 28h413v-48h-328v-256h309v-49h-309v-296h335v-48h-387z" />
    <glyph glyph-name="glyph693" horiz-adv-x="824" 
d="M96 0v697h380v-48h-328v-256h309v-49h-309v-296h334q44 0 84.5 5t73.5 23q42 23 66.5 65.5t24.5 93.5q0 33 -14 71t-51 71t-86 42l10 48q83 -16 137.5 -82t54.5 -150q0 -50 -20 -95.5t-52 -73t-62 -41.5q-56 -25 -166 -25h-386z" />
    <glyph glyph-name="F.swash" horiz-adv-x="740" 
d="M342 0v649h-33q-73 0 -124 -29q-44 -24 -68 -65.5t-24 -93.5q0 -33 14 -70.5t51.5 -70.5t86.5 -42l-11 -48q-40 8 -75.5 29t-61.5 52.5t-40.5 70t-14.5 79.5q0 32 11 71.5t42 76.5t75 60q56 28 139 28h377v-48h-292v-259h267v-48h-267v-342h-52z" />
    <glyph glyph-name="G.swash" horiz-adv-x="737" 
d="M50 348q0 75 27.5 141.5t77 115.5t116 76t139.5 27q63 0 120.5 -19.5t102.5 -55.5l-31 -37q-84 64 -192 64q-64 0 -121 -23.5t-99 -66t-65 -100.5t-23 -122q0 -65 23 -123t65 -100.5t99 -66t121 -23.5q60 0 115.5 20.5t95.5 56.5v211h-229v48h281v-367q0 -104 -28 -167
q-24 -54 -75 -84.5t-120 -30.5q-84 0 -142.5 50.5t-72.5 130.5l49 11q5 -29 23.5 -63t56 -57t86.5 -23q51 0 89.5 22t57.5 61q10 21 17 52t7 97v53q-42 -34 -97.5 -51.5t-113.5 -17.5q-73 0 -139.5 27t-116 76t-77 116t-27.5 142z" />
    <glyph glyph-name="H.swash" horiz-adv-x="955" 
d="M342 0v649h-33q-73 0 -124 -29q-44 -24 -68 -65.5t-24 -93.5q0 -33 14 -70.5t51.5 -70.5t86.5 -42l-11 -48q-40 8 -75.5 29t-61.5 52.5t-40.5 70t-14.5 79.5q0 32 11 71.5t42 76.5t75 60q56 28 139 28h85v-303h413v303h52v-697h-52v346h-413v-346h-52z" />
    <glyph glyph-name="glyph697" horiz-adv-x="985" 
d="M96 0v697h52v-303h413v303h52v-649h33q73 0 124 29q44 24 67.5 65.5t23.5 93.5q0 33 -14 70.5t-51 70.5t-86 42l11 48q61 -12 104 -49t65 -84t22 -98q0 -68 -33.5 -122.5t-93.5 -85.5q-56 -28 -139 -28h-85v346h-413v-346h-52z" />
    <glyph glyph-name="I.swash" horiz-adv-x="494" 
d="M342 0v649h-33q-73 0 -124 -29q-44 -24 -68 -65.5t-24 -93.5q0 -33 14 -70.5t51.5 -70.5t86.5 -42l-11 -48q-40 8 -75.5 29t-61.5 52.5t-40.5 70t-14.5 79.5q0 32 11 71.5t42 76.5t75 60q56 28 139 28h85v-697h-52z" />
    <glyph glyph-name="I.swash.ss01" horiz-adv-x="614" 
d="M462 0v443q0 39 -5.5 73.5t-28.5 71.5q-23 35 -62 56t-87 21q-46 0 -90 -24t-68.5 -68.5t-24.5 -90.5q0 -45 24.5 -88.5t68.5 -67.5t90 -24q28 0 61 10l16 -44q-37 -14 -77 -14q-35 0 -74.5 11.5t-79 43.5t-60 79t-20.5 94q0 34 12.5 73t45.5 78.5t81.5 60t94.5 20.5
q49 0 92.5 -17t75.5 -49q67 -67 67 -198v-450h-52z" />
    </font>
</defs>
</svg>
